<?xml version="1.0" encoding="UTF-8"?>
<svg width="40px" height="40px" viewBox="0 0 40 40" version="1.1" xmlns="http://www.w3.org/2000/svg" xmlns:xlink="http://www.w3.org/1999/xlink">
    <title>email</title>
    <g id="email" stroke="none" stroke-width="1" fill="none" fill-rule="evenodd">
        <g id="ô€•" transform="translate(0.000000, 3.000000)" fill="#000000" fill-rule="nonzero">
            <path d="M4.97735507,27 L30.4981884,27 C31.9248188,27 33.0317784,26.5951828 33.819067,25.7855485 C34.6063557,24.9759141 35,23.7614626 35,22.1421938 L35,4.84213581 C35,3.23331399 34.5852204,2.0240859 33.7556612,1.21445154 C32.9261021,0.404817179 31.6817633,0 30.0226449,0 L4.50181159,0 C3.07518116,0 1.96822162,0.404817179 1.18093297,1.21445154 C0.393644324,2.0240859 0,3.23331399 0,4.84213581 L0,22.1421938 C0,23.7614626 0.414779589,24.9759141 1.24433877,25.7855485 C2.07389795,26.5951828 3.31823671,27 4.97735507,27 Z M4.88224638,24.6024376 C4.08967391,24.6024376 3.48203502,24.3961114 3.05932971,23.9834591 C2.6366244,23.5708067 2.42527174,22.9570517 2.42527174,22.1421938 L2.42527174,4.84213581 C2.42527174,4.0377249 2.6366244,3.42919327 3.05932971,3.01654092 C3.48203502,2.60388857 4.08967391,2.39756239 4.88224638,2.39756239 L30.1177536,2.39756239 C30.8997585,2.39756239 31.5047554,2.60388857 31.9327446,3.01654092 C32.3607337,3.42919327 32.5747283,4.04294835 32.5747283,4.85780615 L32.5747283,22.1578642 C32.5747283,22.9622751 32.3607337,23.5708067 31.9327446,23.9834591 C31.5047554,24.3961114 30.8997585,24.6024376 30.1177536,24.6024376 L4.88224638,24.6024376 Z M17.5317029,17.6761463 C18.0917874,17.6761463 18.6413043,17.556007 19.1802536,17.3157284 C19.7192029,17.0754498 20.2687198,16.6836912 20.8288043,16.1404527 L33.7001812,3.63551944 L32.0516304,1.99013349 L19.4497283,14.2913523 C19.1009964,14.6256529 18.7707579,14.871155 18.4590127,15.0278584 C18.1472675,15.1845618 17.8381643,15.2629135 17.5317029,15.2629135 C17.2146739,15.2629135 16.9002868,15.1819501 16.5885417,15.0200232 C16.2767965,14.8580963 15.9518418,14.615206 15.6136775,14.2913523 L2.94836957,1.92745212 L1.28396739,3.57283807 L14.2346014,16.1404527 C14.7841184,16.6836912 15.3309934,17.0754498 15.8752264,17.3157284 C16.4194595,17.556007 16.9716184,17.6761463 17.5317029,17.6761463 Z M31.8931159,24.9471851 L33.5416667,23.3017992 L23.285779,13.2884504 L21.6372283,14.918166 L31.8931159,24.9471851 Z M1.50588768,23.3174695 L3.15443841,24.9628555 L13.4261775,14.918166 L11.7617754,13.2884504 L1.50588768,23.3174695 Z" id="Shape"></path>
        </g>
    </g>
</svg>