<?xml version="1.0" encoding="UTF-8"?>
<svg width="40px" height="40px" viewBox="0 0 40 40" version="1.1" xmlns="http://www.w3.org/2000/svg" xmlns:xlink="http://www.w3.org/1999/xlink">
    <title>github</title>
    <g id="github" stroke="none" stroke-width="1" fill="none" fill-rule="evenodd">
        <g id="iconmonstr-github-1-(1)" fill="#000000" fill-rule="nonzero">
            <path d="M16,0 C7.16533333,0 0,7.34510818 0,16.404485 C0,23.6525334 4.584,29.8014812 10.9426667,31.9709743 C11.7413333,32.1227158 12,31.6141768 12,31.182192 L12,28.1282237 C7.54933333,29.120695 6.62266667,26.1924945 6.62266667,26.1924945 C5.89466667,24.2964094 4.84533333,23.7919715 4.84533333,23.7919715 C3.39333333,22.7735264 4.956,22.795399 4.956,22.795399 C6.56266667,22.9102304 7.408,24.486428 7.408,24.486428 C8.83466667,26.9935801 11.1506667,26.2690487 12.064,25.8493673 C12.2066667,24.789911 12.6213333,24.0653796 13.08,23.6566345 C9.52666667,23.2396871 5.79066667,21.8330026 5.79066667,15.5487177 C5.79066667,13.7565278 6.416,12.2937945 7.43866667,11.1454805 C7.27333333,10.7312673 6.72533333,9.06211095 7.59466667,6.80376017 C7.59466667,6.80376017 8.93866667,6.36357316 11.996,8.48521989 C13.272,8.12158714 14.64,7.93977076 16,7.93293556 C17.36,7.93977076 18.7293333,8.12158714 20.008,8.48521989 C23.0626667,6.36357316 24.404,6.80376017 24.404,6.80376017 C25.2746667,9.06347799 24.7266667,10.7326343 24.5613333,11.1454805 C25.588,12.2937945 26.208,13.7578948 26.208,15.5487177 C26.208,21.849407 22.4653333,23.2369531 18.9026667,23.6429641 C19.476,24.1515031 20,25.1494426 20,26.6805279 L20,31.182192 C20,31.6182779 20.256,32.130918 21.068,31.9696073 C27.4213333,29.79738 32,23.6497993 32,16.404485 C32,7.34510818 24.836,0 16,0 Z" id="Path"></path>
        </g>
    </g>
</svg>