<?xml version="1.0" encoding="UTF-8"?>
<svg width="40px" height="40px" viewBox="0 0 40 40" version="1.1" xmlns="http://www.w3.org/2000/svg" xmlns:xlink="http://www.w3.org/1999/xlink">
    <title>twitter</title>
    <g id="twitter" stroke="none" stroke-width="1" fill="none" fill-rule="evenodd">
        <g id="iconmonstr-twitter-1" transform="translate(0.000000, 2.000000)" fill="#000000" fill-rule="nonzero">
            <path d="M36,3.43319319 C34.6755,4.01604799 33.252,4.40858285 31.758,4.58552092 C33.2835,3.68001436 34.455,2.24518048 35.0055,0.535274815 C33.579,1.37387203 31.998,1.98349057 30.315,2.31208983 C28.9695,0.889150943 27.048,0 24.924,0 C20.1555,0 16.6515,4.41006973 17.7285,8.98815628 C11.592,8.68334701 6.15,5.76907301 2.5065,1.33967391 C0.5715,4.63012715 1.503,8.93462879 4.791,11.1143868 C3.582,11.0757281 2.442,10.7471288 1.4475,10.1984721 C1.3665,13.5900328 3.819,16.763023 7.371,17.4692884 C6.3315,17.7488208 5.193,17.8142432 4.035,17.5941858 C4.974,20.5025123 7.701,22.6183347 10.935,22.6778097 C7.83,25.091007 3.918,26.168991 0,25.7110336 C3.2685,27.7881973 7.152,29 11.322,29 C25.035,29 32.7825,17.5198421 32.3145,7.22323626 C33.7575,6.18985849 35.01,4.90073831 36,3.43319319 Z" id="Path"></path>
        </g>
    </g>
</svg>