<?xml version="1.0" encoding="UTF-8"?><svg id="uuid-edab914d-a343-473d-9426-bde939ecb8c1" xmlns="http://www.w3.org/2000/svg" viewBox="0 0 130 240"><rect x="-74.72" y="-1492.93" width="1029.29" height="2324.87" style="fill:none; stroke:#fff; stroke-miterlimit:10; stroke-width:20px;"/><g><g><path d="M68.86,96.48l55.05-63.73c2.47-2.86,.45-7.32-3.32-7.32H9.4c-3.79,0-5.8,4.5-3.29,7.35l56.14,63.73c1.76,2,4.87,1.98,6.61-.03" style="fill:#a0285a;"/><path d="M66.34,0s-26.81,31.94-26.81,46.84c0,6.21,2.09,11.93,5.6,16.48,0,0,7.22,9.68,19.69,10.43v24.19c.48,.07,.98,.09,1.52-.01V0Z" style="fill:#f5cdcd;"/><path d="M66.34,0s26.81,31.94,26.81,46.84c0,6.21-2.09,11.93-5.6,16.48,0,0-7.8,10.48-21.21,10.48V0Z" style="fill:#b46996;"/></g><g><rect y="165" width="130" height="1.25" style="fill:#a0285a;"/><g><path d="M25.36,114.06c-2.26-.8-4.59-1.13-7.06-1.13-3.59,0-6.19,.6-7.79,1.8-1.6,1.2-2.4,2.8-2.4,4.8s.6,3.46,1.86,4.53c1.2,.93,3.13,1.67,5.86,2l6.66,.93c4.53,.67,7.99,2.07,10.38,4.2,2.33,2.13,3.53,5,3.53,8.66,0,2-.4,3.8-1.2,5.53-.8,1.6-2,3.06-3.53,4.26-1.6,1.2-3.59,2.13-5.92,2.8-2.33,.73-5.06,1.07-8.19,1.07-3.46,0-6.59-.4-9.45-1.2-2.86-.73-5.52-2.07-8.12-4l3.19-5.4c2.46,1.67,4.86,2.86,7.32,3.6,2.4,.73,4.93,1.07,7.59,1.07,3.86,0,6.79-.67,8.65-2.07,2-1.4,2.93-3.2,2.93-5.46,0-1.87-.67-3.4-1.93-4.53-1.26-1.2-3.4-2-6.39-2.4l-6.99-1c-4.19-.6-7.46-1.87-9.59-3.86-2.26-2-3.33-4.8-3.33-8.46,0-2.07,.4-3.93,1.2-5.53,.87-1.6,2-2.93,3.46-4,1.47-1.07,3.2-1.86,5.33-2.46,2-.53,4.33-.8,6.79-.8,3.06,0,6.06,.4,9.05,1.27,2.93,.87,5.46,2.13,7.66,3.93l-3.46,4.93c-1.8-1.33-3.86-2.4-6.12-3.06" style="fill:#a0285a;"/><path d="M71.29,109c2.06,.8,3.86,1.8,5.33,3.2,1.53,1.33,2.66,2.93,3.53,4.86,.86,1.93,1.26,4,1.26,6.33,0,2.46-.47,4.66-1.33,6.53-.93,2-2.2,3.6-3.79,4.93-1.6,1.4-3.46,2.4-5.66,3.13-2.13,.73-4.39,1.07-6.86,1.07h-11.38v13.52h-6.86v-44.64h18.97c2.46,0,4.73,.4,6.79,1.07m-7.65,24.18c3.39,0,6.06-.87,8.05-2.6,1.93-1.67,2.93-4.06,2.93-7.13s-.93-5.4-2.73-7.13c-1.8-1.67-4.39-2.53-7.79-2.53h-11.72v19.39h11.25Z" style="fill:#a0285a;"/><path d="M130,147.37c-2.33,2-4.99,3.53-8.05,4.53-3.13,1.07-6.46,1.6-9.98,1.6s-6.72-.53-9.58-1.6c-2.86-1.07-5.33-2.6-7.46-4.6-2-2-3.59-4.4-4.79-7.26-1.06-2.87-1.66-6.06-1.66-9.66,0-3.26,.53-6.26,1.66-9.13,1.13-2.87,2.66-5.33,4.79-7.46,2-2.07,4.53-3.73,7.59-4.93,2.93-1.27,6.39-1.86,10.19-1.86,2.99,0,5.92,.47,8.72,1.4,2.79,.93,5.32,2.33,7.52,4.2l-3.59,4.86c-1.66-1.47-3.66-2.6-5.92-3.26-2.2-.8-4.59-1.13-7.06-1.13-2.6,0-4.92,.4-7.05,1.2-2.06,.8-3.86,1.93-5.33,3.46-1.53,1.53-2.66,3.33-3.46,5.4-.86,2.13-1.26,4.53-1.26,7.13,0,2.73,.4,5.13,1.26,7.26,.87,2.13,2,3.93,3.53,5.4,1.53,1.46,3.26,2.6,5.39,3.4,2,.73,4.33,1.13,6.79,1.13,4.59,0,8.32-1.07,11.32-3.13v-9.73l-9.79-.47v-5.46h16.24v18.72Z" style="fill:#a0285a;"/></g><path d="M123.2,182.34l1.15-3.25h.13l1.13,3.25h-2.41Zm2.27-5.16h-2.1l-3.5,8.54h2.08l.64-1.69h3.66l.65,1.69h2.12l-3.53-8.54Zm-7.74,0h-1.92v8.54h1.92v-8.54Zm-4.33,3.66h-3.33v1.59l1.5,.09v1.3c-.45,.22-.97,.33-1.58,.33-.4,0-.75-.06-1.08-.19-.33-.12-.62-.29-.85-.54-.26-.23-.43-.51-.57-.84-.14-.33-.2-.71-.2-1.13s.06-.78,.19-1.11c.14-.34,.32-.63,.56-.87,.24-.23,.52-.41,.87-.54,.33-.13,.7-.19,1.11-.19,.45,0,.87,.06,1.24,.19,.38,.14,.71,.34,1.01,.61l1.07-1.38c-.43-.39-.93-.69-1.46-.88-.56-.19-1.15-.29-1.78-.29-.73,0-1.39,.12-1.96,.36-.57,.24-1.07,.56-1.48,.97-.39,.41-.71,.88-.92,1.43-.23,.54-.33,1.11-.33,1.72,0,.69,.11,1.3,.33,1.85,.22,.55,.53,1.01,.93,1.39,.39,.38,.88,.67,1.44,.88,.56,.2,1.19,.31,1.86,.31s1.29-.09,1.86-.27c.58-.18,1.12-.46,1.59-.84v-3.95Zm-14.54-2.13c.41,0,.78,.06,1.11,.2,.32,.14,.6,.33,.82,.57,.23,.24,.41,.54,.52,.88,.12,.33,.18,.69,.18,1.08,0,.37-.06,.73-.17,1.06-.13,.33-.29,.62-.51,.87-.23,.26-.51,.46-.84,.6-.32,.14-.69,.22-1.11,.22s-.78-.08-1.1-.2c-.32-.15-.6-.34-.83-.59-.23-.24-.41-.54-.52-.87-.11-.34-.18-.7-.18-1.08s.06-.74,.18-1.07c.12-.33,.29-.63,.52-.87,.22-.24,.5-.45,.82-.59,.33-.14,.7-.22,1.11-.22m0-1.71c-.66,0-1.27,.12-1.82,.36-.55,.23-1.03,.55-1.43,.94-.41,.39-.73,.87-.94,1.41-.22,.55-.33,1.12-.33,1.73s.11,1.21,.33,1.76c.22,.55,.54,1.02,.94,1.41,.39,.39,.88,.71,1.43,.94,.55,.22,1.16,.33,1.82,.33s1.29-.11,1.85-.36c.55-.23,1.03-.55,1.43-.94,.39-.41,.71-.88,.93-1.43,.22-.53,.33-1.11,.33-1.72s-.11-1.22-.33-1.77c-.22-.54-.52-1.01-.93-1.4-.38-.39-.87-.71-1.43-.94-.56-.22-1.17-.33-1.85-.33m-10.65,.18h-1.91v8.54h6.52v-1.74h-4.61v-6.79Zm-8.69,1.53c.41,0,.78,.06,1.11,.2,.32,.14,.6,.33,.82,.57,.23,.24,.41,.54,.52,.88,.12,.33,.18,.69,.18,1.08,0,.37-.06,.73-.17,1.06-.13,.33-.29,.62-.51,.87-.23,.26-.51,.46-.84,.6-.32,.14-.69,.22-1.11,.22s-.78-.08-1.1-.2c-.32-.15-.6-.34-.83-.59-.23-.24-.41-.54-.52-.87-.12-.34-.18-.7-.18-1.08s.06-.74,.18-1.07c.11-.33,.29-.63,.52-.87,.22-.24,.5-.45,.82-.59,.33-.14,.7-.22,1.11-.22m0-1.71c-.66,0-1.28,.12-1.82,.36-.55,.23-1.03,.55-1.43,.94-.41,.39-.72,.87-.94,1.41-.22,.55-.33,1.12-.33,1.73s.12,1.21,.33,1.76c.22,.55,.53,1.02,.94,1.41,.39,.39,.88,.71,1.43,.94,.55,.22,1.16,.33,1.82,.33s1.29-.11,1.85-.36c.55-.23,1.03-.55,1.43-.94,.39-.41,.71-.88,.93-1.43,.22-.53,.33-1.11,.33-1.72s-.11-1.22-.33-1.77c-.22-.54-.52-1.01-.93-1.4-.38-.39-.87-.71-1.43-.94-.56-.22-1.17-.33-1.85-.33m-7.3,2.56l1.06-1.39c-.43-.38-.93-.68-1.48-.87-.55-.2-1.16-.31-1.82-.31-.73,0-1.39,.12-1.96,.36-.57,.23-1.07,.55-1.48,.96-.41,.41-.73,.88-.93,1.43-.23,.55-.33,1.12-.33,1.73,0,.68,.12,1.27,.33,1.82,.22,.55,.53,1.01,.92,1.4,.41,.38,.88,.68,1.43,.89,.55,.2,1.16,.31,1.82,.31,1.48,0,2.7-.46,3.67-1.37l-1.08-1.34c-.33,.32-.71,.55-1.12,.73-.43,.15-.88,.24-1.36,.24-.39,0-.77-.06-1.1-.19-.33-.14-.61-.32-.85-.56-.24-.23-.42-.51-.56-.84-.13-.33-.19-.7-.19-1.11s.06-.75,.19-1.08c.13-.33,.31-.61,.55-.87,.24-.24,.52-.42,.85-.56,.34-.13,.71-.19,1.13-.19,.47,0,.9,.06,1.29,.22,.39,.13,.74,.33,1.03,.6m-8.97-2.38h-6.38v8.54h6.6v-1.72h-4.71v-1.82h4.01v-1.67h-4.01v-1.61h4.5v-1.72Zm-9.01,0h-1.85v5.76l-4.14-5.76h-1.72v8.54h1.86v-5.45l3.94,5.45h1.91v-8.54Zm-10.35,0h-1.92v8.54h1.92v-8.54Zm-4.33,3.66h-3.32v1.59l1.5,.09v1.3c-.45,.22-.97,.33-1.58,.33-.39,0-.75-.06-1.08-.19-.33-.12-.62-.29-.85-.54-.26-.23-.43-.51-.57-.84-.14-.33-.2-.71-.2-1.13s.06-.78,.19-1.11c.14-.34,.32-.63,.56-.87,.24-.23,.52-.41,.87-.54,.33-.13,.7-.19,1.11-.19,.45,0,.87,.06,1.24,.19,.38,.14,.71,.34,1.01,.61l1.07-1.38c-.43-.39-.93-.69-1.46-.88-.56-.19-1.15-.29-1.78-.29-.73,0-1.39,.12-1.96,.36-.57,.24-1.07,.56-1.48,.97-.39,.41-.71,.88-.92,1.43-.23,.54-.33,1.11-.33,1.72,0,.69,.12,1.3,.33,1.85,.22,.55,.54,1.01,.93,1.39,.39,.38,.88,.67,1.44,.88,.56,.2,1.19,.31,1.86,.31s1.29-.09,1.86-.27c.59-.18,1.12-.46,1.59-.84v-3.95Zm-14.54-2.13c.41,0,.78,.06,1.11,.2,.32,.14,.6,.33,.82,.57,.23,.24,.41,.54,.52,.88,.11,.33,.18,.69,.18,1.08,0,.37-.06,.73-.17,1.06-.13,.33-.29,.62-.51,.87-.23,.26-.51,.46-.84,.6-.32,.14-.69,.22-1.11,.22s-.78-.08-1.1-.2c-.32-.15-.6-.34-.83-.59-.23-.24-.41-.54-.52-.87-.12-.34-.18-.7-.18-1.08s.06-.74,.18-1.07c.11-.33,.29-.63,.52-.87,.22-.24,.5-.45,.82-.59,.33-.14,.7-.22,1.11-.22m0-1.71c-.66,0-1.28,.12-1.82,.36-.55,.23-1.03,.55-1.43,.94-.41,.39-.73,.87-.94,1.41-.22,.55-.33,1.12-.33,1.73s.11,1.21,.33,1.76c.22,.55,.53,1.02,.94,1.41,.39,.39,.88,.71,1.43,.94,.55,.22,1.16,.33,1.82,.33s1.29-.11,1.85-.36c.55-.23,1.03-.55,1.43-.94,.39-.41,.71-.88,.93-1.43,.22-.53,.33-1.11,.33-1.72s-.12-1.22-.33-1.77c-.22-.54-.52-1.01-.93-1.4-.38-.39-.87-.71-1.43-.94-.56-.22-1.17-.33-1.85-.33m-11.75,4.47v-2.59h1.86c.46,0,.82,.12,1.07,.33,.27,.23,.4,.55,.4,.96s-.14,.73-.42,.96c-.27,.23-.64,.34-1.1,.34h-1.81Zm1.95-4.29h-3.86v8.54h1.91v-2.55h1.72l1.57,2.55h2.32l-2.08-3.06c.55-.23,.98-.57,1.29-1.02,.31-.45,.46-.97,.46-1.55,0-.45-.08-.84-.24-1.2-.17-.36-.39-.66-.67-.92-.31-.26-.65-.45-1.06-.59-.41-.14-.85-.2-1.35-.2m-12.3,0H1v4.78c0,.6,.09,1.15,.26,1.63,.17,.48,.42,.9,.74,1.23,.33,.36,.74,.61,1.22,.79,.47,.19,1.02,.28,1.64,.28s1.19-.1,1.67-.28c.47-.2,.88-.47,1.2-.82,.33-.34,.59-.76,.74-1.25,.18-.5,.26-1.03,.26-1.63v-4.74h-1.92v4.78c0,.73-.17,1.28-.48,1.64-.32,.38-.8,.57-1.45,.57s-1.12-.2-1.44-.6c-.33-.41-.5-.96-.5-1.64v-4.75Z" style="fill:#a0285a;"/></g></g></svg>