<?xml version="1.0" encoding="UTF-8"?>
<svg width="352px" height="183px" viewBox="0 0 352 183" version="1.1" xmlns="http://www.w3.org/2000/svg" xmlns:xlink="http://www.w3.org/1999/xlink">
    <title>Group 48</title>
    <defs>
        <polygon id="path-1" points="0 183 352 183 352 0 0 0"></polygon>
    </defs>
    <g id="WEBSITE" stroke="none" stroke-width="1" fill="none" fill-rule="evenodd">
        <g id="Client-›-SPG-Copy" transform="translate(-174.000000, -677.000000)">
            <g id="Group-48" transform="translate(174.000000, 677.000000)">
                <path d="M81.4263702,125.02909 L151.615001,42.4829422 C154.766914,38.7760382 152.192052,33 147.385172,33 L5.615369,33 C0.783093142,33 -1.78330388,38.8297819 1.42081247,42.5239572 L73.001985,125.07152 C75.2467006,127.659705 79.2070505,127.639905 81.4263702,125.02909" id="Fill-1" fill="#A0285A"></path>
                <path d="M76,125.910818 C76.6623094,126.038285 77.3391431,126.029972 78,125.880336 L78,95 L76,95 L76,125.910818 Z" id="Fill-3" fill="#F5CDCD"></path>
                <path d="M78,0 C78,0 44,41.1190673 44,60.2885697 C44,68.2844124 46.6539255,75.6393508 51.1000578,81.507279 C51.1000578,81.507279 61.0014035,95 78,95 L78,0 Z" id="Fill-5" fill="#F5CDCD"></path>
                <path d="M78,0 C78,0 112,41.1190673 112,60.2885697 C112,68.2844124 109.346074,75.6393508 104.898539,81.507279 C104.898539,81.507279 94.9985965,95 78,95 L78,0 Z" id="Fill-7" fill="#B46996"></path>
                <path d="M178.144594,115.188757 C177.149264,114.827497 176.125738,114.676736 175.042999,114.676736 C173.464006,114.676736 172.323465,114.948391 171.621376,115.488859 C170.919288,116.032171 170.568244,116.753268 170.568244,117.656417 C170.568244,118.558144 170.831879,119.220928 171.387347,119.701659 C171.913208,120.122655 172.761917,120.454047 173.961671,120.604809 L176.887039,121.025804 C178.876289,121.327328 180.39607,121.958822 181.449203,122.921707 C182.474139,123.884592 183,125.177447 183,126.831561 C183,127.73471 182.823773,128.546834 182.474139,129.329089 C182.123095,130.051609 181.595823,130.71297 180.921931,131.253437 C180.221253,131.796749 179.342938,132.217745 178.319411,132.517846 C177.295885,132.849238 176.097542,133 174.721561,133 C173.20037,133 171.8258,132.81937 170.568244,132.45811 C169.310688,132.128141 168.140541,131.525093 167,130.653234 L168.404177,128.215442 C169.485505,128.967829 170.538638,129.509719 171.621376,129.839688 C172.674509,130.172503 173.785444,130.323264 174.955591,130.323264 C176.651599,130.323264 177.940171,130.020318 178.757864,129.390247 C179.636179,128.757332 180.045026,127.945208 180.045026,126.922587 C180.045026,126.080596 179.753194,125.387944 179.197727,124.875923 C178.642259,124.334033 177.706142,123.974196 176.389374,123.793566 L173.317385,123.342702 C171.474755,123.071046 170.040973,122.500711 169.104855,121.597562 C168.110935,120.695835 167.644286,119.430003 167.644286,117.775889 C167.644286,116.844294 167.817693,116.00088 168.168737,115.279783 C168.549388,114.557264 169.045643,113.955638 169.689929,113.474907 C170.334214,112.992753 171.094105,112.631493 172.030223,112.36126 C172.908538,112.119472 173.932064,112 175.014803,112 C176.359767,112 177.675126,112.18063 178.991894,112.57318 C180.279055,112.962885 181.3914,113.534643 182.355714,114.346766 L180.834523,116.57406 C180.045026,115.971013 179.139924,115.488859 178.144594,115.188757" id="Fill-9" fill="#A0285A"></path>
                <path d="M202.794605,112.782255 C204.077092,113.324145 205.181295,114.076532 206.105778,115.00955 C207.031699,115.942567 207.717513,117.054792 208.2538,118.349069 C208.731138,119.641923 209,121.025804 209,122.500711 C209,123.944328 208.731138,125.298341 208.2538,126.561327 C207.717513,127.855604 207.000068,128.967829 206.105778,129.930715 C205.15254,130.863732 204.077092,131.616119 202.76585,132.156587 C201.512118,132.729766 200.080104,133 198.5,133 C196.91702,133 195.486444,132.729766 194.23415,132.186454 C192.920033,131.645987 191.846022,130.8936 190.892784,129.930715 C189.997056,128.997697 189.281049,127.885472 188.744762,126.621063 C188.267424,125.328209 188,123.974196 188,122.500711 C188,121.025804 188.267424,119.671791 188.773518,118.378937 C189.281049,117.114528 189.997056,116.00088 190.951732,115.069285 C191.846022,114.13769 192.980419,113.385303 194.23415,112.843413 C195.545392,112.270234 196.948651,112 198.5,112 C200.080104,112 201.512118,112.270234 202.794605,112.782255 M195.367109,115.279783 C194.412433,115.670911 193.63604,116.241246 193.009174,116.933898 C192.383746,117.625127 191.876215,118.46854 191.548405,119.401558 C191.219157,120.363021 191.040874,121.387064 191.040874,122.500711 C191.040874,123.612936 191.219157,124.636979 191.548405,125.598442 C191.907846,126.53146 192.413939,127.373451 193.040805,128.06468 C193.666233,128.757332 194.472819,129.329089 195.367109,129.720217 C196.321786,130.111344 197.33541,130.323264 198.5,130.323264 C199.661714,130.323264 200.735725,130.111344 201.630015,129.750085 C202.586129,129.329089 203.362522,128.788622 204.018143,128.09597 C204.645009,127.403319 205.15254,126.561327 205.478913,125.598442 C205.808161,124.666847 205.986444,123.612936 205.986444,122.500711 C205.986444,121.357196 205.808161,120.303285 205.44872,119.3404 C205.120909,118.407382 204.614816,117.596681 203.98795,116.874162 C203.362522,116.212801 202.555936,115.670911 201.630015,115.249915 C200.70697,114.888656 199.661714,114.676736 198.5,114.676736 C197.33541,114.676736 196.262837,114.888656 195.367109,115.279783" id="Fill-11" fill="#A0285A"></path>
                <path d="M223.240147,114.737894 C222.127864,114.737894 221.129698,114.918524 220.216774,115.279783 C219.332722,115.639621 218.562786,116.151642 217.934464,116.844294 C217.278643,117.535523 216.793309,118.347646 216.450962,119.282086 C216.079743,120.243549 215.909258,121.325906 215.909258,122.500711 C215.909258,123.70254 216.079743,124.786319 216.450962,125.749204 C216.820807,126.712089 217.306141,127.52279 217.963336,128.185574 C218.617782,128.848358 219.36022,129.358957 220.274519,129.720217 C221.129698,130.080054 222.100367,130.260684 223.154904,130.260684 C224.381302,130.260684 225.494959,130.051609 226.549496,129.630613 C227.576535,129.178327 228.518332,128.576702 229.373511,127.764578 L231,129.870979 C228.945921,131.946089 226.292392,133 223.011916,133 C221.529789,133 220.159028,132.759634 218.962878,132.277481 C217.706233,131.795327 216.679193,131.104098 215.766269,130.20237 C214.911091,129.299221 214.227773,128.215442 213.712191,126.921165 C213.255729,125.62831 213,124.184694 213,122.560447 C213,121.086962 213.255729,119.701659 213.712191,118.408805 C214.227773,117.114528 214.911091,116.002303 215.82264,115.067863 C216.708066,114.1064 217.820348,113.354013 219.103116,112.813546 C220.388634,112.270234 221.870761,112 223.49725,112 C224.866636,112 226.150779,112.240366 227.404675,112.722519 C228.603575,113.173383 229.686984,113.836167 230.599908,114.676736 L229.088909,116.844294 C227.491292,115.430545 225.549954,114.737894 223.240147,114.737894" id="Fill-13" fill="#A0285A"></path>
                <mask id="mask-2" fill="white">
                    <use xlink:href="#path-1"></use>
                </mask>
                <g id="Clip-16"></g>
                <polygon id="Fill-15" fill="#A0285A" mask="url(#mask-2)" points="237 132 240 132 240 112 237 112"></polygon>
                <polygon id="Fill-17" fill="#A0285A" mask="url(#mask-2)" points="260.460619 114.655941 248.999132 114.655941 248.999132 120.298052 259.07963 120.298052 259.07963 122.924358 248.999132 122.924358 248.999132 129.313012 261 129.313012 261 132 246 132 246 112 260.460619 112"></polygon>
                <path d="M277.055121,112.715495 C278.289774,113.223539 279.352793,113.909399 280.242794,114.805532 C281.13418,115.672029 281.794415,116.745978 282.283016,117.969517 C282.770233,119.163421 283,120.536551 283,122 C283,123.462038 282.741166,124.775896 282.283016,126.030483 C281.765348,127.224386 281.076046,128.298335 280.186045,129.194468 C279.294659,130.059554 278.203957,130.746825 276.940238,131.253458 C275.676518,131.761502 274.270233,132 272.718613,132 L266,132 L266,112 L272.804429,112 C274.385116,112 275.792786,112.237087 277.055121,112.715495 L277.055121,112.715495 Z M272.718613,129.344059 C273.781632,129.344059 274.75745,129.163421 275.676518,128.836015 C276.56652,128.507197 277.341638,127.999153 278.004641,127.372566 C278.663491,126.745978 279.181159,125.9698 279.524426,125.073666 C279.927211,124.149308 280.098844,123.134632 280.098844,122 C280.098844,119.612193 279.438609,117.790291 278.145823,116.537115 C276.825354,115.282529 275.016284,114.655941 272.69093,114.655941 L268.899772,114.655941 L268.899772,129.344059 L272.718613,129.344059 Z" id="Fill-18" fill="#A0285A" mask="url(#mask-2)"></path>
                <path d="M307,132 L303.700738,132 L301.933277,127.469598 L291.948893,127.469598 L290.211244,132 L287,132 L295.218342,112 L298.723453,112 L307,132 Z M300.932425,124.845769 L297.133447,115.070528 L296.778535,115.070528 L292.949744,124.845769 L300.932425,124.845769 Z" id="Fill-19" fill="#A0285A" mask="url(#mask-2)"></path>
                <path d="M323.055121,112.715495 C324.289774,113.223539 325.352793,113.909399 326.242794,114.805532 C327.13418,115.672029 327.794415,116.745978 328.283016,117.969517 C328.770233,119.163421 329,120.536551 329,122 C329,123.462038 328.741166,124.775896 328.283016,126.030483 C327.765348,127.224386 327.076046,128.298335 326.186045,129.194468 C325.294659,130.059554 324.203957,130.746825 322.940238,131.253458 C321.676518,131.761502 320.270233,132 318.718613,132 L312,132 L312,112 L318.804429,112 C320.385116,112 321.792786,112.237087 323.055121,112.715495 L323.055121,112.715495 Z M318.718613,129.344059 C319.781632,129.344059 320.75745,129.163421 321.676518,128.836015 C322.56652,128.507197 323.341638,127.999153 324.004641,127.372566 C324.663491,126.745978 325.181159,125.9698 325.524426,125.073666 C325.927211,124.149308 326.098844,123.134632 326.098844,122 C326.098844,119.612193 325.438609,117.790291 324.145823,116.537115 C322.825354,115.282529 321.016284,114.655941 318.69093,114.655941 L314.899772,114.655941 L314.899772,129.344059 L318.718613,129.344059 Z" id="Fill-20" fill="#A0285A" mask="url(#mask-2)"></path>
                <polygon id="Fill-21" fill="#A0285A" mask="url(#mask-2)" points="349.460619 114.655941 337.999132 114.655941 337.999132 120.298052 348.07963 120.298052 348.07963 122.924358 337.999132 122.924358 337.999132 129.313012 350 129.313012 350 132 335 132 335 112 349.460619 112"></polygon>
                <path d="M181,180.627292 C180.158981,181.401377 179.197425,181.995275 178.092046,182.381597 C176.962013,182.793866 175.759383,183 174.485526,183 C173.21167,183 172.058351,182.793866 171.024199,182.381597 C169.990047,181.967887 169.101087,181.37543 168.332664,180.602787 C167.610812,179.82726 167.034152,178.900376 166.601315,177.791864 C166.217788,176.681909 166,175.443661 166,174.051173 C166,172.786978 166.193133,171.626572 166.601315,170.518059 C167.009497,169.409546 167.562871,168.455273 168.332664,167.629294 C169.053146,166.829262 169.966761,166.184912 171.07214,165.72075 C172.129577,165.232081 173.378778,165 174.749886,165 C175.831979,165 176.889416,165.180187 177.898913,165.540562 C178.90841,165.902378 179.822025,166.444382 180.615104,167.165132 L179.317962,169.04773 C178.716647,168.479779 177.994795,168.043005 177.178431,167.783535 C176.385353,167.475054 175.519679,167.345319 174.630719,167.345319 C173.692448,167.345319 172.851429,167.501001 172.081636,167.809482 C171.336499,168.119404 170.687243,168.559061 170.158524,169.151518 C169.60515,169.743974 169.196968,170.440218 168.909323,171.24025 C168.597023,172.064787 168.451831,172.994554 168.451831,173.999279 C168.451831,175.05734 168.597023,175.985665 168.909323,176.810203 C169.221624,177.636182 169.629805,178.332426 170.18318,178.900376 C170.735184,179.466886 171.361154,179.905101 172.129577,180.215024 C172.851429,180.498999 173.692448,180.653239 174.582778,180.653239 C176.240161,180.653239 177.586613,180.240971 178.667336,179.440939 L178.667336,175.675743 L175.134782,175.495555 L175.134782,173.380876 L181,173.380876 L181,180.627292 Z" id="Fill-22" fill="#A0285A" mask="url(#mask-2)"></path>
                <polygon id="Fill-23" fill="#A0285A" mask="url(#mask-2)" points="186 183 189 183 189 166 186 166"></polygon>
                <polygon id="Fill-24" fill="#A0285A" mask="url(#mask-2)" points="205.681867 166 205.681867 179.219386 196.173845 166 194 166 194 183 196.341274 183 196.341274 170.111028 205.611084 183 208 183 208 166"></polygon>
                <polygon id="Fill-25" fill="#A0285A" mask="url(#mask-2)" points="214 166 214 183 226 183 226 180.715465 216.400274 180.715465 216.400274 175.287037 224.464098 175.287037 224.464098 173.053554 216.400274 173.053554 216.400274 168.259009 225.569182 168.259009 225.569182 166"></polygon>
                <path d="M239.103224,167.346573 C238.113429,167.346573 237.226226,167.502242 236.414161,167.809257 C235.628104,168.119154 234.943195,168.558776 234.385442,169.151185 C233.803125,169.745035 233.371083,170.441224 233.067642,171.241192 C232.738192,172.064222 232.585027,172.993914 232.585027,174 C232.585027,175.030589 232.738192,175.960282 233.067642,176.784753 C233.398537,177.610666 233.827689,178.306855 234.411451,178.873318 C234.995214,179.441224 235.654114,179.879404 236.464734,180.189302 C237.226226,180.497758 238.088865,180.653427 239.026641,180.653427 C240.117583,180.653427 241.107378,180.471813 242.04371,180.112908 C242.956922,179.723735 243.793552,179.209161 244.555044,178.511531 L246,180.317585 C244.173575,182.096252 241.815407,183 238.899485,183 C237.581685,183 236.363587,182.792441 235.300099,182.380205 C234.184593,181.967969 233.271381,181.375561 232.459315,180.601537 C231.697824,179.827514 231.090942,178.899263 230.634336,177.790839 C230.228303,176.680974 230,175.444266 230,174.05189 C230,172.787796 230.228303,171.601537 230.634336,170.493113 C231.090942,169.384689 231.697824,168.429052 232.509889,167.630525 C233.295945,166.806054 234.28574,166.158873 235.425811,165.696188 C236.567326,165.232063 237.885126,165 239.331527,165 C240.54818,165 241.689696,165.206118 242.805202,165.618354 C243.87158,166.006086 244.83392,166.57255 245.645986,167.294683 L244.300732,169.151185 C242.881785,167.938981 241.156507,167.346573 239.103224,167.346573" id="Fill-26" fill="#A0285A" mask="url(#mask-2)"></path>
                <path d="M260.976366,165.670243 C262.013841,166.134369 262.908215,166.778668 263.656738,167.578635 C264.405261,168.378603 264.961149,169.332799 265.395953,170.441224 C265.781222,171.549648 266,172.735906 266,174 C266,175.238149 265.781222,176.398463 265.395953,177.480942 C264.961149,178.589366 264.380494,179.545003 263.656738,180.369475 C262.884824,181.168001 262.013841,181.8123 260.951599,182.277867 C259.937515,182.767937 258.778956,183 257.499312,183 C256.219668,183 255.059733,182.767937 254.04565,182.303812 C252.983408,181.839686 252.1138,181.195388 251.341886,180.369475 C250.616754,179.569507 250.037475,178.615311 249.602671,177.532832 C249.216026,176.422966 249,175.262652 249,174 C249,172.735906 249.216026,171.575593 249.627438,170.467168 C250.037475,169.384689 250.616754,168.429052 251.39142,167.630525 C252.1138,166.830557 253.032942,166.186259 254.04565,165.722133 C255.109268,165.232063 256.243059,165 257.499312,165 C258.778956,165 259.937515,165.232063 260.976366,165.670243 M254.963416,167.810698 C254.191501,168.146541 253.562687,168.636611 253.056333,169.22902 C252.548604,169.821429 252.138567,170.545003 251.873007,171.34353 C251.607446,172.168001 251.46297,173.047245 251.46297,174 C251.46297,174.954196 251.607446,175.830557 251.873007,176.65647 C252.161959,177.454997 252.573371,178.17713 253.081101,178.769539 C253.587454,179.363389 254.23966,179.853459 254.963416,180.189302 C255.736706,180.523703 256.556779,180.705317 257.499312,180.705317 C258.440469,180.705317 259.310077,180.523703 260.033832,180.215247 C260.808499,179.853459 261.435937,179.389334 261.965682,178.796925 C262.473412,178.203075 262.884824,177.480942 263.149008,176.65647 C263.414569,175.857944 263.560421,174.954196 263.560421,174 C263.560421,173.019859 263.414569,172.116111 263.125617,171.293081 C262.860057,170.493113 262.448644,169.796925 261.942291,169.17713 C261.435937,168.609225 260.782355,168.146541 260.033832,167.784753 C259.286686,167.474856 258.440469,167.294683 257.499312,167.294683 C256.556779,167.294683 255.688547,167.474856 254.963416,167.810698" id="Fill-27" fill="#A0285A" mask="url(#mask-2)"></path>
                <polygon id="Fill-28" fill="#A0285A" mask="url(#mask-2)" points="271 166 271 183 283 183 283 180.715465 273.509575 180.715465 273.509575 166"></polygon>
                <path d="M297.976366,165.670243 C299.013841,166.134369 299.908215,166.778668 300.656738,167.578635 C301.405261,168.378603 301.961149,169.332799 302.395953,170.441224 C302.781222,171.549648 303,172.735906 303,174 C303,175.238149 302.781222,176.398463 302.395953,177.480942 C301.961149,178.589366 301.380494,179.545003 300.656738,180.369475 C299.884824,181.168001 299.013841,181.8123 297.951599,182.277867 C296.937515,182.767937 295.778956,183 294.499312,183 C293.219668,183 292.059733,182.767937 291.04565,182.303812 C289.983408,181.839686 289.1138,181.195388 288.341886,180.369475 C287.616754,179.569507 287.037475,178.615311 286.602671,177.532832 C286.216026,176.422966 286,175.262652 286,174 C286,172.735906 286.216026,171.575593 286.627438,170.467168 C287.037475,169.384689 287.616754,168.429052 288.39142,167.630525 C289.1138,166.830557 290.032942,166.186259 291.04565,165.722133 C292.109268,165.232063 293.243059,165 294.499312,165 C295.778956,165 296.937515,165.232063 297.976366,165.670243 M291.963416,167.810698 C291.191501,168.146541 290.562687,168.636611 290.056333,169.22902 C289.548604,169.821429 289.138567,170.545003 288.873007,171.34353 C288.607446,172.168001 288.46297,173.047245 288.46297,174 C288.46297,174.954196 288.607446,175.830557 288.873007,176.65647 C289.161959,177.454997 289.573371,178.17713 290.081101,178.769539 C290.587454,179.363389 291.23966,179.853459 291.963416,180.189302 C292.736706,180.523703 293.556779,180.705317 294.499312,180.705317 C295.440469,180.705317 296.310077,180.523703 297.033832,180.215247 C297.808499,179.853459 298.435937,179.389334 298.965682,178.796925 C299.473412,178.203075 299.884824,177.480942 300.149008,176.65647 C300.414569,175.857944 300.560421,174.954196 300.560421,174 C300.560421,173.019859 300.414569,172.116111 300.125617,171.293081 C299.860057,170.493113 299.448644,169.796925 298.942291,169.17713 C298.435937,168.609225 297.782355,168.146541 297.033832,167.784753 C296.286686,167.474856 295.440469,167.294683 294.499312,167.294683 C293.556779,167.294683 292.688547,167.474856 291.963416,167.810698" id="Fill-29" fill="#A0285A" mask="url(#mask-2)"></path>
                <path d="M323,180.627292 C322.158981,181.401377 321.197425,181.995275 320.092046,182.381597 C318.962013,182.793866 317.759383,183 316.485526,183 C315.21167,183 314.058351,182.793866 313.024199,182.381597 C311.990047,181.967887 311.101087,181.37543 310.332664,180.602787 C309.610812,179.82726 309.034152,178.900376 308.601315,177.791864 C308.217788,176.681909 308,175.443661 308,174.051173 C308,172.786978 308.193133,171.626572 308.601315,170.518059 C309.009497,169.409546 309.562871,168.455273 310.332664,167.629294 C311.053146,166.829262 311.966761,166.184912 313.07214,165.72075 C314.129577,165.232081 315.378778,165 316.749886,165 C317.831979,165 318.889416,165.180187 319.898913,165.540562 C320.90841,165.902378 321.822025,166.444382 322.615104,167.165132 L321.317962,169.04773 C320.716647,168.479779 319.994795,168.043005 319.178431,167.783535 C318.385353,167.475054 317.519679,167.345319 316.630719,167.345319 C315.692448,167.345319 314.851429,167.501001 314.081636,167.809482 C313.336499,168.119404 312.687243,168.559061 312.158524,169.151518 C311.60515,169.743974 311.196968,170.440218 310.909323,171.24025 C310.597023,172.064787 310.451831,172.994554 310.451831,173.999279 C310.451831,175.05734 310.597023,175.985665 310.909323,176.810203 C311.221624,177.636182 311.629805,178.332426 312.18318,178.900376 C312.735184,179.466886 313.361154,179.905101 314.129577,180.215024 C314.851429,180.498999 315.692448,180.653239 316.582778,180.653239 C318.240161,180.653239 319.586613,180.240971 320.667336,179.440939 L320.667336,175.675743 L317.134782,175.495555 L317.134782,173.380876 L323,173.380876 L323,180.627292 Z" id="Fill-30" fill="#A0285A" mask="url(#mask-2)"></path>
                <polygon id="Fill-31" fill="#A0285A" mask="url(#mask-2)" points="328 183 331 183 331 166 328 166"></polygon>
                <path d="M341.985735,166 L335,183 L337.728959,183 L339.208274,179.148272 L347.693295,179.148272 L349.195435,183 L352,183 L344.964337,166 L341.985735,166 Z M343.312411,168.609829 L343.613409,168.609829 L346.841655,176.920783 L340.058488,176.920783 L343.312411,168.609829 Z" id="Fill-32" fill="#A0285A" mask="url(#mask-2)"></path>
                <path d="M174.898551,142.333333 C175.530435,142.583697 176.081159,142.898108 176.530435,143.3377 C177,143.755459 177.347826,144.256186 177.611594,144.861718 C177.878261,145.468705 178,146.116448 178,146.847162 C178,147.620087 177.857971,148.310044 177.592754,148.893741 C177.305797,149.521106 176.917391,150.02329 176.428986,150.442504 C175.93913,150.879185 175.368116,151.193595 174.692754,151.423581 C174.04058,151.652111 173.346377,151.75837 172.591304,151.75837 L169.101449,151.75837 L169.101449,156 L167,156 L167,142 L172.817391,142 C173.572464,142 174.265217,142.123726 174.898551,142.333333 L174.898551,142.333333 Z M172.552174,149.918486 C173.592754,149.918486 174.408696,149.647744 175.02029,149.104803 C175.613043,148.580786 175.918841,147.829694 175.918841,146.86754 C175.918841,145.92722 175.633333,145.176128 175.081159,144.631732 C174.530435,144.10917 173.734783,143.838428 172.694203,143.838428 L169.101449,143.838428 L169.101449,149.918486 L172.552174,149.918486 Z" id="Fill-33" fill="#9F285A" mask="url(#mask-2)"></path>
                <path d="M190.863412,142.522503 C191.717845,142.882946 192.455059,143.384493 193.070816,144.006187 C193.686573,144.627881 194.144154,145.369724 194.502875,146.231713 C194.82064,147.0951 195,148.017164 195,148.999301 C195,149.963277 194.82064,150.865782 194.502875,151.708213 C194.144154,152.5716 193.668213,153.312045 193.070816,153.954695 C192.435287,154.57639 191.717845,155.077936 190.842227,155.438379 C190.008978,155.818381 189.05286,156 188.000706,156 C186.945728,156 185.991022,155.818381 185.15636,155.457938 C184.280742,155.097495 183.566125,154.595949 182.929184,153.954695 C182.331787,153.333001 181.854434,152.589762 181.497125,151.748728 C181.177948,150.886738 181,149.984233 181,148.999301 C181,148.017164 181.177948,147.114659 181.518309,146.252669 C181.854434,145.410238 182.331787,144.668396 182.967316,144.046702 C183.566125,143.425007 184.320286,142.923461 185.15636,142.561621 C186.030566,142.181619 186.966912,142 188.000706,142 C189.05286,142 190.008978,142.181619 190.863412,142.522503 M185.911934,144.186409 C185.274992,144.44766 184.758095,144.829059 184.340059,145.290091 C183.923434,145.751123 183.584485,146.312743 183.366993,146.934438 C183.146676,147.575691 183.028044,148.258856 183.028044,148.999301 C183.028044,149.742541 183.146676,150.424309 183.366993,151.065562 C183.604257,151.687257 183.943206,152.248877 184.359831,152.709909 C184.777867,153.170941 185.314536,153.55234 185.911934,153.813591 C186.548875,154.074843 187.225361,154.215947 188.000706,154.215947 C188.776052,154.215947 189.490669,154.074843 190.088066,153.834547 C190.723595,153.55234 191.241905,153.191897 191.679714,152.729468 C192.09775,152.269833 192.435287,151.708213 192.652779,151.065562 C192.871684,150.445265 192.991728,149.742541 192.991728,148.999301 C192.991728,148.2379 192.871684,147.536573 192.633007,146.89532 C192.415515,146.272228 192.076566,145.731564 191.658529,145.250973 C191.241905,144.8095 190.705236,144.44766 190.088066,144.16685 C189.470897,143.926554 188.776052,143.785451 188.000706,143.785451 C187.225361,143.785451 186.507919,143.926554 185.911934,144.186409" id="Fill-34" fill="#A0285A" mask="url(#mask-2)"></path>
                <path d="M206.660664,142.333333 C207.268831,142.563319 207.780751,142.877729 208.213163,143.295488 C208.64418,143.691412 208.97895,144.193595 209.214684,144.75837 C209.449024,145.321689 209.567588,145.949054 209.567588,146.637555 C209.567588,147.660844 209.292797,148.518195 208.743216,149.250364 C208.193634,149.981077 207.466903,150.503639 206.563023,150.818049 L210,156 L207.564545,156 L204.61717,151.318777 L201.023967,151.318777 L201.023967,156 L199,156 L199,142 L204.677149,142 C205.40388,142 206.052498,142.103348 206.660664,142.333333 L206.660664,142.333333 Z M204.460943,149.480349 C205.40388,149.480349 206.148745,149.229985 206.720644,148.727802 C207.268831,148.225619 207.545016,147.535662 207.545016,146.637555 C207.545016,145.697234 207.268831,145.007278 206.720644,144.548763 C206.169668,144.066958 205.442937,143.838428 204.540451,143.838428 L201.023967,143.838428 L201.023967,149.480349 L204.460943,149.480349 Z" id="Fill-35" fill="#A0285A" mask="url(#mask-2)"></path>
                <polygon id="Fill-36" fill="#A0285A" mask="url(#mask-2)" points="224 143.88064 219.021796 143.88064 219.021796 156 216.976766 156 216.976766 143.88064 212 143.88064 212 142 224 142"></polygon>
                <path d="M229.102899,149.449842 C229.102899,150.964049 229.428986,152.13036 230.082609,152.948773 C230.755072,153.768612 231.714493,154.177819 233.001449,154.177819 C234.246377,154.177819 235.226087,153.788573 235.878261,153.03147 C236.572464,152.274366 236.898551,151.086669 236.898551,149.491191 L236.898551,142 L239,142 L239,149.511152 C239,150.493533 238.876812,151.373256 238.613043,152.193095 C238.366667,152.97016 238,153.665954 237.489855,154.239128 C236.981159,154.792341 236.368116,155.242896 235.613043,155.548019 C234.857971,155.836032 234,156 233.001449,156 C232.021739,156 231.163768,155.855993 230.408696,155.548019 C229.675362,155.242896 229.062319,154.812303 228.530435,154.280477 C228.042029,153.705876 227.653623,153.051431 227.388406,152.254405 C227.123188,151.455953 227,150.574804 227,149.572462 L227,142 L229.102899,142 L229.102899,149.449842 Z" id="Fill-37" fill="#A0285A" mask="url(#mask-2)"></path>
                <path d="M255,154.154291 C254.326656,154.756487 253.557705,155.217565 252.672661,155.519361 C251.768495,155.839321 250.806966,156 249.789438,156 C248.769178,156 247.844525,155.839321 247.018211,155.519361 C246.191896,155.198004 245.481675,154.736926 244.865695,154.133333 C244.287958,153.532535 243.826315,152.811577 243.480765,151.948104 C243.172092,151.086028 243,150.123353 243,149.040519 C243,148.056886 243.152971,147.154291 243.480765,146.290818 C243.807193,145.428743 244.249715,144.686826 244.865695,144.045509 C245.440701,143.423752 246.172775,142.922156 247.056453,142.560279 C247.903255,142.18024 248.904393,142 249.999772,142 C250.865695,142 251.712497,142.141118 252.518325,142.420559 C253.326884,142.701397 254.058957,143.123353 254.692693,143.68503 L253.653312,145.147904 C253.172547,144.707784 252.596176,144.366866 251.941953,144.165669 C251.308218,143.925349 250.615752,143.82475 249.904166,143.82475 C249.152971,143.82475 248.480992,143.946307 247.865013,144.18523 C247.26952,144.426946 246.749146,144.767864 246.327111,145.228942 C245.883223,145.69002 245.556795,146.230739 245.325973,146.853892 C245.07603,147.49521 244.961302,148.217565 244.961302,149 C244.961302,149.821557 245.07603,150.542515 245.325973,151.18523 C245.575916,151.826547 245.90371,152.368663 246.346233,152.811577 C246.788755,153.251697 247.288641,153.592615 247.903255,153.834331 C248.480992,154.053693 249.152971,154.17525 249.865923,154.17525 C251.192124,154.17525 252.269747,153.853892 253.134305,153.230739 L253.134305,150.303593 L250.307079,150.162475 L250.307079,148.517964 L255,148.517964 L255,154.154291 Z" id="Fill-38" fill="#A0285A" mask="url(#mask-2)"></path>
                <path d="M261.102899,149.449842 C261.102899,150.964049 261.428986,152.13036 262.082609,152.948773 C262.755072,153.768612 263.714493,154.177819 265.001449,154.177819 C266.246377,154.177819 267.226087,153.788573 267.878261,153.03147 C268.572464,152.274366 268.898551,151.086669 268.898551,149.491191 L268.898551,142 L271,142 L271,149.511152 C271,150.493533 270.876812,151.373256 270.613043,152.193095 C270.366667,152.97016 270,153.665954 269.489855,154.239128 C268.981159,154.792341 268.368116,155.242896 267.613043,155.548019 C266.857971,155.836032 266,156 265.001449,156 C264.021739,156 263.163768,155.855993 262.408696,155.548019 C261.675362,155.242896 261.062319,154.812303 260.530435,154.280477 C260.042029,153.705876 259.653623,153.051431 259.388406,152.254405 C259.123188,151.455953 259,150.574804 259,149.572462 L259,142 L261.102899,142 L261.102899,149.449842 Z" id="Fill-39" fill="#A0285A" mask="url(#mask-2)"></path>
                <polygon id="Fill-40" fill="#A0285A" mask="url(#mask-2)" points="284.640625 143.860262 277 143.860262 277 147.809316 283.72017 147.809316 283.72017 149.649199 277 149.649199 277 154.11936 285 154.11936 285 156 275 156 275 142 284.640625 142"></polygon>
                <path d="M295.661301,144.12515 C294.97871,143.88483 294.27327,143.785629 293.530702,143.785629 C292.443983,143.785629 291.660003,143.965868 291.177334,144.326347 C290.694664,144.688224 290.45333,145.168862 290.45333,145.771058 C290.45333,146.373253 290.63326,146.813373 291.015968,147.134731 C291.378684,147.415569 291.961314,147.636327 292.786706,147.736926 L294.797352,148.016367 C296.163962,148.217565 297.209269,148.638124 297.934701,149.279441 C298.637284,149.922156 299,150.784232 299,151.888024 C299,152.49022 298.878619,153.030938 298.637284,153.552096 C298.39595,154.034132 298.034662,154.475649 297.571985,154.836128 C297.089316,155.196607 296.486693,155.478842 295.781254,155.678643 C295.078671,155.900798 294.253278,156 293.30936,156 C292.264053,156 291.317279,155.87984 290.45333,155.638124 C289.589381,155.417365 288.785408,155.016367 288,154.43513 L288.965338,152.811577 C289.710762,153.313174 290.433338,153.673653 291.177334,153.893014 C291.902765,154.113772 292.666753,154.214371 293.469298,154.214371 C294.635986,154.214371 295.519927,154.013174 296.083993,153.594012 C296.686616,153.172056 296.967935,152.62994 296.967935,151.948104 C296.967935,151.386427 296.768012,150.923952 296.385304,150.584431 C296.004024,150.223952 295.361418,149.982236 294.454628,149.862076 L292.344022,149.560279 C291.077372,149.38004 290.092042,149 289.448007,148.397804 C288.763988,147.795609 288.442685,146.953094 288.442685,145.850699 C288.442685,145.228942 288.562638,144.667265 288.8054,144.186627 C289.066727,143.704591 289.408023,143.303593 289.850708,142.982236 C290.293392,142.660878 290.814618,142.421956 291.458652,142.240319 C292.061275,142.079641 292.766714,142 293.509282,142 C294.434636,142 295.339997,142.12016 296.245359,142.38004 C297.1293,142.641317 297.893288,143.022754 298.557315,143.563473 L297.51058,145.048703 C296.967935,144.647705 296.34532,144.326347 295.661301,144.12515" id="Fill-41" fill="#A0285A" mask="url(#mask-2)"></path>
                <path d="M315,156 L312.855768,156 L311.70683,152.828818 L305.217028,152.828818 L304.087125,156 L302,156 L307.342224,142 L309.619705,142 L315,156 Z M311.056898,150.993252 L308.58634,144.149486 L308.356553,144.149486 L305.868319,150.993252 L311.056898,150.993252 Z" id="Fill-42" fill="#A0285A" mask="url(#mask-2)"></path>
                <path d="M332.803743,142.500728 C333.674664,142.85444 334.424664,143.336245 335.053743,143.96361 C335.681382,144.569141 336.147793,145.321689 336.493282,146.177584 C336.837332,147.014556 337,147.975255 337,149 C337,150.02329 336.817179,150.943231 336.493282,151.819505 C336.127639,152.656477 335.641075,153.407569 335.013436,154.034934 C334.385797,154.640466 333.614203,155.122271 332.721689,155.477438 C331.830614,155.83115 330.837332,156 329.741843,156 L325,156 L325,142 L329.803743,142 C330.917946,142 331.911228,142.165939 332.803743,142.500728 L332.803743,142.500728 Z M329.741843,154.139738 C330.493282,154.139738 331.181382,154.014556 331.830614,153.786026 C332.459693,153.554585 333.006718,153.199418 333.471689,152.759825 C333.9381,152.321689 334.302303,151.778748 334.547025,151.151383 C334.830614,150.503639 334.951536,149.793304 334.951536,149 C334.951536,147.327511 334.485125,146.052402 333.573896,145.174672 C332.642514,144.298399 331.364203,143.858806 329.723129,143.858806 L327.045585,143.858806 L327.045585,154.139738 L329.741843,154.139738 Z" id="Fill-43" fill="#A0285A" mask="url(#mask-2)"></path>
                <polygon id="Fill-44" fill="#A0285A" mask="url(#mask-2)" points="350.640625 143.860262 343 143.860262 343 147.809316 349.72017 147.809316 349.72017 149.649199 343 149.649199 343 154.11936 351 154.11936 351 156 341 156 341 142 350.640625 142"></polygon>
                <path d="M202.219596,40.3274718 C198.98608,39.1585103 195.659976,38.6706204 192.141686,38.6706204 C187.008741,38.6706204 183.301068,39.5476941 181.018668,41.3004313 C178.737671,43.0545786 177.598576,45.3925017 177.598576,48.3156105 C177.598576,51.2387193 178.452897,53.3820504 180.259739,54.9401958 C181.969785,56.3023391 184.726341,57.3754147 188.624798,57.8618945 L198.130355,59.226858 C204.595986,60.1998175 209.539549,62.2458527 212.961045,65.3635534 C216.288551,68.4812541 218,72.6706204 218,78.0289482 C218,80.950647 217.430452,83.5818679 216.288551,86.1143829 C215.148052,88.4523059 213.436603,90.595637 211.250998,92.3497843 C208.968598,94.1025216 206.11665,95.4674851 202.789144,96.4418547 C199.463041,97.5121102 195.565987,98 191.096579,98 C186.153016,98 181.685011,97.4134041 177.598576,96.2458527 C173.509334,95.1741871 169.707672,93.226858 166,90.4010451 L170.561994,82.5102024 C174.078882,84.9454214 177.501781,86.6981586 181.018668,87.7698242 C184.441567,88.8428998 188.053847,89.3293796 191.858314,89.3293796 C197.371425,89.3293796 201.554656,88.35501 204.21582,86.3089748 C207.067767,84.2629396 208.39905,81.6331287 208.39905,78.3208361 C208.39905,75.5923192 207.447934,73.3516921 205.641092,71.6962508 C203.835653,69.9435136 200.792921,68.773142 196.515701,68.1893663 L186.533182,66.7285169 C180.544513,65.8514433 175.885724,64.0014101 172.842991,61.0768912 C169.610877,58.1537823 168.090213,54.0631221 168.090213,48.7047943 C168.090213,45.6843895 168.661163,42.9572827 169.801662,40.6207697 C171.037553,38.2814366 172.65361,36.3326974 174.745225,34.773142 C176.83684,33.2149967 179.308622,32.0460352 182.349951,31.1703716 C185.201899,30.3905939 188.529405,30 192.046293,30 C196.420309,30 200.698932,30.5851858 204.976152,31.8514433 C209.159383,33.1177007 212.771663,34.969144 215.909787,37.5989549 L210.964821,44.8073159 C208.39905,42.8613968 205.45171,41.3004313 202.219596,40.3274718" id="Fill-45" fill="#A0285A" mask="url(#mask-2)"></path>
                <path d="M267.617461,32.5516645 C270.549539,33.715764 273.106031,35.1719415 275.18641,37.2080624 C277.363129,39.1486962 278.972979,41.4768952 280.201659,44.2909547 C281.431735,47.1036099 282,50.111452 282,53.5068591 C282,57.0960487 281.338188,60.2976733 280.106716,63.0148415 C278.781696,65.9257923 276.984751,68.252587 274.714485,70.1932209 C272.442823,72.2321502 269.79418,73.6869235 266.670819,74.7527274 C263.642402,75.8199356 260.42689,76.304392 256.925151,76.304392 L240.745668,76.304392 L240.745668,96 L231,96 L231,31 L257.966737,31 C261.467079,31 264.685383,31.5813476 267.617461,32.5516645 L267.617461,32.5516645 Z M256.735264,67.7681307 C261.562023,67.7681307 265.347195,66.5071399 268.184329,63.9837542 C270.929313,61.558664 272.34788,58.0663657 272.34788,53.6051546 C272.34788,49.2380263 271.02286,45.7457279 268.46916,43.2237465 C265.914064,40.7986563 262.223834,39.5376655 257.399869,39.5376655 L240.745668,39.5376655 L240.745668,67.7681307 L256.735264,67.7681307 Z" id="Fill-46" fill="#A0285A" mask="url(#mask-2)"></path>
                <path d="M352,89.0373058 C348.634427,91.9604753 344.789273,94.2011488 340.365219,95.6620285 C335.846099,97.2202061 331.038948,98 325.942346,98 C320.847163,98 316.231561,97.2202061 312.096957,95.6620285 C307.962352,94.1024407 304.403812,91.8617672 301.32627,88.9400079 C298.441696,86.0182486 296.134604,82.5098812 294.404994,78.3218381 C292.865514,74.132385 292,69.4550318 292,64.195301 C292,59.4206499 292.769031,55.0366008 294.404994,50.8485577 C296.03812,46.6591046 298.250148,43.0548493 301.32627,39.937084 C304.212264,36.9180267 307.865869,34.4813471 312.289924,32.7285735 C316.519592,30.8770918 321.519711,30 327.000828,30 C331.328399,30 335.558067,30.6824959 339.596188,32.0446675 C343.635727,33.4110694 347.289332,35.4557369 350.461939,38.1829003 L345.270272,45.2955229 C342.865278,43.1521473 339.982122,41.4952616 336.711613,40.5208718 C333.537588,39.3532961 330.078369,38.8653962 326.51841,38.8653962 C322.768321,38.8653962 319.404167,39.449184 316.328044,40.6195799 C313.345567,41.7885656 310.750443,43.4454513 308.6349,45.6847148 C306.422872,47.9253883 304.789746,50.5566638 303.634781,53.5757211 C302.386171,56.6934865 301.807269,60.2004438 301.807269,64.0007051 C301.807269,67.9941522 302.386171,71.5025195 303.634781,74.6202849 C304.884811,77.7380503 306.519356,80.3665056 308.729964,82.5098812 C310.943411,84.6532567 313.442051,86.3101425 316.519592,87.4791282 C319.404167,88.550816 322.768321,89.1346038 326.326862,89.1346038 C332.961525,89.1346038 338.347577,87.5764262 342.67373,84.5573689 L342.67373,70.3321237 L328.540308,69.6510379 L328.540308,61.6613234 L352,61.6613234 L352,89.0373058 Z" id="Fill-47" fill="#A0285A" mask="url(#mask-2)"></path>
            </g>
        </g>
    </g>
</svg>