<?xml version="1.0" encoding="UTF-8"?><svg id="uuid-af6caa46-6198-4bb2-a5c1-4148194cb22d" xmlns="http://www.w3.org/2000/svg" viewBox="0 0 130 240"><g><rect y="165" width="130" height="1.25" style="fill:#a0285a;"/><g><polygon points="11.34 177.25 7.99 182.73 4.6 177.25 1.64 177.25 1.64 189.34 4.27 189.34 4.27 181.36 4.44 181.36 7.23 185.96 8.64 185.96 11.43 181.36 11.6 181.36 11.6 189.34 14.25 189.34 14.25 177.25 11.34 177.25" style="fill:#a0285a;"/><polygon points="17.98 177.25 17.98 189.34 27.32 189.34 27.32 186.9 20.65 186.9 20.65 184.32 26.33 184.32 26.33 181.96 20.65 181.96 20.65 179.69 27.01 179.69 27.01 177.25 17.98 177.25" style="fill:#a0285a;"/><polygon points="38.9 177.25 38.9 185.4 33.04 177.25 30.6 177.25 30.6 189.34 33.23 189.34 33.23 181.62 38.81 189.34 41.51 189.34 41.51 177.25 38.9 177.25" style="fill:#a0285a;"/><path d="M49.52,179.72c-.45,.2-.85,.49-1.15,.83-.33,.34-.58,.76-.74,1.23-.16,.47-.25,.97-.25,1.52s.09,1.05,.25,1.53c.16,.47,.42,.88,.74,1.23,.32,.34,.72,.61,1.17,.83,.45,.18,.97,.29,1.55,.29s1.12-.11,1.57-.31c.47-.2,.87-.49,1.19-.85,.31-.34,.54-.76,.72-1.23,.14-.47,.23-.97,.23-1.5,0-.56-.09-1.06-.25-1.53-.16-.49-.41-.9-.74-1.24-.31-.34-.7-.61-1.15-.81-.47-.2-.99-.29-1.57-.29s-1.1,.11-1.57,.31m4.18-2.25c.79,.32,1.48,.77,2.02,1.33,.58,.56,1.01,1.23,1.32,1.98,.31,.78,.47,1.6,.47,2.51s-.16,1.68-.47,2.43c-.31,.77-.76,1.44-1.32,2.02-.56,.56-1.24,1.01-2.02,1.33-.79,.34-1.66,.51-2.61,.51s-1.8-.16-2.58-.47c-.78-.33-1.46-.78-2.02-1.33-.58-.56-1.03-1.23-1.33-2-.31-.78-.47-1.61-.47-2.49s.16-1.68,.47-2.45c.31-.78,.76-1.44,1.33-2,.56-.56,1.24-1.01,2.02-1.33,.78-.34,1.64-.5,2.58-.5s1.82,.16,2.61,.47" style="fill:#a0285a;"/><path d="M65.84,183.64c.72,0,1.28-.18,1.7-.54,.41-.36,.61-.85,.61-1.46s-.18-1.08-.54-1.42c-.38-.36-.92-.54-1.66-.54h-2.56v3.97h2.45Zm2.18-6.06c.59,.2,1.1,.5,1.53,.87,.41,.4,.74,.85,.97,1.37,.23,.54,.34,1.14,.34,1.8,0,.7-.13,1.32-.38,1.88-.27,.54-.61,1.01-1.08,1.37-.43,.4-.97,.68-1.59,.86-.61,.22-1.28,.31-1.98,.31h-2.45v3.3h-2.71v-12.08h5.37c.72,0,1.37,.11,1.97,.32" style="fill:#a0285a;"/><path d="M78.95,179.96h.18l1.61,4.6h-3.41l1.62-4.6Zm-1.39-2.72l-4.96,12.1h2.94l.9-2.4h5.18l.92,2.4h2.99l-4.99-12.1h-2.98Z" style="fill:#a0285a;"/><path d="M91.25,183.98c0,.97,.23,1.75,.7,2.33,.45,.56,1.14,.85,2.04,.85s1.61-.27,2.06-.81c.45-.52,.68-1.3,.68-2.33v-6.76h2.72v6.71c0,.85-.11,1.61-.36,2.31-.22,.69-.58,1.28-1.05,1.77-.45,.49-1.03,.87-1.7,1.15-.69,.25-1.48,.4-2.36,.4s-1.66-.13-2.33-.4c-.69-.25-1.26-.61-1.73-1.12-.45-.47-.81-1.06-1.05-1.75-.23-.69-.36-1.46-.36-2.31v-6.76h2.72v6.73Z" style="fill:#a0285a;"/><path d="M109.7,179.67c-.6-.18-1.21-.27-1.84-.27-.79,0-1.35,.11-1.7,.31-.34,.22-.5,.51-.5,.88,0,.34,.13,.61,.38,.77,.25,.18,.65,.31,1.21,.38l1.77,.23c1.32,.18,2.31,.58,2.98,1.23,.65,.61,.97,1.44,.97,2.47,0,.6-.11,1.12-.34,1.61-.23,.49-.56,.9-.99,1.23-.45,.36-.99,.61-1.66,.79-.65,.2-1.39,.29-2.24,.29-.99,0-1.91-.11-2.72-.31-.81-.2-1.62-.56-2.4-1.08l1.14-2.22c.67,.42,1.35,.72,2.02,.9,.67,.18,1.39,.27,2.13,.27,.79,0,1.39-.13,1.78-.36,.38-.23,.58-.56,.58-.97,0-.34-.13-.63-.4-.83-.27-.2-.7-.34-1.32-.43l-1.86-.23c-1.17-.16-2.09-.52-2.74-1.1-.65-.58-.97-1.41-.97-2.51,0-.6,.11-1.14,.36-1.59,.22-.47,.56-.87,.97-1.17,.41-.31,.94-.56,1.52-.7,.61-.18,1.26-.25,1.98-.25,.97,0,1.87,.13,2.69,.38,.81,.25,1.53,.63,2.15,1.15l-1.33,1.93c-.49-.34-1.01-.61-1.61-.79" style="fill:#a0285a;"/><path d="M121.78,179.96h.18l1.61,4.6h-3.41l1.62-4.6Zm-1.39-2.72l-4.96,12.1h2.94l.9-2.4h5.18l.92,2.4h2.99l-4.99-12.1h-2.98Z" style="fill:#a0285a;"/></g><g><path d="M25.36,114.06c-2.26-.8-4.59-1.13-7.06-1.13-3.59,0-6.19,.6-7.79,1.8-1.6,1.2-2.4,2.8-2.4,4.8s.6,3.46,1.86,4.53c1.2,.93,3.13,1.67,5.86,2l6.66,.93c4.53,.67,7.99,2.07,10.38,4.2,2.33,2.13,3.53,5,3.53,8.66,0,2-.4,3.8-1.2,5.53-.8,1.6-2,3.06-3.53,4.26-1.6,1.2-3.59,2.13-5.92,2.8-2.33,.73-5.06,1.07-8.19,1.07-3.46,0-6.59-.4-9.45-1.2-2.86-.73-5.52-2.07-8.12-4l3.19-5.4c2.46,1.67,4.86,2.86,7.32,3.6,2.4,.73,4.93,1.07,7.59,1.07,3.86,0,6.79-.67,8.65-2.07,2-1.4,2.93-3.2,2.93-5.46,0-1.87-.67-3.4-1.93-4.53-1.26-1.2-3.4-2-6.39-2.4l-6.99-1c-4.19-.6-7.46-1.87-9.59-3.86-2.26-2-3.33-4.8-3.33-8.46,0-2.07,.4-3.93,1.2-5.53,.87-1.6,2-2.93,3.46-4,1.47-1.07,3.2-1.86,5.33-2.46,2-.53,4.33-.8,6.79-.8,3.06,0,6.06,.4,9.05,1.27,2.93,.87,5.46,2.13,7.66,3.93l-3.46,4.93c-1.8-1.33-3.86-2.4-6.12-3.06" style="fill:#a0285a;"/><path d="M71.29,109c2.06,.8,3.86,1.8,5.33,3.2,1.53,1.33,2.66,2.93,3.53,4.86,.86,1.93,1.26,4,1.26,6.33,0,2.46-.47,4.66-1.33,6.53-.93,2-2.2,3.6-3.79,4.93-1.6,1.4-3.46,2.4-5.66,3.13-2.13,.73-4.39,1.07-6.86,1.07h-11.38v13.52h-6.86v-44.64h18.97c2.46,0,4.73,.4,6.79,1.07m-7.65,24.18c3.39,0,6.06-.87,8.05-2.6,1.93-1.67,2.93-4.06,2.93-7.13s-.93-5.4-2.73-7.13c-1.8-1.67-4.39-2.53-7.79-2.53h-11.72v19.39h11.25Z" style="fill:#a0285a;"/><path d="M130,147.37c-2.33,2-4.99,3.53-8.05,4.53-3.13,1.07-6.46,1.6-9.98,1.6s-6.72-.53-9.58-1.6c-2.86-1.07-5.33-2.6-7.46-4.6-2-2-3.59-4.4-4.79-7.26-1.06-2.87-1.66-6.06-1.66-9.66,0-3.26,.53-6.26,1.66-9.13,1.13-2.87,2.66-5.33,4.79-7.46,2-2.07,4.53-3.73,7.59-4.93,2.93-1.27,6.39-1.86,10.19-1.86,2.99,0,5.92,.47,8.72,1.4,2.79,.93,5.32,2.33,7.52,4.2l-3.59,4.86c-1.66-1.47-3.66-2.6-5.92-3.26-2.2-.8-4.59-1.13-7.06-1.13-2.6,0-4.92,.4-7.05,1.2-2.06,.8-3.86,1.93-5.33,3.46-1.53,1.53-2.66,3.33-3.46,5.4-.86,2.13-1.26,4.53-1.26,7.13,0,2.73,.4,5.13,1.26,7.26,.87,2.13,2,3.93,3.53,5.4,1.53,1.46,3.26,2.6,5.39,3.4,2,.73,4.33,1.13,6.79,1.13,4.59,0,8.32-1.07,11.32-3.13v-9.73l-9.79-.47v-5.46h16.24v18.72Z" style="fill:#a0285a;"/></g></g><g><path d="M68.86,96.48l55.05-63.73c2.47-2.86,.45-7.32-3.32-7.32H9.4c-3.79,0-5.8,4.5-3.29,7.35l56.14,63.73c1.76,2,4.87,1.98,6.61-.03" style="fill:#a0285a;"/><path d="M66.34,0s-26.81,31.94-26.81,46.84c0,6.21,2.09,11.93,5.6,16.48,0,0,7.22,9.68,19.69,10.43v24.19c.48,.07,.98,.09,1.52-.01V0Z" style="fill:#f5cdcd;"/><path d="M66.34,0s26.81,31.94,26.81,46.84c0,6.21-2.09,11.93-5.6,16.48,0,0-7.8,10.48-21.21,10.48V0Z" style="fill:#b46996;"/></g><rect x="-74.72" y="-292.93" width="1029.29" height="2324.87" style="fill:none; stroke:#fff; stroke-miterlimit:10; stroke-width:20px;"/></svg>