<?xml version="1.0" encoding="UTF-8"?><svg id="uuid-78903750-0774-4b2f-8b3c-96d32d9d55e3" xmlns="http://www.w3.org/2000/svg" viewBox="0 0 130 240"><g><path d="M68.86,96.48l55.05-63.73c2.47-2.86,.45-7.32-3.32-7.32H9.4c-3.79,0-5.8,4.5-3.29,7.35l56.14,63.73c1.76,2,4.87,1.98,6.61-.03" style="fill:#a0285a;"/><path d="M66.34,0s-26.81,31.94-26.81,46.84c0,6.21,2.09,11.93,5.6,16.48,0,0,7.22,9.68,19.69,10.43v24.19c.48,.07,.98,.09,1.52-.01V0Z" style="fill:#f5cdcd;"/><path d="M66.34,0s26.81,31.94,26.81,46.84c0,6.21-2.09,11.93-5.6,16.48,0,0-7.8,10.48-21.21,10.48V0Z" style="fill:#b46996;"/></g><g><rect y="165" width="130" height="1.25" style="fill:#a0285a;"/><g><path d="M25.36,114.06c-2.26-.8-4.59-1.13-7.06-1.13-3.59,0-6.19,.6-7.79,1.8-1.6,1.2-2.4,2.8-2.4,4.8s.6,3.46,1.86,4.53c1.2,.93,3.13,1.67,5.86,2l6.66,.93c4.53,.67,7.99,2.07,10.38,4.2,2.33,2.13,3.53,5,3.53,8.66,0,2-.4,3.8-1.2,5.53-.8,1.6-2,3.06-3.53,4.26-1.6,1.2-3.59,2.13-5.92,2.8-2.33,.73-5.06,1.07-8.19,1.07-3.46,0-6.59-.4-9.45-1.2-2.86-.73-5.52-2.07-8.12-4l3.19-5.4c2.46,1.67,4.86,2.86,7.32,3.6,2.4,.73,4.93,1.07,7.59,1.07,3.86,0,6.79-.67,8.65-2.07,2-1.4,2.93-3.2,2.93-5.46,0-1.87-.67-3.4-1.93-4.53-1.26-1.2-3.4-2-6.39-2.4l-6.99-1c-4.19-.6-7.46-1.87-9.59-3.86-2.26-2-3.33-4.8-3.33-8.46,0-2.07,.4-3.93,1.2-5.53,.87-1.6,2-2.93,3.46-4,1.47-1.07,3.2-1.86,5.33-2.46,2-.53,4.33-.8,6.79-.8,3.06,0,6.06,.4,9.05,1.27,2.93,.87,5.46,2.13,7.66,3.93l-3.46,4.93c-1.8-1.33-3.86-2.4-6.12-3.06" style="fill:#a0285a;"/><path d="M71.29,109c2.06,.8,3.86,1.8,5.33,3.2,1.53,1.33,2.66,2.93,3.53,4.86,.86,1.93,1.26,4,1.26,6.33,0,2.46-.47,4.66-1.33,6.53-.93,2-2.2,3.6-3.79,4.93-1.6,1.4-3.46,2.4-5.66,3.13-2.13,.73-4.39,1.07-6.86,1.07h-11.38v13.52h-6.86v-44.64h18.97c2.46,0,4.73,.4,6.79,1.07m-7.65,24.18c3.39,0,6.06-.87,8.05-2.6,1.93-1.67,2.93-4.06,2.93-7.13s-.93-5.4-2.73-7.13c-1.8-1.67-4.39-2.53-7.79-2.53h-11.72v19.39h11.25Z" style="fill:#a0285a;"/><path d="M130,147.37c-2.33,2-4.99,3.53-8.05,4.53-3.13,1.07-6.46,1.6-9.98,1.6s-6.72-.53-9.58-1.6c-2.86-1.07-5.33-2.6-7.46-4.6-2-2-3.59-4.4-4.79-7.26-1.06-2.87-1.66-6.06-1.66-9.66,0-3.26,.53-6.26,1.66-9.13,1.13-2.87,2.66-5.33,4.79-7.46,2-2.07,4.53-3.73,7.59-4.93,2.93-1.27,6.39-1.86,10.19-1.86,2.99,0,5.92,.47,8.72,1.4,2.79,.93,5.32,2.33,7.52,4.2l-3.59,4.86c-1.66-1.47-3.66-2.6-5.92-3.26-2.2-.8-4.59-1.13-7.06-1.13-2.6,0-4.92,.4-7.05,1.2-2.06,.8-3.86,1.93-5.33,3.46-1.53,1.53-2.66,3.33-3.46,5.4-.86,2.13-1.26,4.53-1.26,7.13,0,2.73,.4,5.13,1.26,7.26,.87,2.13,2,3.93,3.53,5.4,1.53,1.46,3.26,2.6,5.39,3.4,2,.73,4.33,1.13,6.79,1.13,4.59,0,8.32-1.07,11.32-3.13v-9.73l-9.79-.47v-5.46h16.24v18.72Z" style="fill:#a0285a;"/></g><g><path d="M92.25,223.06v-2.6h1.87c.46,0,.82,.12,1.08,.33,.27,.23,.4,.55,.4,.96s-.14,.73-.42,.96c-.27,.23-.64,.35-1.1,.35h-1.82Zm1.96-4.31h-3.88v8.57h1.92v-2.56h1.73l1.58,2.56h2.33l-2.09-3.07c.55-.23,.98-.58,1.29-1.02,.31-.45,.46-.97,.46-1.56,0-.45-.08-.85-.24-1.2-.17-.36-.4-.66-.68-.92-.31-.26-.65-.45-1.06-.59-.41-.14-.86-.2-1.36-.2m-10.69,1.53c.41,0,.78,.06,1.11,.21,.32,.14,.6,.33,.82,.58,.23,.24,.41,.54,.52,.88,.11,.33,.18,.69,.18,1.09,0,.37-.06,.73-.17,1.06-.13,.33-.3,.63-.51,.87-.23,.26-.51,.46-.85,.6-.32,.14-.69,.22-1.11,.22s-.78-.08-1.1-.21c-.32-.15-.6-.34-.83-.59-.23-.24-.41-.54-.52-.87-.12-.35-.18-.7-.18-1.09s.06-.74,.18-1.07c.12-.33,.29-.63,.52-.87,.22-.24,.5-.45,.82-.59,.33-.14,.7-.22,1.11-.22m0-1.71c-.67,0-1.28,.11-1.83,.36-.55,.23-1.04,.55-1.43,.95-.41,.4-.73,.87-.95,1.42-.22,.55-.33,1.13-.33,1.74s.12,1.22,.33,1.77c.22,.55,.54,1.02,.95,1.42,.4,.4,.88,.72,1.43,.95,.55,.22,1.17,.33,1.83,.33s1.29-.11,1.86-.36c.55-.23,1.04-.55,1.43-.95,.4-.41,.72-.88,.93-1.43,.22-.54,.33-1.11,.33-1.73s-.11-1.23-.33-1.78c-.22-.54-.52-1.01-.93-1.41-.38-.4-.87-.72-1.43-.95-.56-.22-1.18-.33-1.86-.33m-6.81,.18h-1.93v8.57h1.93v-8.57Zm-9.71,4.31v-2.6h1.87c.46,0,.82,.12,1.08,.33,.27,.23,.4,.55,.4,.96s-.14,.73-.42,.96c-.27,.23-.64,.35-1.1,.35h-1.82Zm1.96-4.31h-3.88v8.57h1.92v-2.56h1.73l1.58,2.56h2.33l-2.09-3.07c.55-.23,.99-.58,1.29-1.02,.31-.45,.46-.97,.46-1.56,0-.45-.08-.85-.24-1.2-.17-.36-.4-.66-.68-.92-.31-.26-.65-.45-1.06-.59-.41-.14-.86-.2-1.36-.2m-6.43,0h-6.41v8.57h6.63v-1.73h-4.74v-1.83h4.03v-1.67h-4.03v-1.61h4.52v-1.73Zm-8.67,0h-6.3v8.57h1.89v-3.34h3.78v-1.69h-3.78v-1.82h4.41v-1.73Zm-8.94,0h-1.86v5.78l-4.16-5.78h-1.73v8.57h1.87v-5.47l3.96,5.47h1.92v-8.57Zm-10.4,0h-1.93v8.57h1.93v-8.57Z" style="fill:#a0285a;"/><path d="M122.86,204.89h-1.92v8.57h6.56v-1.75h-4.64v-6.82Zm-9.87,5.18l1.15-3.26h.13l1.14,3.26h-2.42Zm2.28-5.18h-2.11l-3.52,8.57h2.09l.64-1.7h3.68l.65,1.7h2.13l-3.55-8.57Zm-6.29,0h-7.77v1.74h2.93v6.83h1.91v-6.83h2.93v-1.74Zm-9.98,0h-1.93v8.57h1.93v-8.57Zm-4.57,0h-1.86v5.78l-4.16-5.78h-1.73v8.57h1.87v-5.47l3.96,5.47h1.92v-8.57Zm-10.3,0h-6.42v8.57h6.63v-1.73h-4.74v-1.83h4.03v-1.67h-4.03v-1.61h4.52v-1.73Zm-8.84,3.67h-3.34v1.6l1.51,.09v1.31c-.45,.22-.97,.33-1.59,.33-.4,0-.76-.06-1.09-.19-.33-.12-.63-.3-.86-.54-.26-.23-.44-.51-.58-.84-.14-.33-.21-.72-.21-1.14s.06-.78,.19-1.11c.14-.35,.32-.63,.56-.87,.24-.23,.52-.41,.87-.54,.33-.13,.7-.19,1.11-.19,.45,0,.87,.06,1.24,.19,.38,.14,.72,.35,1.01,.61l1.07-1.38c-.44-.4-.93-.69-1.47-.88-.56-.19-1.15-.29-1.79-.29-.73,0-1.4,.12-1.97,.36-.58,.24-1.08,.56-1.49,.97-.4,.41-.72,.88-.92,1.43-.23,.54-.33,1.11-.33,1.73,0,.69,.12,1.3,.33,1.85,.22,.55,.54,1.01,.93,1.39,.4,.38,.88,.68,1.45,.88,.56,.2,1.19,.31,1.87,.31s1.29-.09,1.87-.27c.59-.18,1.13-.46,1.6-.84v-3.96Zm-19.02-2.14c.41,0,.78,.06,1.11,.2,.32,.14,.6,.33,.82,.58,.23,.24,.41,.54,.52,.88,.12,.33,.18,.69,.18,1.09,0,.37-.06,.73-.17,1.06-.13,.33-.29,.63-.51,.87-.23,.26-.51,.46-.85,.6-.32,.14-.69,.22-1.11,.22s-.78-.08-1.1-.2c-.32-.15-.6-.35-.83-.59-.23-.24-.41-.54-.53-.87-.11-.35-.18-.7-.18-1.09s.06-.74,.18-1.08c.12-.33,.3-.63,.53-.87,.22-.24,.5-.45,.82-.59,.33-.14,.71-.22,1.11-.22m0-1.71c-.67,0-1.28,.12-1.83,.36-.55,.23-1.04,.55-1.44,.95-.41,.4-.73,.87-.95,1.42-.22,.55-.33,1.13-.33,1.74s.11,1.22,.33,1.77,.54,1.02,.95,1.42c.4,.4,.88,.72,1.44,.95,.55,.22,1.17,.33,1.83,.33s1.29-.11,1.86-.36c.55-.23,1.04-.55,1.43-.95,.4-.41,.72-.88,.93-1.43,.22-.54,.33-1.11,.33-1.73s-.12-1.23-.33-1.78c-.22-.54-.52-1.01-.93-1.41-.38-.4-.87-.72-1.43-.95-.56-.22-1.18-.33-1.86-.33m-5.97,.18h-7.77v1.74h2.93v6.83h1.91v-6.83h2.93v-1.74Zm-10.76,2.39l1.06-1.39c-.44-.38-.94-.68-1.49-.87-.55-.2-1.17-.31-1.83-.31-.73,0-1.4,.12-1.97,.36-.58,.23-1.08,.55-1.48,.96-.41,.41-.73,.88-.93,1.43-.23,.55-.33,1.13-.33,1.74,0,.68,.12,1.28,.33,1.83s.54,1.01,.92,1.41c.41,.38,.88,.68,1.43,.89,.55,.2,1.17,.31,1.83,.31,1.48,0,2.72-.46,3.69-1.38l-1.09-1.34c-.33,.32-.72,.55-1.13,.73-.44,.15-.88,.24-1.37,.24-.4,0-.77-.06-1.1-.19-.33-.14-.61-.32-.86-.56-.24-.23-.42-.51-.56-.84-.13-.33-.19-.7-.19-1.11s.06-.76,.19-1.09c.13-.33,.31-.62,.55-.87,.24-.24,.52-.42,.86-.56,.35-.13,.72-.19,1.14-.19,.47,0,.91,.06,1.29,.22,.4,.13,.74,.33,1.04,.6m-14.55,2.79l1.15-3.26h.13l1.14,3.26h-2.42Zm2.28-5.18h-2.11l-3.52,8.57h2.09l.64-1.7h3.68l.65,1.7h2.13l-3.55-8.57Zm-12.9,4.31v-2.6h1.87c.46,0,.82,.12,1.08,.33,.27,.23,.4,.55,.4,.96s-.14,.73-.42,.96c-.27,.23-.64,.34-1.1,.34h-1.82Zm1.96-4.31h-3.88v8.57h1.92v-2.56h1.73l1.58,2.56h2.33l-2.09-3.07c.55-.23,.99-.58,1.29-1.02,.31-.45,.46-.97,.46-1.56,0-.45-.08-.85-.24-1.2-.17-.36-.4-.66-.68-.92-.31-.26-.65-.45-1.06-.59-.41-.14-.86-.2-1.36-.2m-6.07,0H2.5v1.74h2.93v6.83h1.91v-6.83h2.93v-1.74Z" style="fill:#a0285a;"/><path d="M100.82,196.22l1.15-3.26h.13l1.14,3.26h-2.42Zm2.28-5.18h-2.11l-3.52,8.57h2.09l.64-1.7h3.68l.65,1.7h2.13l-3.55-8.57Zm-7.78,0h-1.93v8.57h1.93v-8.57Zm-4.35,3.67h-3.34v1.6l1.51,.09v1.31c-.45,.22-.97,.33-1.59,.33-.4,0-.76-.06-1.09-.19-.33-.12-.63-.3-.86-.54-.26-.23-.44-.51-.58-.84-.14-.33-.21-.72-.21-1.14s.06-.78,.19-1.11c.14-.35,.32-.63,.56-.87,.24-.23,.52-.41,.87-.54,.33-.13,.7-.19,1.11-.19,.45,0,.87,.06,1.24,.19,.38,.14,.72,.35,1.01,.61l1.07-1.38c-.44-.4-.93-.69-1.47-.88-.56-.19-1.15-.29-1.79-.29-.73,0-1.4,.12-1.97,.36-.58,.24-1.08,.56-1.49,.97-.4,.41-.72,.88-.92,1.43-.23,.54-.33,1.11-.33,1.73,0,.69,.12,1.3,.33,1.85,.22,.55,.54,1.01,.93,1.39,.4,.38,.88,.68,1.45,.88,.56,.2,1.19,.31,1.87,.31s1.29-.09,1.87-.27c.59-.18,1.13-.46,1.6-.84v-3.96Zm-14.61-2.14c.41,0,.78,.06,1.11,.2,.32,.14,.6,.33,.82,.58,.23,.24,.41,.54,.52,.88,.12,.33,.18,.69,.18,1.09,0,.37-.06,.73-.17,1.06-.13,.33-.29,.63-.51,.87-.23,.26-.51,.46-.85,.6-.32,.14-.69,.22-1.11,.22s-.78-.08-1.1-.2c-.32-.15-.6-.35-.83-.59-.23-.24-.41-.54-.53-.87-.11-.35-.18-.7-.18-1.09s.06-.74,.18-1.08c.12-.33,.3-.63,.53-.87,.22-.24,.5-.45,.82-.59,.33-.14,.7-.22,1.11-.22m0-1.71c-.67,0-1.28,.12-1.83,.36-.55,.23-1.04,.55-1.43,.95-.41,.4-.73,.87-.95,1.42-.22,.55-.33,1.13-.33,1.74s.11,1.22,.33,1.77c.22,.55,.54,1.02,.95,1.42,.4,.4,.88,.72,1.43,.95,.55,.22,1.17,.33,1.83,.33s1.29-.11,1.86-.36c.55-.23,1.04-.55,1.43-.95,.4-.41,.72-.88,.93-1.43,.22-.54,.33-1.11,.33-1.73s-.12-1.23-.33-1.78c-.22-.54-.52-1.01-.93-1.41-.38-.4-.87-.72-1.43-.95-.56-.22-1.18-.33-1.86-.33m-10.71,.18h-1.92v8.57h6.56v-1.75h-4.64v-6.82Zm-8.73,1.53c.41,0,.78,.06,1.11,.2,.32,.14,.6,.33,.82,.58,.23,.24,.41,.54,.52,.88,.12,.33,.18,.69,.18,1.09,0,.37-.06,.73-.17,1.06-.13,.33-.29,.63-.51,.87-.23,.26-.51,.46-.85,.6-.32,.14-.69,.22-1.11,.22s-.78-.08-1.1-.2c-.32-.15-.6-.35-.83-.59-.23-.24-.41-.54-.53-.87-.11-.35-.18-.7-.18-1.09s.06-.74,.18-1.08c.12-.33,.3-.63,.53-.87,.22-.24,.5-.45,.82-.59,.33-.14,.7-.22,1.11-.22m0-1.71c-.67,0-1.28,.12-1.83,.36-.55,.23-1.04,.55-1.43,.95-.41,.4-.73,.87-.95,1.42-.22,.55-.33,1.13-.33,1.74s.11,1.22,.33,1.77c.22,.55,.54,1.02,.95,1.42,.4,.4,.88,.72,1.43,.95,.55,.22,1.17,.33,1.83,.33s1.29-.11,1.86-.36c.55-.23,1.04-.55,1.43-.95,.4-.41,.72-.88,.93-1.43,.22-.54,.33-1.11,.33-1.73s-.12-1.23-.33-1.78c-.22-.54-.52-1.01-.93-1.41-.38-.4-.87-.72-1.43-.95-.56-.22-1.18-.33-1.86-.33m-5.97,.18h-7.77v1.74h2.93v6.83h1.91v-6.83h2.93v-1.74Zm-15.28,5.18l1.15-3.26h.13l1.14,3.26h-2.42Zm2.28-5.18h-2.11l-3.52,8.57h2.09l.64-1.7h3.68l.65,1.7h2.13l-3.55-8.57Zm-12.18,4.53v-2.82h1.82c.52,0,.91,.13,1.18,.38,.26,.24,.38,.59,.38,1.01s-.14,.78-.44,1.04c-.29,.26-.69,.38-1.2,.38h-1.74Zm1.9-4.53h-3.82v8.57h1.92v-2.34h1.74c.5,0,.97-.06,1.41-.22,.44-.13,.82-.33,1.13-.61,.33-.26,.58-.59,.77-.97,.18-.4,.27-.83,.27-1.33,0-.47-.08-.9-.24-1.28-.17-.37-.4-.69-.69-.97-.31-.26-.67-.47-1.09-.61-.42-.15-.88-.23-1.4-.23" style="fill:#a0285a;"/><path d="M110.61,182.36l1.15-3.26h.13l1.14,3.26h-2.42Zm2.28-5.18h-2.11l-3.52,8.57h2.09l.64-1.7h3.68l.65,1.7h2.13l-3.55-8.57Zm-7.78,0h-1.93v8.57h1.93v-8.57Zm-9.5,4.53v-2.82h1.82c.53,0,.91,.13,1.18,.38,.26,.24,.38,.59,.38,1.01s-.14,.78-.44,1.04c-.29,.26-.69,.38-1.2,.38h-1.74Zm1.9-4.53h-3.82v8.57h1.92v-2.34h1.74c.5,0,.97-.06,1.41-.22,.44-.13,.82-.33,1.13-.61,.33-.26,.58-.59,.77-.97,.18-.4,.27-.83,.27-1.33,0-.47-.08-.9-.24-1.28-.17-.37-.4-.69-.69-.97-.31-.26-.67-.47-1.09-.61-.42-.15-.88-.23-1.4-.23m-10.63,1.53c.41,0,.78,.06,1.11,.2,.32,.14,.6,.33,.82,.58,.23,.24,.41,.54,.53,.88,.11,.33,.18,.69,.18,1.09,0,.37-.06,.73-.17,1.06-.13,.33-.29,.63-.51,.87-.23,.26-.51,.46-.85,.6-.32,.14-.69,.22-1.11,.22s-.78-.08-1.1-.2c-.32-.15-.6-.35-.83-.59-.23-.24-.41-.54-.52-.87-.12-.34-.18-.7-.18-1.09s.06-.74,.18-1.07c.11-.33,.29-.63,.52-.87,.22-.24,.5-.45,.82-.59,.33-.14,.7-.22,1.11-.22m0-1.71c-.67,0-1.28,.12-1.83,.36-.55,.23-1.04,.55-1.44,.94-.41,.4-.73,.87-.95,1.42-.22,.55-.33,1.13-.33,1.74s.11,1.22,.33,1.77c.22,.55,.54,1.02,.95,1.42,.4,.4,.88,.72,1.44,.95,.55,.22,1.17,.33,1.83,.33s1.29-.12,1.86-.36c.55-.23,1.04-.55,1.43-.95,.4-.41,.72-.88,.94-1.43,.22-.54,.33-1.11,.33-1.73s-.11-1.23-.33-1.78c-.22-.54-.52-1.01-.94-1.41-.38-.4-.87-.72-1.43-.95-.56-.22-1.18-.33-1.86-.33m-7.34,2.57l1.06-1.39c-.44-.38-.94-.68-1.49-.87-.55-.2-1.17-.31-1.83-.31-.73,0-1.4,.12-1.97,.36-.58,.23-1.08,.55-1.48,.96-.41,.41-.73,.88-.93,1.43-.23,.55-.33,1.13-.33,1.74,0,.68,.12,1.28,.33,1.83,.22,.55,.54,1.01,.92,1.41,.41,.38,.88,.68,1.43,.89,.55,.2,1.17,.31,1.83,.31,1.49,0,2.72-.46,3.69-1.38l-1.09-1.34c-.33,.32-.72,.55-1.13,.73-.44,.15-.88,.24-1.37,.24-.4,0-.77-.06-1.1-.19-.33-.14-.61-.32-.86-.56-.24-.23-.42-.51-.56-.84-.13-.33-.19-.7-.19-1.11s.06-.75,.19-1.09c.13-.33,.31-.61,.55-.87,.24-.24,.53-.42,.86-.56,.35-.13,.72-.19,1.14-.19,.47,0,.91,.06,1.29,.22,.4,.13,.74,.33,1.04,.6m-9.91-.12l.95-1.37c-.44-.37-.95-.64-1.52-.82-.58-.18-1.22-.27-1.91-.27-.51,0-.97,.05-1.41,.18-.41,.1-.78,.28-1.08,.5-.29,.22-.54,.5-.69,.83-.18,.32-.26,.7-.26,1.13,0,.78,.23,1.37,.69,1.78,.46,.41,1.11,.66,1.95,.78l1.32,.17c.44,.06,.74,.17,.94,.31,.19,.14,.28,.34,.28,.59,0,.3-.14,.53-.41,.69-.28,.17-.71,.26-1.27,.26-.53,0-1.04-.06-1.51-.19-.47-.13-.96-.35-1.43-.64l-.81,1.57c.55,.37,1.13,.63,1.7,.77,.58,.14,1.23,.22,1.93,.22,.6,0,1.13-.06,1.59-.21,.47-.13,.86-.31,1.18-.56,.31-.23,.54-.52,.7-.87,.17-.34,.24-.72,.24-1.14,0-.73-.23-1.32-.69-1.75-.47-.46-1.18-.74-2.11-.87l-1.26-.17c-.4-.05-.68-.14-.86-.27-.18-.11-.27-.31-.27-.55,0-.27,.12-.47,.36-.63,.24-.14,.64-.22,1.2-.22,.45,0,.88,.06,1.31,.19,.42,.13,.79,.32,1.14,.56m-12.45-.74c.41,0,.78,.06,1.11,.2,.32,.14,.6,.33,.82,.58,.23,.24,.41,.54,.52,.88,.12,.33,.18,.69,.18,1.09,0,.37-.06,.73-.17,1.06-.13,.33-.29,.63-.51,.87-.23,.26-.51,.46-.85,.6-.32,.14-.69,.22-1.11,.22s-.78-.08-1.1-.2c-.32-.15-.6-.35-.83-.59-.23-.24-.41-.54-.52-.87-.11-.34-.18-.7-.18-1.09s.06-.74,.18-1.07c.12-.33,.29-.63,.52-.87,.22-.24,.5-.45,.82-.59,.33-.14,.7-.22,1.11-.22m0-1.71c-.67,0-1.28,.12-1.83,.36-.55,.23-1.04,.55-1.43,.94-.41,.4-.73,.87-.95,1.42s-.33,1.13-.33,1.74,.12,1.22,.33,1.77,.54,1.02,.95,1.42c.4,.4,.88,.72,1.43,.95,.55,.22,1.17,.33,1.83,.33s1.29-.12,1.86-.36c.55-.23,1.04-.55,1.43-.95,.4-.41,.72-.88,.93-1.43,.22-.54,.33-1.11,.33-1.73s-.11-1.23-.33-1.78c-.22-.54-.52-1.01-.93-1.41-.38-.4-.87-.72-1.43-.95-.56-.22-1.18-.33-1.86-.33m-11.73,4.71v-2.82h1.82c.53,0,.91,.13,1.18,.38,.26,.24,.39,.59,.39,1.01s-.14,.78-.44,1.04c-.29,.26-.69,.38-1.2,.38h-1.74Zm1.9-4.53h-3.82v8.57h1.92v-2.34h1.74c.5,0,.97-.06,1.41-.22,.44-.13,.82-.33,1.13-.61,.33-.26,.58-.59,.77-.97,.18-.4,.27-.83,.27-1.33,0-.47-.08-.9-.24-1.28-.17-.37-.4-.69-.69-.97-.31-.26-.67-.47-1.09-.61-.42-.15-.88-.23-1.4-.23m-10.62,0h-1.92v8.57h6.56v-1.75h-4.64v-6.82Zm-8.73,1.53c.41,0,.78,.06,1.11,.2,.32,.14,.6,.33,.82,.58,.23,.24,.41,.54,.52,.88,.11,.33,.18,.69,.18,1.09,0,.37-.06,.73-.17,1.06-.13,.33-.3,.63-.51,.87-.23,.26-.51,.46-.85,.6-.32,.14-.69,.22-1.11,.22s-.78-.08-1.1-.2c-.32-.15-.6-.35-.83-.59-.23-.24-.41-.54-.52-.87-.12-.34-.18-.7-.18-1.09s.06-.74,.18-1.07c.12-.33,.29-.63,.52-.87,.22-.24,.5-.45,.82-.59,.33-.14,.7-.22,1.11-.22m0-1.71c-.67,0-1.28,.12-1.83,.36-.55,.23-1.04,.55-1.43,.94-.41,.4-.73,.87-.95,1.42-.22,.55-.33,1.13-.33,1.74s.12,1.22,.33,1.77c.22,.55,.54,1.02,.95,1.42,.4,.4,.88,.72,1.43,.95,.55,.22,1.17,.33,1.83,.33s1.29-.12,1.86-.36c.55-.23,1.04-.55,1.43-.95,.4-.41,.72-.88,.93-1.43,.22-.54,.33-1.11,.33-1.73s-.11-1.23-.33-1.78c-.22-.54-.52-1.01-.93-1.41-.38-.4-.87-.72-1.43-.95-.56-.22-1.18-.33-1.86-.33m-7.34,2.57l1.06-1.39c-.44-.38-.94-.68-1.49-.87-.55-.2-1.16-.31-1.83-.31-.73,0-1.4,.12-1.97,.36-.58,.23-1.08,.55-1.49,.96-.41,.41-.73,.88-.93,1.43-.23,.55-.33,1.13-.33,1.74,0,.68,.11,1.28,.33,1.83,.22,.55,.54,1.01,.92,1.41,.41,.38,.88,.68,1.43,.89,.55,.2,1.17,.31,1.83,.31,1.49,0,2.72-.46,3.69-1.38l-1.09-1.34c-.33,.32-.72,.55-1.13,.73-.44,.15-.88,.24-1.37,.24-.4,0-.77-.06-1.1-.19-.33-.14-.61-.32-.86-.56-.24-.23-.42-.51-.56-.84-.13-.33-.19-.7-.19-1.11s.06-.75,.19-1.09,.31-.61,.55-.87c.24-.24,.52-.42,.86-.56,.35-.13,.72-.19,1.14-.19,.47,0,.91,.06,1.29,.22,.4,.13,.74,.33,1.04,.6" style="fill:#a0285a;"/></g></g><rect x="-74.72" y="-1092.93" width="1029.29" height="2324.87" style="fill:none; stroke:#fff; stroke-miterlimit:10; stroke-width:20px;"/></svg>