<?xml version="1.0" encoding="UTF-8"?><svg id="uuid-05510c59-94cf-413f-9736-bf861a72a93c" xmlns="http://www.w3.org/2000/svg" viewBox="0 0 130 240"><rect y="165" width="130" height="1.25" style="fill:#a0285a;"/><g><path d="M25.36,114.06c-2.26-.8-4.59-1.13-7.06-1.13-3.59,0-6.19,.6-7.79,1.8-1.6,1.2-2.4,2.8-2.4,4.8s.6,3.46,1.86,4.53c1.2,.93,3.13,1.67,5.86,2l6.66,.93c4.53,.67,7.99,2.07,10.38,4.2,2.33,2.13,3.53,5,3.53,8.66,0,2-.4,3.8-1.2,5.53-.8,1.6-2,3.06-3.53,4.26-1.6,1.2-3.59,2.13-5.92,2.8-2.33,.73-5.06,1.07-8.19,1.07-3.46,0-6.59-.4-9.45-1.2-2.86-.73-5.52-2.07-8.12-4l3.19-5.4c2.46,1.67,4.86,2.86,7.32,3.6,2.4,.73,4.93,1.07,7.59,1.07,3.86,0,6.79-.67,8.65-2.07,2-1.4,2.93-3.2,2.93-5.46,0-1.87-.67-3.4-1.93-4.53-1.26-1.2-3.4-2-6.39-2.4l-6.99-1c-4.19-.6-7.46-1.87-9.59-3.86-2.26-2-3.33-4.8-3.33-8.46,0-2.07,.4-3.93,1.2-5.53,.87-1.6,2-2.93,3.46-4,1.47-1.07,3.2-1.86,5.33-2.46,2-.53,4.33-.8,6.79-.8,3.06,0,6.06,.4,9.05,1.27,2.93,.87,5.46,2.13,7.66,3.93l-3.46,4.93c-1.8-1.33-3.86-2.4-6.12-3.06" style="fill:#a0285a;"/><path d="M71.29,109c2.06,.8,3.86,1.8,5.33,3.2,1.53,1.33,2.66,2.93,3.53,4.86,.86,1.93,1.26,4,1.26,6.33,0,2.46-.47,4.66-1.33,6.53-.93,2-2.2,3.6-3.79,4.93-1.6,1.4-3.46,2.4-5.66,3.13-2.13,.73-4.39,1.07-6.86,1.07h-11.38v13.52h-6.86v-44.64h18.97c2.46,0,4.73,.4,6.79,1.07m-7.65,24.18c3.39,0,6.06-.87,8.05-2.6,1.93-1.67,2.93-4.06,2.93-7.13s-.93-5.4-2.73-7.13c-1.8-1.67-4.39-2.53-7.79-2.53h-11.72v19.39h11.25Z" style="fill:#a0285a;"/><path d="M130,147.37c-2.33,2-4.99,3.53-8.05,4.53-3.13,1.07-6.46,1.6-9.98,1.6s-6.72-.53-9.58-1.6c-2.86-1.07-5.33-2.6-7.46-4.6-2-2-3.59-4.4-4.79-7.26-1.06-2.87-1.66-6.06-1.66-9.66,0-3.26,.53-6.26,1.66-9.13,1.13-2.87,2.66-5.33,4.79-7.46,2-2.07,4.53-3.73,7.59-4.93,2.93-1.27,6.39-1.86,10.19-1.86,2.99,0,5.92,.47,8.72,1.4,2.79,.93,5.32,2.33,7.52,4.2l-3.59,4.86c-1.66-1.47-3.66-2.6-5.92-3.26-2.2-.8-4.59-1.13-7.06-1.13-2.6,0-4.92,.4-7.05,1.2-2.06,.8-3.86,1.93-5.33,3.46-1.53,1.53-2.66,3.33-3.46,5.4-.86,2.13-1.26,4.53-1.26,7.13,0,2.73,.4,5.13,1.26,7.26,.87,2.13,2,3.93,3.53,5.4,1.53,1.46,3.26,2.6,5.39,3.4,2,.73,4.33,1.13,6.79,1.13,4.59,0,8.32-1.07,11.32-3.13v-9.73l-9.79-.47v-5.46h16.24v18.72Z" style="fill:#a0285a;"/></g><g><path d="M68.86,96.48l55.05-63.73c2.47-2.86,.45-7.32-3.32-7.32H9.4c-3.79,0-5.8,4.5-3.29,7.35l56.14,63.73c1.76,2,4.87,1.98,6.61-.03" style="fill:#a0285a;"/><path d="M66.34,0s-26.81,31.94-26.81,46.84c0,6.21,2.09,11.93,5.6,16.48,0,0,7.22,9.68,19.69,10.43v24.19c.48,.07,.98,.09,1.52-.01V0Z" style="fill:#f5cdcd;"/><path d="M66.34,0s26.81,31.94,26.81,46.84c0,6.21-2.09,11.93-5.6,16.48,0,0-7.8,10.48-21.21,10.48V0Z" style="fill:#b46996;"/></g><g><g><polygon points="11.14 179.58 5.04 179.58 5.04 181.76 10.48 181.76 10.48 184.02 5.04 184.02 5.04 186.49 11.43 186.49 11.43 188.83 2.48 188.83 2.48 177.24 11.14 177.24 11.14 179.58" style="fill:#a0285a;"/><polygon points="25.04 188.83 22.45 188.83 17.1 181.43 17.1 188.83 14.58 188.83 14.58 177.24 16.91 177.24 22.53 185.06 22.53 177.24 25.04 177.24 25.04 188.83" style="fill:#a0285a;"/><g><path d="M32.84,186.49c.54,0,1.02-.09,1.47-.24,.47-.16,.86-.4,1.18-.67,.35-.31,.59-.66,.8-1.09,.17-.43,.28-.92,.28-1.45,0-1.12-.31-1.99-.97-2.58-.62-.59-1.56-.88-2.77-.88h-1.64v6.92h1.66Zm2.65-8.84c.78,.29,1.44,.69,1.97,1.21,.55,.5,.97,1.12,1.26,1.83,.29,.69,.43,1.49,.43,2.33s-.15,1.61-.45,2.33c-.29,.69-.73,1.31-1.28,1.83-.55,.5-1.21,.9-2.01,1.19-.76,.29-1.64,.43-2.59,.43h-4.22v-11.59h4.27c.97,0,1.83,.14,2.61,.42" style="fill:#a0285a;"/><path d="M46.48,179.61c-.43,.19-.81,.47-1.11,.8-.31,.33-.55,.73-.71,1.18-.16,.45-.24,.93-.24,1.45s.09,1,.24,1.47c.16,.45,.4,.85,.71,1.18,.31,.33,.69,.59,1.12,.8,.43,.17,.93,.28,1.49,.28s1.07-.1,1.5-.29c.45-.19,.83-.47,1.14-.81,.29-.33,.52-.73,.69-1.18,.14-.45,.23-.93,.23-1.44,0-.54-.09-1.02-.24-1.47-.16-.47-.4-.86-.71-1.19-.29-.33-.67-.59-1.11-.78-.45-.19-.95-.28-1.5-.28s-1.06,.1-1.51,.29m4.01-2.16c.76,.31,1.42,.74,1.94,1.28,.55,.54,.97,1.18,1.26,1.9,.29,.74,.45,1.54,.45,2.4s-.16,1.61-.45,2.33c-.29,.74-.73,1.38-1.26,1.94-.54,.54-1.19,.97-1.94,1.28-.76,.33-1.59,.48-2.51,.48s-1.73-.16-2.47-.45c-.74-.31-1.4-.74-1.94-1.28-.55-.54-.99-1.18-1.28-1.92-.29-.74-.45-1.54-.45-2.39s.16-1.61,.45-2.35c.29-.74,.73-1.38,1.28-1.92,.54-.54,1.19-.97,1.94-1.28,.74-.33,1.57-.48,2.47-.48s1.75,.16,2.51,.45" style="fill:#a0285a;"/><path d="M63.25,179.56c-.57-.17-1.16-.26-1.76-.26-.76,0-1.3,.1-1.62,.29-.33,.21-.48,.48-.48,.85,0,.33,.12,.59,.36,.74,.24,.17,.62,.3,1.16,.36l1.69,.22c1.26,.17,2.21,.55,2.85,1.18,.62,.59,.93,1.38,.93,2.37,0,.57-.1,1.07-.33,1.54-.22,.47-.54,.86-.95,1.18-.43,.35-.95,.59-1.59,.76-.62,.19-1.33,.28-2.14,.28-.95,0-1.83-.1-2.61-.29-.78-.19-1.56-.54-2.3-1.04l1.09-2.13c.64,.4,1.3,.69,1.94,.86,.64,.17,1.33,.26,2.04,.26,.76,0,1.33-.12,1.71-.35,.36-.23,.55-.54,.55-.93,0-.33-.12-.61-.38-.8-.26-.19-.67-.33-1.26-.41l-1.78-.22c-1.12-.16-2.01-.5-2.63-1.06-.62-.55-.93-1.35-.93-2.4,0-.57,.1-1.09,.35-1.52,.21-.45,.54-.83,.93-1.12,.4-.29,.9-.54,1.45-.67,.59-.17,1.21-.24,1.9-.24,.93,0,1.8,.12,2.58,.36,.78,.24,1.47,.61,2.06,1.11l-1.28,1.85c-.47-.33-.97-.59-1.54-.76" style="fill:#a0285a;"/><path d="M76.77,179.66c-.52-.21-1.11-.29-1.75-.29-.57,0-1.07,.09-1.54,.26-.45,.19-.83,.43-1.16,.76-.33,.35-.57,.73-.74,1.18-.17,.45-.26,.93-.26,1.47s.09,1.06,.26,1.5c.19,.45,.43,.83,.76,1.14,.33,.33,.71,.57,1.16,.76,.45,.17,.95,.26,1.49,.26,.66,0,1.26-.12,1.85-.33,.55-.24,1.07-.55,1.52-.99l1.47,1.82c-1.31,1.24-2.97,1.87-4.98,1.87-.9,0-1.73-.14-2.47-.41-.74-.29-1.38-.69-1.94-1.21-.52-.54-.95-1.16-1.25-1.9-.29-.74-.45-1.56-.45-2.47,0-.83,.14-1.61,.45-2.35,.28-.74,.71-1.38,1.26-1.94,.55-.55,1.23-.99,2.01-1.3,.78-.33,1.68-.48,2.66-.48,.9,0,1.73,.14,2.47,.42,.74,.26,1.42,.66,2.01,1.17l-1.44,1.89c-.4-.36-.86-.64-1.4-.81" style="fill:#a0285a;"/><path d="M86.58,179.61c-.43,.19-.81,.47-1.11,.8-.31,.33-.55,.73-.71,1.18-.16,.45-.24,.93-.24,1.45s.09,1,.24,1.47c.16,.45,.4,.85,.71,1.18,.31,.33,.69,.59,1.12,.8,.43,.17,.93,.28,1.49,.28s1.07-.1,1.5-.29c.45-.19,.83-.47,1.14-.81,.29-.33,.52-.73,.69-1.18,.14-.45,.23-.93,.23-1.44,0-.54-.09-1.02-.24-1.47-.16-.47-.4-.86-.71-1.19-.29-.33-.67-.59-1.11-.78-.45-.19-.95-.28-1.5-.28s-1.06,.1-1.5,.29m4.01-2.16c.76,.31,1.42,.74,1.94,1.28,.55,.54,.97,1.18,1.26,1.9,.29,.74,.45,1.54,.45,2.4s-.16,1.61-.45,2.33c-.29,.74-.73,1.38-1.26,1.94-.54,.54-1.19,.97-1.94,1.28-.76,.33-1.59,.48-2.51,.48s-1.73-.16-2.47-.45c-.74-.31-1.4-.74-1.94-1.28-.55-.54-.99-1.18-1.28-1.92-.29-.74-.45-1.54-.45-2.39s.15-1.61,.45-2.35c.29-.74,.73-1.38,1.28-1.92,.54-.54,1.19-.97,1.94-1.28,.74-.33,1.57-.48,2.47-.48s1.75,.16,2.51,.45" style="fill:#a0285a;"/><path d="M102.22,183.37c.69,0,1.23-.17,1.62-.52,.4-.35,.59-.81,.59-1.4s-.17-1.04-.52-1.37c-.36-.35-.88-.52-1.59-.52h-2.46v3.8h2.35Zm2.09-5.81c.57,.19,1.05,.48,1.47,.83,.4,.38,.71,.81,.93,1.31,.22,.52,.33,1.09,.33,1.73,0,.67-.12,1.26-.36,1.8-.26,.52-.59,.97-1.04,1.32-.41,.38-.93,.66-1.52,.83-.59,.21-1.23,.29-1.9,.29h-2.35v3.16h-2.59v-11.59h5.15c.69,0,1.32,.1,1.89,.31" style="fill:#a0285a;"/></g><rect x="110.09" y="177.24" width="2.61" height="11.59" style="fill:#a0285a;"/><path d="M123.39,184.25l-1.54-4.41h-.17l-1.56,4.41h3.27Zm4.6,4.58h-2.87l-.88-2.3h-4.96l-.86,2.3h-2.82l4.76-11.6h2.85l4.79,11.6Z" style="fill:#a0285a;"/></g><g><path d="M11.41,205.66c-.55,.45-1.18,.78-1.87,.99-.67,.21-1.4,.31-2.18,.31s-1.52-.12-2.18-.36c-.66-.24-1.22-.58-1.69-1.03-.46-.45-.84-.99-1.09-1.63-.25-.64-.39-1.36-.39-2.17,0-.72,.12-1.39,.39-2.02,.24-.64,.61-1.19,1.08-1.67,.48-.48,1.06-.85,1.73-1.14,.67-.28,1.45-.42,2.3-.42,.75,0,1.43,.12,2.09,.34,.63,.22,1.21,.57,1.72,1.03l-1.25,1.61c-.34-.31-.73-.55-1.18-.72-.43-.15-.93-.22-1.45-.22-.48,0-.91,.08-1.3,.22-.4,.15-.73,.36-1.02,.63-.28,.28-.49,.61-.66,1.02-.15,.39-.22,.82-.22,1.3s.08,.94,.24,1.33c.16,.39,.37,.72,.67,.99,.27,.28,.61,.49,1,.63,.39,.15,.81,.22,1.27,.22,.72,0,1.33-.13,1.85-.39v-1.52l-1.76-.1v-1.87h3.9v4.63Z" style="fill:#a0285a;"/><rect x="14.23" y="196.74" width="2.25" height="10.01" style="fill:#a0285a;"/><polygon points="26.44 196.74 26.44 203.49 21.59 196.74 19.57 196.74 19.57 206.75 21.75 206.75 21.75 200.36 26.37 206.75 28.61 206.75 28.61 196.74 26.44 196.74" style="fill:#a0285a;"/><polygon points="31.68 196.74 31.68 206.75 39.42 206.75 39.42 204.73 33.89 204.73 33.89 202.6 38.6 202.6 38.6 200.64 33.89 200.64 33.89 198.76 39.17 198.76 39.17 196.74 31.68 196.74" style="fill:#a0285a;"/><g><path d="M48.47,198.83c-.45-.18-.96-.25-1.51-.25-.49,0-.93,.07-1.33,.22-.39,.16-.72,.37-1,.66-.28,.3-.49,.63-.64,1.02-.15,.39-.22,.81-.22,1.27s.08,.91,.22,1.3c.16,.39,.37,.72,.66,.99,.28,.28,.61,.49,1,.66,.39,.15,.82,.22,1.28,.22,.57,0,1.09-.11,1.6-.28,.48-.21,.93-.48,1.32-.85l1.27,1.57c-1.13,1.08-2.57,1.61-4.3,1.61-.78,0-1.49-.12-2.14-.36-.64-.25-1.19-.6-1.67-1.05-.45-.46-.82-1-1.08-1.64-.25-.64-.39-1.34-.39-2.14,0-.72,.12-1.39,.39-2.03,.24-.64,.61-1.19,1.09-1.67,.48-.48,1.06-.85,1.73-1.12,.67-.28,1.45-.42,2.3-.42,.78,0,1.49,.12,2.14,.36,.64,.22,1.22,.57,1.73,1.02l-1.24,1.63c-.34-.31-.75-.55-1.21-.7" style="fill:#a0285a;"/><path d="M56.93,198.79c-.37,.16-.7,.4-.96,.69-.27,.28-.48,.63-.61,1.02-.13,.39-.21,.81-.21,1.26s.08,.87,.21,1.27c.13,.39,.34,.73,.61,1.02,.27,.28,.6,.51,.97,.69,.37,.15,.81,.24,1.28,.24s.93-.09,1.3-.25c.39-.16,.72-.4,.99-.7,.25-.28,.45-.63,.6-1.02,.12-.39,.19-.81,.19-1.24,0-.46-.07-.88-.21-1.27-.13-.4-.34-.75-.61-1.03-.25-.28-.58-.51-.96-.67-.39-.16-.82-.24-1.3-.24s-.91,.09-1.3,.25m3.46-1.87c.66,.27,1.22,.64,1.67,1.1,.48,.46,.84,1.02,1.09,1.64,.25,.64,.39,1.33,.39,2.08s-.13,1.39-.39,2.02c-.25,.64-.63,1.2-1.09,1.67-.46,.46-1.03,.84-1.67,1.1-.66,.28-1.37,.42-2.17,.42s-1.49-.13-2.14-.39c-.64-.27-1.21-.64-1.67-1.1-.48-.46-.85-1.02-1.1-1.66s-.39-1.33-.39-2.06,.13-1.39,.39-2.03c.25-.64,.63-1.19,1.1-1.66,.46-.46,1.03-.84,1.67-1.1,.64-.28,1.36-.42,2.14-.42s1.51,.13,2.17,.39" style="fill:#a0285a;"/></g><polygon points="66.18 196.74 66.18 206.75 73.82 206.75 73.82 204.7 68.42 204.7 68.42 196.74 66.18 196.74" style="fill:#a0285a;"/><g><path d="M82.07,195.4h-2l1.42-3.27,1.87,.91-1.28,2.36Zm-2.46,3.39c-.37,.16-.7,.4-.96,.69-.27,.28-.48,.63-.61,1.02-.13,.39-.21,.81-.21,1.26s.08,.87,.21,1.27c.13,.39,.34,.73,.61,1.02,.27,.28,.6,.51,.97,.69,.37,.15,.81,.24,1.28,.24s.93-.09,1.3-.25c.39-.16,.72-.4,.99-.7,.25-.28,.45-.63,.6-1.02,.12-.39,.19-.81,.19-1.24,0-.46-.07-.88-.21-1.27-.13-.4-.34-.75-.61-1.03-.25-.28-.58-.51-.96-.67-.39-.16-.82-.24-1.3-.24s-.91,.09-1.3,.25m3.46-1.87c.66,.27,1.22,.64,1.67,1.1,.48,.46,.84,1.02,1.09,1.64,.25,.64,.39,1.33,.39,2.08s-.13,1.39-.39,2.02c-.25,.64-.63,1.2-1.09,1.67-.46,.46-1.03,.84-1.67,1.1-.66,.28-1.37,.42-2.17,.42s-1.49-.13-2.13-.39c-.64-.27-1.21-.64-1.67-1.1-.48-.46-.85-1.02-1.1-1.66-.25-.64-.39-1.33-.39-2.06s.13-1.39,.39-2.03c.25-.64,.63-1.19,1.1-1.66,.46-.46,1.03-.84,1.67-1.1,.64-.28,1.36-.42,2.13-.42s1.51,.13,2.17,.39" style="fill:#a0285a;"/><path d="M97.94,205.66c-.55,.45-1.18,.78-1.87,.99-.67,.21-1.4,.31-2.18,.31s-1.52-.12-2.18-.36c-.66-.24-1.22-.58-1.69-1.03-.46-.45-.84-.99-1.09-1.63-.25-.64-.39-1.36-.39-2.17,0-.72,.12-1.39,.39-2.02,.24-.64,.61-1.19,1.08-1.67,.48-.48,1.06-.85,1.73-1.14,.67-.28,1.45-.42,2.3-.42,.75,0,1.43,.12,2.09,.34,.63,.22,1.21,.57,1.72,1.03l-1.25,1.61c-.34-.31-.73-.55-1.18-.72-.43-.15-.93-.22-1.45-.22-.48,0-.91,.08-1.3,.22-.4,.15-.73,.36-1.02,.63-.28,.28-.49,.61-.66,1.02-.15,.39-.22,.82-.22,1.3s.08,.94,.24,1.33c.16,.39,.37,.72,.67,.99,.27,.28,.61,.49,1,.63,.39,.15,.81,.22,1.27,.22,.72,0,1.33-.13,1.85-.39v-1.52l-1.76-.1v-1.87h3.9v4.63Z" style="fill:#a0285a;"/></g><rect x="100.76" y="196.74" width="2.26" height="10.01" style="fill:#a0285a;"/><path d="M112.59,198.83c-.45-.18-.96-.25-1.51-.25-.49,0-.93,.07-1.33,.22-.39,.16-.72,.37-1,.66-.28,.3-.49,.63-.64,1.02-.15,.39-.22,.81-.22,1.27s.08,.91,.22,1.3c.16,.39,.37,.72,.66,.99,.28,.28,.61,.49,1,.66,.39,.15,.82,.22,1.28,.22,.57,0,1.09-.11,1.6-.28,.48-.21,.93-.48,1.32-.85l1.27,1.57c-1.13,1.08-2.57,1.61-4.3,1.61-.78,0-1.49-.12-2.14-.36-.64-.25-1.19-.6-1.67-1.05-.45-.46-.82-1-1.08-1.64-.25-.64-.39-1.34-.39-2.14,0-.72,.12-1.39,.39-2.03,.24-.64,.61-1.19,1.09-1.67,.48-.48,1.06-.85,1.73-1.12,.67-.28,1.45-.42,2.3-.42,.78,0,1.49,.12,2.14,.36,.64,.22,1.22,.57,1.73,1.02l-1.24,1.63c-.34-.31-.75-.55-1.21-.7" style="fill:#a0285a;"/><path d="M122.46,198.98h.15l1.33,3.81h-2.82l1.34-3.81Zm-1.15-2.25l-4.11,10.02h2.43l.75-1.99h4.28l.76,1.99h2.48l-4.14-10.02h-2.46Z" style="fill:#a0285a;"/></g></g><rect x="-74.72" y="-692.93" width="1029.29" height="2324.87" style="fill:none; stroke:#fff; stroke-miterlimit:10; stroke-width:20px;"/></svg>