<?xml version="1.0" encoding="UTF-8"?><svg id="uuid-8af89395-d737-4365-84ed-d98d74ef4466" xmlns="http://www.w3.org/2000/svg" viewBox="0 0 130 240"><g><path d="M68.86,96.48l55.05-63.73c2.47-2.86,.45-7.32-3.32-7.32H9.4c-3.79,0-5.8,4.5-3.29,7.35l56.14,63.73c1.76,2,4.87,1.98,6.61-.03" style="fill:#a0285a;"/><path d="M66.34,0s-26.81,31.94-26.81,46.84c0,6.21,2.09,11.93,5.6,16.48,0,0,7.22,9.68,19.69,10.43v24.19c.48,.07,.98,.09,1.52-.01V0Z" style="fill:#f5cdcd;"/><path d="M66.34,0s26.81,31.94,26.81,46.84c0,6.21-2.09,11.93-5.6,16.48,0,0-7.8,10.48-21.21,10.48V0Z" style="fill:#b46996;"/></g><rect x="-74.72" y="-1892.93" width="1029.29" height="2324.87" style="fill:none; stroke:#fff; stroke-miterlimit:10; stroke-width:20px;"/><g><rect y="165" width="130" height="1.25" style="fill:#a0285a;"/><g><path d="M25.36,114.06c-2.26-.8-4.59-1.13-7.06-1.13-3.59,0-6.19,.6-7.79,1.8-1.6,1.2-2.4,2.8-2.4,4.8s.6,3.46,1.86,4.53c1.2,.93,3.13,1.67,5.86,2l6.66,.93c4.53,.67,7.99,2.07,10.38,4.2,2.33,2.13,3.53,5,3.53,8.66,0,2-.4,3.8-1.2,5.53-.8,1.6-2,3.06-3.53,4.26-1.6,1.2-3.59,2.13-5.92,2.8-2.33,.73-5.06,1.07-8.19,1.07-3.46,0-6.59-.4-9.45-1.2-2.86-.73-5.52-2.07-8.12-4l3.19-5.4c2.46,1.67,4.86,2.86,7.32,3.6,2.4,.73,4.93,1.07,7.59,1.07,3.86,0,6.79-.67,8.65-2.07,2-1.4,2.93-3.2,2.93-5.46,0-1.87-.67-3.4-1.93-4.53-1.26-1.2-3.4-2-6.39-2.4l-6.99-1c-4.19-.6-7.46-1.87-9.59-3.86-2.26-2-3.33-4.8-3.33-8.46,0-2.07,.4-3.93,1.2-5.53,.87-1.6,2-2.93,3.46-4,1.47-1.07,3.2-1.86,5.33-2.46,2-.53,4.33-.8,6.79-.8,3.06,0,6.06,.4,9.05,1.27,2.93,.87,5.46,2.13,7.66,3.93l-3.46,4.93c-1.8-1.33-3.86-2.4-6.12-3.06" style="fill:#a0285a;"/><path d="M71.29,109c2.06,.8,3.86,1.8,5.33,3.2,1.53,1.33,2.66,2.93,3.53,4.86,.86,1.93,1.26,4,1.26,6.33,0,2.46-.47,4.66-1.33,6.53-.93,2-2.2,3.6-3.79,4.93-1.6,1.4-3.46,2.4-5.66,3.13-2.13,.73-4.39,1.07-6.86,1.07h-11.38v13.52h-6.86v-44.64h18.97c2.46,0,4.73,.4,6.79,1.07m-7.65,24.18c3.39,0,6.06-.87,8.05-2.6,1.93-1.67,2.93-4.06,2.93-7.13s-.93-5.4-2.73-7.13c-1.8-1.67-4.39-2.53-7.79-2.53h-11.72v19.39h11.25Z" style="fill:#a0285a;"/><path d="M130,147.37c-2.33,2-4.99,3.53-8.05,4.53-3.13,1.07-6.46,1.6-9.98,1.6s-6.72-.53-9.58-1.6c-2.86-1.07-5.33-2.6-7.46-4.6-2-2-3.59-4.4-4.79-7.26-1.06-2.87-1.66-6.06-1.66-9.66,0-3.26,.53-6.26,1.66-9.13,1.13-2.87,2.66-5.33,4.79-7.46,2-2.07,4.53-3.73,7.59-4.93,2.93-1.27,6.39-1.86,10.19-1.86,2.99,0,5.92,.47,8.72,1.4,2.79,.93,5.32,2.33,7.52,4.2l-3.59,4.86c-1.66-1.47-3.66-2.6-5.92-3.26-2.2-.8-4.59-1.13-7.06-1.13-2.6,0-4.92,.4-7.05,1.2-2.06,.8-3.86,1.93-5.33,3.46-1.53,1.53-2.66,3.33-3.46,5.4-.86,2.13-1.26,4.53-1.26,7.13,0,2.73,.4,5.13,1.26,7.26,.87,2.13,2,3.93,3.53,5.4,1.53,1.46,3.26,2.6,5.39,3.4,2,.73,4.33,1.13,6.79,1.13,4.59,0,8.32-1.07,11.32-3.13v-9.73l-9.79-.47v-5.46h16.24v18.72Z" style="fill:#a0285a;"/></g><g><g><path d="M18.75,192.72c.65,.27,1.22,.64,1.66,1.1,.47,.46,.83,1.01,1.08,1.63,.25,.64,.39,1.32,.39,2.06s-.13,1.38-.39,2c-.25,.64-.62,1.19-1.08,1.66-.46,.46-1.02,.83-1.66,1.1-.65,.28-1.36,.42-2.15,.42s-1.48-.13-2.12-.39c-.64-.27-1.2-.64-1.66-1.1-.47-.46-.85-1.01-1.1-1.65-.25-.64-.38-1.32-.38-2.05s.13-1.38,.38-2.02c.25-.64,.62-1.19,1.1-1.65,.46-.46,1.02-.83,1.66-1.1,.64-.28,1.35-.41,2.12-.41s1.5,.13,2.15,.39Zm-3.44,1.85c-.37,.16-.7,.4-.95,.68-.27,.28-.47,.62-.61,1.01-.13,.39-.21,.8-.21,1.25s.07,.86,.21,1.26c.13,.39,.34,.73,.61,1.01,.27,.28,.59,.5,.96,.68,.37,.15,.8,.24,1.28,.24s.92-.09,1.29-.25c.39-.16,.71-.4,.98-.7,.25-.28,.44-.62,.59-1.01,.12-.39,.19-.8,.19-1.23,0-.46-.07-.88-.21-1.26-.13-.4-.34-.74-.61-1.02-.25-.28-.58-.5-.95-.67-.39-.16-.82-.24-1.29-.24s-.91,.09-1.29,.25Z" style="fill:#a0285a;"/><path d="M33.12,202.48h-2.23l-4.58-6.35v6.35h-2.17v-9.94h2l4.82,6.71v-6.71h2.15v9.94Z" style="fill:#a0285a;"/><path d="M42.26,194.62c-.44-.18-.95-.25-1.5-.25-.49,0-.92,.07-1.32,.22-.39,.16-.71,.37-.99,.65-.28,.3-.49,.62-.64,1.01-.15,.39-.22,.8-.22,1.26s.07,.91,.22,1.29c.16,.39,.37,.71,.65,.98,.28,.28,.61,.49,.99,.65,.39,.15,.82,.22,1.28,.22,.56,0,1.08-.1,1.59-.28,.47-.21,.92-.47,1.31-.85l1.26,1.56c-1.13,1.07-2.55,1.6-4.27,1.6-.77,0-1.48-.12-2.12-.36-.64-.25-1.19-.59-1.66-1.04-.44-.46-.82-.99-1.07-1.63-.25-.64-.39-1.34-.39-2.12,0-.71,.12-1.38,.39-2.02,.24-.64,.61-1.19,1.08-1.66s1.05-.85,1.72-1.11c.67-.28,1.44-.41,2.28-.41,.77,0,1.48,.12,2.12,.36,.64,.22,1.22,.56,1.72,1.01l-1.23,1.62c-.34-.31-.74-.55-1.2-.7Z" style="fill:#a0285a;"/><path d="M53.77,192.72c.65,.27,1.22,.64,1.66,1.1,.47,.46,.83,1.01,1.08,1.63,.25,.64,.39,1.32,.39,2.06s-.13,1.38-.39,2c-.25,.64-.62,1.19-1.08,1.66-.46,.46-1.02,.83-1.66,1.1-.65,.28-1.36,.42-2.15,.42s-1.48-.13-2.12-.39c-.64-.27-1.2-.64-1.66-1.1-.47-.46-.85-1.01-1.1-1.65-.25-.64-.39-1.32-.39-2.05s.13-1.38,.39-2.02c.25-.64,.62-1.19,1.1-1.65,.46-.46,1.02-.83,1.66-1.1,.64-.28,1.35-.41,2.12-.41s1.5,.13,2.15,.39Zm-3.44,1.85c-.37,.16-.7,.4-.95,.68-.27,.28-.47,.62-.61,1.01-.13,.39-.21,.8-.21,1.25s.07,.86,.21,1.26c.13,.39,.34,.73,.61,1.01,.27,.28,.59,.5,.96,.68,.37,.15,.8,.24,1.28,.24s.92-.09,1.29-.25c.39-.16,.71-.4,.98-.7,.25-.28,.44-.62,.59-1.01,.12-.39,.19-.8,.19-1.23,0-.46-.07-.88-.21-1.26-.13-.4-.34-.74-.61-1.02-.25-.28-.58-.5-.95-.67-.38-.16-.82-.24-1.29-.24s-.91,.09-1.29,.25Z" style="fill:#a0285a;"/><path d="M61.39,200.45h5.37v2.03h-7.6v-9.94h2.22v7.91Z" style="fill:#a0285a;"/><path d="M75.6,192.72c.65,.27,1.22,.64,1.66,1.1,.47,.46,.83,1.01,1.08,1.63,.25,.64,.39,1.32,.39,2.06s-.13,1.38-.39,2c-.25,.64-.62,1.19-1.08,1.66-.46,.46-1.02,.83-1.66,1.1-.65,.28-1.36,.42-2.15,.42s-1.48-.13-2.12-.39c-.64-.27-1.2-.64-1.66-1.1-.47-.46-.85-1.01-1.1-1.65-.25-.64-.38-1.32-.38-2.05s.13-1.38,.38-2.02c.25-.64,.62-1.19,1.1-1.65,.46-.46,1.02-.83,1.66-1.1,.64-.28,1.35-.41,2.12-.41s1.5,.13,2.15,.39Zm-3.44,1.85c-.37,.16-.7,.4-.95,.68-.27,.28-.47,.62-.61,1.01-.13,.39-.21,.8-.21,1.25s.07,.86,.21,1.26c.13,.39,.34,.73,.61,1.01,.27,.28,.59,.5,.96,.68,.37,.15,.8,.24,1.28,.24s.92-.09,1.29-.25c.39-.16,.71-.4,.98-.7,.25-.28,.44-.62,.59-1.01,.12-.39,.19-.8,.19-1.23,0-.46-.07-.88-.21-1.26-.13-.4-.34-.74-.61-1.02-.25-.28-.58-.5-.95-.67-.39-.16-.82-.24-1.29-.24s-.91,.09-1.29,.25Zm2.45-3.37h-1.99l1.41-3.25,1.85,.91-1.28,2.34Z" style="fill:#a0285a;"/><path d="M90.03,201.4c-.55,.44-1.17,.77-1.85,.98-.67,.21-1.4,.31-2.17,.31s-1.51-.12-2.17-.36c-.65-.24-1.22-.58-1.68-1.02-.46-.44-.83-.98-1.08-1.62-.25-.64-.39-1.35-.39-2.15,0-.71,.12-1.38,.39-2,.24-.64,.61-1.19,1.07-1.66,.47-.47,1.05-.85,1.72-1.13,.67-.28,1.44-.41,2.28-.41,.74,0,1.42,.12,2.08,.34,.62,.22,1.2,.56,1.71,1.02l-1.25,1.6c-.34-.31-.73-.55-1.17-.71-.43-.15-.92-.22-1.44-.22-.47,0-.91,.07-1.29,.22-.4,.15-.73,.36-1.01,.62-.28,.28-.49,.61-.65,1.01-.15,.39-.22,.82-.22,1.29s.07,.93,.24,1.32,.37,.71,.67,.98c.27,.28,.61,.49,.99,.62,.39,.15,.8,.22,1.26,.22,.71,0,1.32-.13,1.84-.39v-1.51l-1.75-.1v-1.85h3.87v4.6Z" style="fill:#a0285a;"/><path d="M94.72,202.48h-2.24v-9.94h2.24v9.94Z" style="fill:#a0285a;"/><path d="M103.89,194.62c-.44-.18-.95-.25-1.5-.25-.49,0-.92,.07-1.32,.22-.39,.16-.71,.37-.99,.65-.28,.3-.49,.62-.64,1.01-.15,.39-.22,.8-.22,1.26s.07,.91,.22,1.29c.16,.39,.37,.71,.65,.98,.28,.28,.61,.49,.99,.65,.39,.15,.82,.22,1.28,.22,.56,0,1.08-.1,1.59-.28,.47-.21,.92-.47,1.31-.85l1.26,1.56c-1.13,1.07-2.55,1.6-4.27,1.6-.77,0-1.48-.12-2.12-.36-.64-.25-1.19-.59-1.66-1.04-.44-.46-.82-.99-1.07-1.63-.25-.64-.39-1.34-.39-2.12,0-.71,.12-1.38,.39-2.02,.24-.64,.61-1.19,1.08-1.66s1.05-.85,1.72-1.11c.67-.28,1.44-.41,2.28-.41,.77,0,1.48,.12,2.12,.36,.64,.22,1.22,.56,1.72,1.01l-1.23,1.62c-.34-.31-.74-.55-1.2-.7Z" style="fill:#a0285a;"/><path d="M118.77,202.48h-2.46l-.76-1.97h-4.26l-.74,1.97h-2.42l4.08-9.96h2.45l4.11,9.96Zm-3.95-3.93l-1.32-3.78h-.15l-1.34,3.78h2.8Z" style="fill:#a0285a;"/></g><g><path d="M19.33,186.06c-.55,.44-1.17,.77-1.85,.98-.67,.21-1.4,.31-2.17,.31s-1.51-.12-2.17-.36c-.65-.24-1.22-.58-1.68-1.02-.46-.44-.83-.98-1.08-1.62-.25-.64-.38-1.35-.38-2.15,0-.71,.12-1.38,.38-2,.24-.64,.61-1.19,1.07-1.66,.47-.47,1.05-.85,1.72-1.13,.67-.28,1.44-.41,2.28-.41,.74,0,1.42,.12,2.08,.34,.62,.22,1.2,.56,1.71,1.02l-1.25,1.6c-.34-.31-.73-.55-1.17-.71-.43-.15-.92-.22-1.44-.22-.47,0-.91,.07-1.29,.22-.4,.15-.73,.36-1.01,.62-.28,.28-.49,.61-.65,1.01-.15,.39-.22,.82-.22,1.29s.07,.93,.24,1.32,.37,.71,.67,.98c.27,.28,.61,.49,.99,.62,.39,.15,.8,.22,1.26,.22,.71,0,1.32-.13,1.84-.39v-1.51l-1.75-.1v-1.85h3.87v4.6Z" style="fill:#a0285a;"/><path d="M24.03,187.15h-2.24v-9.94h2.24v9.94Z" style="fill:#a0285a;"/><path d="M35.73,187.15h-2.23l-4.58-6.35v6.35h-2.17v-9.94h2l4.82,6.71v-6.71h2.15v9.94Z" style="fill:#a0285a;"/><path d="M45.87,179.21h-5.24v1.87h4.67v1.94h-4.67v2.12h5.49v2h-7.69v-9.94h7.43v2Z" style="fill:#a0285a;"/><path d="M54.77,179.28c-.44-.18-.95-.25-1.5-.25-.49,0-.92,.07-1.32,.22-.39,.16-.71,.37-.99,.65-.28,.3-.49,.62-.64,1.01-.15,.39-.22,.8-.22,1.26s.07,.91,.22,1.29c.16,.39,.37,.71,.65,.98,.28,.28,.61,.49,.99,.65,.39,.15,.82,.22,1.28,.22,.56,0,1.08-.1,1.59-.28,.47-.21,.92-.47,1.31-.85l1.26,1.56c-1.13,1.07-2.55,1.6-4.27,1.6-.77,0-1.48-.12-2.12-.36-.64-.25-1.19-.59-1.66-1.04-.44-.46-.82-.99-1.07-1.63-.25-.64-.38-1.34-.38-2.12,0-.71,.12-1.38,.38-2.02,.24-.64,.61-1.19,1.08-1.66s1.05-.85,1.72-1.11c.67-.28,1.44-.41,2.28-.41,.77,0,1.48,.12,2.12,.36,.64,.22,1.22,.56,1.72,1.01l-1.23,1.62c-.34-.31-.74-.55-1.2-.7Z" style="fill:#a0285a;"/><path d="M66.28,177.39c.65,.27,1.22,.64,1.66,1.1,.47,.46,.83,1.01,1.08,1.63,.25,.64,.39,1.32,.39,2.06s-.13,1.38-.39,2c-.25,.64-.62,1.19-1.08,1.66-.46,.46-1.02,.83-1.66,1.1-.65,.28-1.36,.42-2.15,.42s-1.48-.13-2.12-.39c-.64-.27-1.2-.64-1.66-1.1-.47-.46-.85-1.01-1.1-1.65-.25-.64-.39-1.32-.39-2.05s.13-1.38,.39-2.02c.25-.64,.62-1.19,1.1-1.65,.46-.46,1.02-.83,1.66-1.1,.64-.28,1.35-.41,2.12-.41s1.5,.13,2.15,.39Zm-3.44,1.85c-.37,.16-.7,.4-.95,.68-.27,.28-.47,.62-.61,1.01-.13,.39-.21,.8-.21,1.25s.07,.86,.21,1.26c.13,.39,.34,.73,.61,1.01,.27,.28,.59,.5,.96,.68,.37,.15,.8,.24,1.28,.24s.92-.09,1.29-.25c.39-.16,.71-.4,.98-.7,.25-.28,.44-.62,.59-1.01,.12-.39,.19-.8,.19-1.23,0-.46-.07-.88-.21-1.26-.13-.4-.34-.74-.61-1.02-.25-.28-.58-.5-.95-.67-.38-.16-.82-.24-1.29-.24s-.91,.09-1.29,.25Z" style="fill:#a0285a;"/><path d="M73.89,185.12h5.37v2.03h-7.6v-9.94h2.22v7.91Z" style="fill:#a0285a;"/><path d="M88.1,177.39c.65,.27,1.22,.64,1.66,1.1,.47,.46,.83,1.01,1.08,1.63,.25,.64,.39,1.32,.39,2.06s-.13,1.38-.39,2c-.25,.64-.62,1.19-1.08,1.66-.46,.46-1.02,.83-1.66,1.1-.65,.28-1.36,.42-2.15,.42s-1.48-.13-2.12-.39c-.64-.27-1.2-.64-1.66-1.1-.47-.46-.85-1.01-1.1-1.65-.25-.64-.39-1.32-.39-2.05s.13-1.38,.39-2.02c.25-.64,.62-1.19,1.1-1.65,.46-.46,1.02-.83,1.66-1.1,.64-.28,1.35-.41,2.12-.41s1.5,.13,2.15,.39Zm-3.44,1.85c-.37,.16-.7,.4-.95,.68-.27,.28-.47,.62-.61,1.01-.13,.39-.21,.8-.21,1.25s.07,.86,.21,1.26c.13,.39,.34,.73,.61,1.01,.27,.28,.59,.5,.96,.68,.37,.15,.8,.24,1.28,.24s.92-.09,1.29-.25c.39-.16,.71-.4,.98-.7,.25-.28,.44-.62,.59-1.01,.12-.39,.19-.8,.19-1.23,0-.46-.07-.88-.21-1.26-.13-.4-.34-.74-.61-1.02-.25-.28-.58-.5-.95-.67-.38-.16-.82-.24-1.29-.24s-.91,.09-1.29,.25Z" style="fill:#a0285a;"/><path d="M102.53,186.06c-.55,.44-1.17,.77-1.85,.98-.67,.21-1.4,.31-2.17,.31s-1.51-.12-2.17-.36c-.65-.24-1.22-.58-1.68-1.02-.46-.44-.83-.98-1.08-1.62-.25-.64-.39-1.35-.39-2.15,0-.71,.12-1.38,.39-2,.24-.64,.61-1.19,1.07-1.66,.47-.47,1.05-.85,1.72-1.13,.67-.28,1.44-.41,2.28-.41,.74,0,1.42,.12,2.08,.34,.62,.22,1.2,.56,1.71,1.02l-1.25,1.6c-.34-.31-.73-.55-1.17-.71-.43-.15-.92-.22-1.44-.22-.47,0-.91,.07-1.29,.22-.4,.15-.73,.36-1.01,.62-.28,.28-.49,.61-.65,1.01-.15,.39-.22,.82-.22,1.29s.07,.93,.24,1.32,.37,.71,.67,.98c.27,.28,.61,.49,.99,.62,.39,.15,.8,.22,1.26,.22,.71,0,1.32-.13,1.84-.39v-1.51l-1.75-.1v-1.85h3.87v4.6Z" style="fill:#a0285a;"/><path d="M107.23,187.15h-2.24v-9.94h2.24v9.94Z" style="fill:#a0285a;"/><path d="M120,187.15h-2.46l-.76-1.97h-4.26l-.74,1.97h-2.42l4.08-9.96h2.45l4.11,9.96Zm-3.95-3.93l-1.32-3.78h-.15l-1.34,3.78h2.8Z" style="fill:#a0285a;"/></g></g></g></svg>