<?xml version="1.0" encoding="UTF-8"?>
<svg width="270px" height="115px" viewBox="0 0 270 115" version="1.1" xmlns="http://www.w3.org/2000/svg" xmlns:xlink="http://www.w3.org/1999/xlink">
    <title>Group 32</title>
    <defs>
        <polygon id="path-1" points="0 115 270 115 270 0 0 0"></polygon>
    </defs>
    <g id="WEBSITE" stroke="none" stroke-width="1" fill="none" fill-rule="evenodd">
        <g id="Client-›-Jodel-Copy" transform="translate(-115.000000, -1041.000000)">
            <g id="Group-32" transform="translate(115.000000, 1041.000000)">
                <polygon id="Fill-1" fill="#3646B3" points="16.3489981 27 16.3489981 16.8599735 6.65100188 16.8599735 6.65100188 27 1 27 1 1 6.65100188 1 6.65100188 12.2913376 16.3489981 12.2913376 16.3489981 1 22 1 22 27"></polygon>
                <polygon id="Fill-2" fill="#3646B3" points="41.0209057 7 47 7 34.8959925 35 29.4267434 35 33.692466 24.6170571 26 7 32.1249132 7 36.5729094 19.032049"></polygon>
                <g id="Group-31">
                    <path d="M58.0188319,22.9879494 C60.7101645,22.9879494 62.9586462,21.2561374 62.9586462,17.8304017 C62.9586462,14.3304681 60.8576059,12.1939877 57.8713905,12.1939877 C54.8483148,12.1939877 53.1527384,14.625155 53.1527384,17.5357148 C53.1527384,20.5562559 54.9957562,22.9879494 58.0188319,22.9879494 L58.0188319,22.9879494 Z M68.3039244,25.7143298 C68.3039244,33.1557013 63.4378308,36.0662611 58.0556923,36.0662611 C53.8530852,36.0662611 51.0148378,34.9974947 49.0975727,33.4503883 L51.2728602,29.1769014 C52.3786709,30.134634 54.8483148,31.3133817 56.9498816,31.3133817 C59.788129,31.3133817 62.8112048,30.4661568 62.8112048,26.3405396 L62.8112048,24.2772048 C61.4473716,26.230032 59.6412142,27.4456156 56.8761609,27.4456156 C51.1254188,27.4456156 47.6600188,23.0247853 47.6600188,17.4988789 C47.6600188,12.1939877 50.8668698,7.73632154 56.7655798,7.73632154 C59.3089444,7.73632154 61.5210923,8.98874104 62.8112048,10.720553 L62.8112048,8.14151608 L68.3039244,8.14151608 L68.3039244,25.7143298 Z" id="Fill-3" fill="#3646B3"></path>
                    <mask id="mask-2" fill="white">
                        <use xlink:href="#path-1"></use>
                    </mask>
                    <g id="Clip-6"></g>
                    <path d="M73.1304193,27.0406842 L78.6231389,27.0406842 L78.6231389,8.1417792 L73.1304193,8.1417792 L73.1304193,27.0406842 Z M75.932333,0 C77.8859318,0 79.4345933,1.28925537 79.4345933,3.13157497 C79.4345933,4.93653249 77.8859318,6.18895199 75.932333,6.18895199 C73.9413472,6.18895199 72.4669329,4.93653249 72.4669329,3.13157497 C72.4669329,1.28925537 73.9413472,0 75.932333,0 L75.932333,0 Z" id="Fill-5" fill="#3646B3" mask="url(#mask-2)"></path>
                    <path d="M87.8012096,15.5462622 L97.2753742,15.5462622 C96.9067706,13.1145687 94.4366002,12.193672 92.5935824,12.193672 C90.8237587,12.193672 88.464696,13.0040611 87.8012096,15.5462622 L87.8012096,15.5462622 Z M101.883445,23.7248773 C99.1921127,26.6717467 95.6161316,27.4452999 93.072767,27.4452999 C86.0682463,27.4452999 82.2347693,23.0613054 82.2347693,17.6832687 C82.2347693,12.1200003 86.5842912,7.7360058 92.6673031,7.7360058 C97.9020002,7.7360058 102.915535,11.3464471 102.915535,18.8620165 L87.6906285,18.8620165 C87.8012096,21.219512 89.9759706,22.9507978 93.4782309,22.9507978 C95.4318298,22.9507978 97.3859552,21.9562294 98.712928,20.7038099 L101.883445,23.7248773 Z" id="Fill-7" fill="#3646B3" mask="url(#mask-2)"></path>
                    <path d="M106.120069,8.1415687 L111.612789,8.1415687 L111.612789,10.7200794 C113.197784,8.50992738 115.18877,7.73584793 117.474112,7.73584793 C122.783056,7.73584793 124.22061,11.9730252 124.22061,16.761688 L124.22061,27.0404737 L118.727364,27.0404737 L118.727364,16.8727218 C118.727364,14.256849 117.768995,12.2677121 115.22563,12.2677121 C112.681739,12.2677121 111.612789,14.2936848 111.612789,16.9095576 L111.612789,27.0404737 L106.120069,27.0404737 L106.120069,8.1415687 Z" id="Fill-8" fill="#3646B3" mask="url(#mask-2)"></path>
                    <path d="M133.102008,15.5462622 L142.576172,15.5462622 C142.207569,13.1145687 139.737398,12.193672 137.89438,12.193672 C136.124557,12.193672 133.765494,13.0040611 133.102008,15.5462622 L133.102008,15.5462622 Z M147.184243,23.7248773 C144.492911,26.6717467 140.91693,27.4452999 138.373565,27.4452999 C131.369044,27.4452999 127.535567,23.0613054 127.535567,17.6832687 C127.535567,12.1200003 131.885089,7.7360058 137.968101,7.7360058 C143.202798,7.7360058 148.216333,11.3464471 148.216333,18.8620165 L132.991427,18.8620165 C133.102008,21.219512 135.276769,22.9507978 138.779029,22.9507978 C140.732628,22.9507978 142.686753,21.9562294 144.013726,20.7038099 L147.184243,23.7248773 Z" id="Fill-9" fill="#3646B3" mask="url(#mask-2)"></path>
                    <path d="M11.7227516,52.9134609 C13.7500712,52.9134609 15.0033233,51.3289923 15.0033233,49.1188403 C15.0033233,46.8350165 13.7500712,45.250548 11.7227516,45.250548 L6.85665807,45.250548 L6.85665807,52.9134609 L11.7227516,52.9134609 Z M1.14277635,66.5074747 L1.14277635,40.71921 L12.4599587,40.71921 C17.8052369,40.71921 20.7545919,44.6243382 20.7545919,49.1556762 C20.7545919,53.6870141 17.7683765,57.407963 12.4599587,57.407963 L6.85665807,57.407963 L6.85665807,66.5074747 L1.14277635,66.5074747 Z" id="Fill-10" fill="#3646B3" mask="url(#mask-2)"></path>
                    <path d="M29.3041935,51.7346079 C29.9308195,48.308346 32.8433142,47.2032699 34.5020302,47.2032699 C35.1291829,47.2032699 35.3129581,47.2401058 35.9027238,47.3506134 L35.9027238,52.7660122 C35.1291829,52.5818328 34.1334267,52.5081611 33.5805213,52.5081611 C31.5163414,52.5081611 29.4516349,53.7237447 29.4516349,56.2291099 L29.4516349,66.5073695 L23.9589153,66.5073695 L23.9589153,47.6084645 L29.3041935,47.6084645 L29.3041935,51.7346079 Z" id="Fill-11" fill="#3646B3" mask="url(#mask-2)"></path>
                    <path d="M47.7346347,62.1969415 C50.462301,62.1969415 52.78503,59.9867894 52.78503,57.0393938 C52.78503,54.128834 50.462301,51.918682 47.7346347,51.918682 C45.0433021,51.918682 42.6842394,54.0925244 42.6842394,57.0393938 C42.6842394,60.0236253 45.0433021,62.1969415 47.7346347,62.1969415 M47.7346347,47.2031647 C53.2642146,47.2031647 58.1303082,51.1819646 58.1303082,57.0393938 C58.1303082,62.9336588 53.2642146,66.9124588 47.7346347,66.9124588 C42.2419151,66.9124588 37.3389612,62.9704947 37.3389612,57.0393938 C37.3389612,51.1451287 42.2419151,47.2031647 47.7346347,47.2031647" id="Fill-12" fill="#3646B3" mask="url(#mask-2)"></path>
                    <path d="M70.9194299,62.4549504 C73.6107624,62.4549504 75.8592441,60.7231384 75.8592441,57.2974027 C75.8592441,53.7974691 73.7582039,51.6609888 70.7719885,51.6609888 C67.7489127,51.6609888 66.0533363,54.092156 66.0533363,57.0027158 C66.0533363,60.0232569 67.8963541,62.4549504 70.9194299,62.4549504 L70.9194299,62.4549504 Z M81.2045223,39.8719324 L81.2045223,66.5074221 L75.7118027,66.5074221 L75.7118027,63.7442058 C74.3479696,65.697033 72.5418121,66.9126166 69.7767589,66.9126166 C64.0260168,66.9126166 60.5606168,62.4917863 60.5606168,56.9658799 C60.5606168,51.6609888 63.7674677,47.2033225 69.6661778,47.2033225 C72.2095423,47.2033225 74.4216903,48.455742 75.7118027,50.1875541 L75.7118027,39.8719324 L81.2045223,39.8719324 Z" id="Fill-13" fill="#3646B3" mask="url(#mask-2)"></path>
                    <path d="M103.836623,66.5072116 L98.3439032,66.5072116 L98.3439032,63.9287009 C96.7589079,66.1388529 94.7679221,66.9124061 92.4825801,66.9124061 C87.1736357,66.9124061 85.7360818,62.6757551 85.7360818,57.8865661 L85.7360818,47.6083066 L91.229328,47.6083066 L91.229328,57.7760585 C91.229328,60.3919313 92.1871706,62.3810682 94.7310618,62.3810682 C97.2749529,62.3810682 98.3439032,60.3550955 98.3439032,57.7392226 L98.3439032,47.6083066 L103.836623,47.6083066 L103.836623,66.5072116 Z" id="Fill-14" fill="#3646B3" mask="url(#mask-2)"></path>
                    <path d="M117.990157,47.2031121 C119.943756,47.2031121 122.487647,47.6088328 125.731358,50.0031642 L123.224854,54.0188 C121.38131,52.3606598 119.206549,52.1396445 118.248179,52.1396445 C115.040802,52.1396445 112.902901,54.1656173 112.902901,57.0393412 C112.902901,59.9130651 115.040802,61.9390378 118.248179,61.9390378 C119.206549,61.9390378 121.38131,61.7180226 123.224854,60.0604085 L125.731358,64.0755181 C122.487647,66.4703757 119.943756,66.8755703 117.990157,66.8755703 C111.502208,66.8755703 107.410182,62.6389193 107.410182,57.0393412 C107.410182,51.4397631 111.502208,47.2031121 117.990157,47.2031121" id="Fill-15" fill="#3646B3" mask="url(#mask-2)"></path>
                    <path d="M135.719198,47.6085697 L140.953895,47.6085697 L140.953895,51.9183662 L135.719198,51.9183662 L135.719198,60.7600269 C135.719198,61.5709422 136.050941,62.4181672 137.119892,62.4181672 C138.188842,62.4181672 138.557972,61.5335801 138.557972,60.6495193 C138.557972,60.0969813 138.410004,59.3234281 138.299423,59.0287411 L142.649998,59.0287411 C142.981741,59.7286226 143.091796,60.6126834 143.091796,61.2762553 C143.091796,64.0757812 141.248778,66.9126693 136.788149,66.9126693 C133.47019,66.9126693 130.226479,65.7333953 130.226479,60.2443248 L130.226479,51.9183662 L127.387705,51.9183662 L127.387705,47.6085697 L130.631943,47.6085697 L131.479731,42.9667242 L135.719198,42.9667242 L135.719198,47.6085697 Z" id="Fill-16" fill="#3646B3" mask="url(#mask-2)"></path>
                    <path d="M148.324861,59.8392355 C148.877766,62.0125517 150.794504,62.6761235 152.306306,62.6761235 C153.522697,62.6761235 154.775949,62.196731 154.775949,61.2389984 C154.775949,60.6127887 154.407346,60.1707583 153.375256,59.8023996 L150.057297,58.4026366 C145.559807,56.8181681 145.338645,53.8344628 145.338645,52.9872379 C145.338645,49.1926173 148.693464,47.2029542 152.748103,47.2029542 C154.923391,47.2029542 157.799025,47.7923281 159.568322,51.1817541 L155.328855,53.1345813 C154.84967,51.6243108 153.485837,51.3290976 152.637522,51.3290976 C151.605432,51.3290976 150.536482,51.9184715 150.536482,52.8767303 C150.536482,53.6871193 151.34741,54.1291498 152.306306,54.4975084 L155.144553,55.6025845 C159.605183,56.8918398 160.010647,59.8023996 160.010647,61.0553453 C160.010647,64.9231114 156.434666,66.9122483 152.269445,66.9122483 C149.467532,66.9122483 145.633528,66.0281874 144.343416,62.0867496 L148.324861,59.8392355 Z" id="Fill-17" fill="#3646B3" mask="url(#mask-2)"></path>
                    <polygon id="Fill-18" fill="#3646B3" mask="url(#mask-2)" points="13.5290144 105.679526 7.07792552 90.2805543 5.71409236 105.974213 0.000210630605 105.974213 2.39613376 80.1864741 8.14687584 80.1864741 15.3720322 97.5377465 22.597715 80.1864741 28.3484571 80.1864741 30.7443803 105.974213 25.0304985 105.974213 23.6666654 90.2805543 17.2155765 105.679526"></polygon>
                    <path d="M44.0485991,101.921951 C46.7399317,101.921951 48.9884134,100.190139 48.9884134,96.7644037 C48.9884134,93.2644701 46.8873731,91.1279898 43.9011577,91.1279898 C40.8780819,91.1279898 39.1825056,93.559157 39.1825056,96.4697168 C39.1825056,99.4902579 41.0255234,101.921951 44.0485991,101.921951 L44.0485991,101.921951 Z M54.3336915,87.0755181 L54.3336915,105.974423 L48.8409719,105.974423 L48.8409719,103.211207 C47.4771388,105.164034 45.6709813,106.379618 42.9059281,106.379618 C37.155186,106.379618 33.689786,101.958787 33.689786,96.4328809 C33.689786,91.1279898 36.8966369,86.6703236 42.795347,86.6703236 C45.3387116,86.6703236 47.5508595,87.9227431 48.8409719,89.6545551 L48.8409719,87.0755181 L54.3336915,87.0755181 Z" id="Fill-19" fill="#3646B3" mask="url(#mask-2)"></path>
                    <path d="M59.0493422,87.0755707 L64.5420618,87.0755707 L64.5420618,89.6540815 C66.1270571,87.4439294 68.1180429,86.66985 70.4033849,86.66985 C75.7118027,86.66985 77.1498832,90.9070272 77.1498832,95.69569 L77.1498832,105.974476 L71.656637,105.974476 L71.656637,95.8067238 C71.656637,93.190851 70.6987943,91.2017141 68.1549032,91.2017141 C65.6110121,91.2017141 64.5420618,93.2276868 64.5420618,95.8435597 L64.5420618,105.974476 L59.0493422,105.974476 L59.0493422,87.0755707 Z" id="Fill-20" fill="#3646B3" mask="url(#mask-2)"></path>
                    <path d="M99.5234873,105.974213 L94.0307677,105.974213 L94.0307677,103.395702 C92.4457724,105.605854 90.4547866,106.379407 88.1694445,106.379407 C82.8605001,106.379407 81.4229463,102.142756 81.4229463,97.3535671 L81.4229463,87.0753076 L86.9161924,87.0753076 L86.9161924,97.2430595 C86.9161924,99.8589324 87.8740351,101.848069 90.4179262,101.848069 C92.9618174,101.848069 94.0307677,99.8220965 94.0307677,97.2062237 L94.0307677,87.0753076 L99.5234873,87.0753076 L99.5234873,105.974213 Z" id="Fill-21" fill="#3646B3" mask="url(#mask-2)"></path>
                    <path d="M111.133341,87.222809 L115.372808,87.222809 L115.372808,91.3857882 L111.133341,91.3857882 L111.133341,105.97437 L105.640621,105.97437 L105.640621,91.3857882 L102.986149,91.3857882 L102.986149,87.222809 L105.640621,87.222809 L105.640621,85.9703895 C105.640621,80.481319 108.884333,78.9342125 112.202291,78.9342125 C116.662921,78.9342125 118.247916,81.7705743 118.247916,84.5701003 C118.247916,84.7548058 118.174195,85.3810156 118.063614,85.6020308 L113.824147,85.6020308 C113.934728,85.4909969 113.972115,85.1231645 113.972115,84.9752948 C113.972115,84.091234 113.602985,83.3176808 112.534034,83.3176808 C111.465084,83.3176808 111.133341,84.2754133 111.133341,85.0858024 L111.133341,87.222809 Z" id="Fill-22" fill="#3646B3" mask="url(#mask-2)"></path>
                    <path d="M127.867837,101.921951 C130.55917,101.921951 132.807651,100.190139 132.807651,96.7644037 C132.807651,93.2644701 130.706611,91.1279898 127.720396,91.1279898 C124.69732,91.1279898 123.001744,93.559157 123.001744,96.4697168 C123.001744,99.4902579 124.844761,101.921951 127.867837,101.921951 L127.867837,101.921951 Z M138.15293,87.0755181 L138.15293,105.974423 L132.66021,105.974423 L132.66021,103.211207 C131.296377,105.164034 129.490219,106.379618 126.725166,106.379618 C120.974424,106.379618 117.509024,101.958787 117.509024,96.4328809 C117.509024,91.1279898 120.715875,86.6703236 126.614585,86.6703236 C129.15795,86.6703236 131.370097,87.9227431 132.66021,89.6545551 L132.66021,87.0755181 L138.15293,87.0755181 Z" id="Fill-23" fill="#3646B3" mask="url(#mask-2)"></path>
                    <path d="M152.269077,86.6701131 C154.222676,86.6701131 156.766567,87.0758338 160.010278,89.4701652 L157.503774,93.485801 C155.660229,91.8276608 153.485468,91.6066456 152.527099,91.6066456 C149.319722,91.6066456 147.181821,93.6326183 147.181821,96.5063422 C147.181821,99.3800661 149.319722,101.406039 152.527099,101.406039 C153.485468,101.406039 155.660229,101.185024 157.503774,99.5274095 L160.010278,103.542519 C156.766567,105.937377 154.222676,106.342571 152.269077,106.342571 C145.781127,106.342571 141.689101,102.10592 141.689101,96.5063422 C141.689101,90.9067641 145.781127,86.6701131 152.269077,86.6701131" id="Fill-24" fill="#3646B3" mask="url(#mask-2)"></path>
                    <path d="M169.998065,87.0755707 L175.232762,87.0755707 L175.232762,91.3853672 L169.998065,91.3853672 L169.998065,100.227028 C169.998065,101.037943 170.329809,101.885168 171.398759,101.885168 C172.467709,101.885168 172.836839,101.000581 172.836839,100.11652 C172.836839,99.5639823 172.688871,98.7904291 172.57829,98.4957421 L176.928865,98.4957421 C177.260609,99.1956236 177.370663,100.079684 177.370663,100.743256 C177.370663,103.542782 175.527645,106.37967 171.067016,106.37967 C167.749057,106.37967 164.505346,105.200396 164.505346,99.7113258 L164.505346,91.3853672 L161.666572,91.3853672 L161.666572,87.0755707 L164.91081,87.0755707 L165.758598,82.4337252 L169.998065,82.4337252 L169.998065,87.0755707 Z" id="Fill-25" fill="#3646B3" mask="url(#mask-2)"></path>
                    <path d="M197.976076,105.974213 L192.483356,105.974213 L192.483356,103.395702 C190.898361,105.605854 188.907375,106.379407 186.622033,106.379407 C181.313089,106.379407 179.875535,102.142756 179.875535,97.3535671 L179.875535,87.0753076 L185.368781,87.0753076 L185.368781,97.2430595 C185.368781,99.8589324 186.326624,101.848069 188.870515,101.848069 C191.414406,101.848069 192.483356,99.8220965 192.483356,97.2062237 L192.483356,87.0753076 L197.976076,87.0753076 L197.976076,105.974213 Z" id="Fill-26" fill="#3646B3" mask="url(#mask-2)"></path>
                    <path d="M208.074339,91.2016089 C208.700965,87.775347 211.61346,86.6702709 213.272176,86.6702709 C213.899328,86.6702709 214.083104,86.7071068 214.672869,86.8176144 L214.672869,92.2330132 C213.899328,92.0488338 212.903572,91.9751621 212.350667,91.9751621 C210.286487,91.9751621 208.22178,93.1907457 208.22178,95.696111 L208.22178,105.97437 L202.729061,105.97437 L202.729061,87.0754655 L208.074339,87.0754655 L208.074339,91.2016089 Z" id="Fill-27" fill="#3646B3" mask="url(#mask-2)"></path>
                    <path d="M217.583521,105.974686 L223.07624,105.974686 L223.07624,87.0757812 L217.583521,87.0757812 L217.583521,105.974686 Z M220.384908,78.934002 C222.338507,78.934002 223.887168,80.2232574 223.887168,82.065577 C223.887168,83.8705345 222.338507,85.122954 220.384908,85.122954 C218.394449,85.122954 216.919508,83.8705345 216.919508,82.065577 C216.919508,80.2232574 218.394449,78.934002 220.384908,78.934002 L220.384908,78.934002 Z" id="Fill-28" fill="#3646B3" mask="url(#mask-2)"></path>
                    <path d="M227.866981,87.0755707 L233.359701,87.0755707 L233.359701,89.6540815 C234.944696,87.4439294 236.935682,86.66985 239.221024,86.66985 C244.529441,86.66985 245.967522,90.9070272 245.967522,95.69569 L245.967522,105.974476 L240.474276,105.974476 L240.474276,95.8067238 C240.474276,93.190851 239.516433,91.2017141 236.972542,91.2017141 C234.428651,91.2017141 233.359701,93.2276868 233.359701,95.8435597 L233.359701,105.974476 L227.866981,105.974476 L227.866981,87.0755707 Z" id="Fill-29" fill="#3646B3" mask="url(#mask-2)"></path>
                    <path d="M259.714855,101.921951 C262.405661,101.921951 264.654669,100.190139 264.654669,96.7644037 C264.654669,93.2644701 262.553629,91.1279898 259.567413,91.1279898 C256.544338,91.1279898 254.848761,93.559157 254.848761,96.4697168 C254.848761,99.4902579 256.691779,101.921951 259.714855,101.921951 L259.714855,101.921951 Z M269.999947,104.648332 C269.999947,112.089703 265.133854,115.000263 259.751715,115.000263 C255.549108,115.000263 252.710861,113.931497 250.793596,112.38439 L252.968357,108.110903 C254.074694,109.068636 256.544338,110.247384 258.645905,110.247384 C261.484152,110.247384 264.507228,109.400159 264.507228,105.274542 L264.507228,103.211207 C263.143395,105.164034 261.337237,106.379618 258.572184,106.379618 C252.821442,106.379618 249.356042,101.958787 249.356042,96.4328809 C249.356042,91.1279898 252.562893,86.6703236 258.461603,86.6703236 C261.004967,86.6703236 263.217115,87.9227431 264.507228,89.6545551 L264.507228,87.0755181 L269.999947,87.0755181 L269.999947,104.648332 Z" id="Fill-30" fill="#3646B3" mask="url(#mask-2)"></path>
                </g>
            </g>
        </g>
    </g>
</svg>