<?xml version="1.0" encoding="UTF-8"?>
<svg width="159px" height="75px" viewBox="0 0 159 75" version="1.1" xmlns="http://www.w3.org/2000/svg" xmlns:xlink="http://www.w3.org/1999/xlink">
    <title>Group 34</title>
    <defs>
        <polygon id="path-1" points="0 75 159 75 159 0 0 0"></polygon>
    </defs>
    <g id="WEBSITE" stroke="none" stroke-width="1" fill="none" fill-rule="evenodd">
        <g id="Client-›-Jodel-Copy" transform="translate(-116.000000, -2133.000000)">
            <g id="Group-34" transform="translate(116.000000, 2133.000000)">
                <polygon id="Fill-1" fill="#3646B3" points="0 75 2 75 2 0 0 0"></polygon>
                <polygon id="Fill-2" fill="#3646B3" points="16 43 21 43 21 24 16 24"></polygon>
                <polygon id="Fill-3" fill="#3646B3" points="24 43 24 24 37 24 37 27.3382308 28.3335996 27.3382308 28.3335996 32.0071013 35.8539043 32.0071013 35.8539043 35.3457198 28.3335996 35.3457198 28.3335996 43"></polygon>
                <g id="Group-33">
                    <path d="M43.2033639,37.2659605 C43.700583,38.9795132 44.916402,39.9189868 46.7119152,39.9189868 C48.2311957,39.9189868 49.6127544,39.3663553 49.6127544,37.9295132 C49.6127544,37.1830658 49.1980105,36.4922763 47.374874,35.85675 L45.2755046,35.1379342 C40.9931068,33.6734605 40.3577714,30.9928026 40.3577714,29.3901711 C40.3577714,25.9085921 43.0928708,23.7529342 46.8780495,23.7529342 C49.8613639,23.7529342 52.1821141,25.1897763 53.3418973,27.9809605 L49.8613639,29.7221447 C49.0322708,27.7599079 47.6791247,27.5384605 46.8780495,27.5384605 C45.5517374,27.5384605 44.5292814,28.0638553 44.5292814,29.3349079 C44.5292814,29.8322763 44.6677924,30.7445132 46.6014221,31.4076711 L48.6459395,32.1260921 C52.9831893,33.4800395 53.7566411,36.0778026 53.7838698,37.8466184 C53.7838698,41.9088553 50.2480898,43.7049079 46.8500316,43.7049079 C43.1481174,43.7049079 39.7776825,41.6045132 39.3909565,38.0124079 L43.2033639,37.2659605 Z" id="Fill-4" fill="#3646B3"></path>
                    <polygon id="Fill-6" fill="#3646B3" points="75.5505022 43.4009605 75.5505022 35.85675 68.2023148 35.85675 68.2023148 43.4009605 63.9199171 43.4009605 63.9199171 24.0568816 68.2023148 24.0568816 68.2023148 32.4576711 75.5505022 32.4576711 75.5505022 24.0568816 79.8329 24.0568816 79.8329 43.4009605"></polygon>
                    <path d="M92.3449046,33.2037237 C93.8645797,33.2037237 94.8037712,32.0155658 94.8037712,30.3576711 C94.8037712,28.6441184 93.8645797,27.4555658 92.3449046,27.4555658 L88.6986315,27.4555658 L88.6986315,33.2037237 L92.3449046,33.2037237 Z M84.4162337,43.4009605 L84.4162337,24.0568816 L92.8973702,24.0568816 C96.9035352,24.0568816 99.1133977,26.9862237 99.1133977,30.3849079 C99.1133977,33.7843816 96.8755173,36.5751711 92.8973702,36.5751711 L88.6986315,36.5751711 L88.6986315,43.4009605 L84.4162337,43.4009605 Z" id="Fill-8" fill="#3646B3"></path>
                    <path d="M111.598726,23.7527763 C114.610058,23.7527763 116.571706,24.7198816 118.532564,26.18475 L116.764674,29.4456711 C115.355887,28.3676447 113.808983,27.5663289 111.626349,27.5663289 C107.703449,27.5663289 105.327452,30.2742237 105.327452,33.7285658 C105.327452,37.1829079 107.703449,39.8915921 111.626349,39.8915921 C113.808983,39.8915921 115.355887,39.0898816 116.764674,38.01225 L118.532564,41.2731711 C116.571706,42.7380395 114.610058,43.7051447 111.598726,43.7051447 C105.051219,43.7051447 100.990202,39.1175132 100.990202,33.7285658 C100.990202,28.3400132 105.051219,23.7527763 111.598726,23.7527763" id="Fill-10" fill="#3646B3"></path>
                    <polygon id="Fill-12" fill="#3646B3" points="125.436175 24.0569211 129.966787 24.0569211 134.24879 37.791 138.531188 24.0569211 143.061801 24.0569211 136.210438 43.401 132.259914 43.401"></polygon>
                    <path d="M150.463617,40.1679079 C151.596171,40.0293553 153.253568,40.0017237 153.474949,40.0017237 L159,40.0017237 L159,43.4008026 L144.828073,43.4008026 L144.413329,40.8586974 L151.761911,34.0881711 C153.032977,32.9829079 154.358894,31.4627763 154.358894,29.9983026 C154.358894,28.28475 153.198716,27.2623816 151.319939,27.2623816 C148.80622,27.2623816 148.142867,29.0308026 148.142867,30.2469868 L144.109473,30.2469868 C144.109473,27.7048816 145.933004,23.7527763 151.319939,23.7527763 C155.546695,23.7527763 158.419911,26.1571184 158.419911,29.9706711 C158.419911,32.9829079 156.264901,35.2210658 154.414141,36.7964605 L150.463617,40.1679079 Z" id="Fill-14" fill="#3646B3"></path>
                    <mask id="mask-2" fill="white">
                        <use xlink:href="#path-1"></use>
                    </mask>
                    <g id="Clip-17"></g>
                    <polygon id="Fill-16" fill="#3646B3" mask="url(#mask-2)" points="16.1047674 73.0061842 20.3871652 73.0061842 20.3871652 53.6621053 16.1047674 53.6621053"></polygon>
                    <path d="M27.2648887,66.8712237 C27.7625023,68.5847763 28.9779267,69.52425 30.77344,69.52425 C32.2927204,69.52425 33.6742791,68.9716184 33.6742791,67.5347763 C33.6742791,66.7883289 33.2595352,66.0975395 31.4363987,65.4620132 L29.3370293,64.7431974 C25.0546316,63.2787237 24.4192961,60.5980658 24.4192961,58.9954342 C24.4192961,55.5138553 27.1543955,53.3581974 30.9395743,53.3581974 C33.9228886,53.3581974 36.2436388,54.7950395 37.403422,57.5862237 L33.9228886,59.3274079 C33.0937956,57.3651711 31.7402548,57.1437237 30.9395743,57.1437237 C29.6132622,57.1437237 28.5908061,57.6691184 28.5908061,58.9401711 C28.5908061,59.4375395 28.7293172,60.3497763 30.6629468,61.0129342 L32.7074642,61.7313553 C37.0443194,63.0853026 37.8181658,65.6830658 37.8453945,67.4518816 C37.8453945,71.5141184 34.3096145,73.3101711 30.9115564,73.3101711 C27.2096421,73.3101711 23.8392072,71.2097763 23.4524813,67.6176711 L27.2648887,66.8712237 Z" id="Fill-18" fill="#3646B3" mask="url(#mask-2)"></path>
                    <path d="M50.0821923,69.3861316 C53.2592642,69.3861316 55.8834759,66.8712632 55.8834759,63.3340263 C55.8834759,59.7967895 53.2592642,57.2823158 50.0821923,57.2823158 C46.8774971,57.2823158 44.2532854,59.7967895 44.2532854,63.3340263 C44.2532854,66.8712632 46.8774971,69.3861316 50.0821923,69.3861316 M50.0821923,53.3582368 C55.6076377,53.3582368 60.1106271,57.8349474 60.1106271,63.3340263 C60.1106271,68.8335 55.6076377,73.3102105 50.0821923,73.3102105 C44.5295182,73.3102105 40.0265288,68.8335 40.0265288,63.3340263 C40.0265288,57.8349474 44.5295182,53.3582368 50.0821923,53.3582368" id="Fill-19" fill="#3646B3" mask="url(#mask-2)"></path>
                    <path d="M80.2466178,60.2115789 C80.2466178,58.5532895 79.0035702,56.8401316 76.7376719,56.8401316 C74.8040422,56.8401316 73.1742687,58.2217105 73.1742687,60.0457895 C73.1742687,61.9523684 74.5001861,63.2790789 76.6548021,63.2790789 C79.141292,63.2790789 80.2466178,61.7589474 80.2466178,60.2115789 M80.4952274,64.6053947 L80.3847342,64.6053947 C79.6661343,65.7106579 77.8982443,66.5396053 76.1023364,66.5396053 C72.621803,66.5396053 69.0027586,64.1632895 69.0027586,60.0181579 C69.0027586,56.1765789 72.0969607,53.3581579 76.6275734,53.3581579 C81.6001586,53.3581579 84.721984,57.2546053 84.721984,62.8918421 C84.721984,68.6676316 81.8491627,73.3105263 76.1856009,73.3105263 C73.505748,73.3105263 70.9916348,72.2877632 69.4447311,70.4640789 L71.9584497,68.1702632 C73.2843672,69.5794737 75.080275,69.7452632 76.0194666,69.7452632 C77.8982443,69.7452632 80.2738465,68.1146053 80.4952274,64.6053947" id="Fill-20" fill="#3646B3" mask="url(#mask-2)"></path>
                    <path d="M95.6598562,56.7017368 C92.8695102,56.7017368 91.1840954,59.6587105 91.1840954,63.3341053 C91.1840954,66.9818684 92.8695102,69.9388421 95.6598562,69.9388421 C98.4498075,69.9388421 100.190074,66.9818684 100.190074,63.3341053 C100.190074,59.6587105 98.4498075,56.7017368 95.6598562,56.7017368 M95.6598562,73.2826579 C90.3001504,73.2826579 87.0682265,68.8331842 87.0682265,63.3341053 C87.0682265,57.8073947 90.3001504,53.3579211 95.6598562,53.3579211 C100.991544,53.3579211 104.306732,57.8073947 104.306732,63.3341053 C104.306732,68.8331842 100.991544,73.2826579 95.6598562,73.2826579" id="Fill-21" fill="#3646B3" mask="url(#mask-2)"></path>
                    <path d="M115.216942,56.7017368 C112.426596,56.7017368 110.741181,59.6587105 110.741181,63.3341053 C110.741181,66.9818684 112.426596,69.9388421 115.216942,69.9388421 C118.006893,69.9388421 119.74716,66.9818684 119.74716,63.3341053 C119.74716,59.6587105 118.006893,56.7017368 115.216942,56.7017368 M115.216942,73.2826579 C109.857236,73.2826579 106.625312,68.8331842 106.625312,63.3341053 C106.625312,57.8073947 109.857236,53.3579211 115.216942,53.3579211 C120.54863,53.3579211 123.863818,57.8073947 123.863818,63.3341053 C123.863818,68.8331842 120.54863,73.2826579 115.216942,73.2826579" id="Fill-22" fill="#3646B3" mask="url(#mask-2)"></path>
                    <path d="M125.215386,56.7846316 L132.204865,53.6622632 L134.552844,53.6622632 L134.552844,73.0063421 L130.353711,73.0063421 L130.353711,58.4705526 C129.08304,59.0231842 127.287132,59.5758158 126.26507,60.0179211 L125.215386,56.7846316 Z" id="Fill-23" fill="#3646B3" mask="url(#mask-2)"></path>
                    <path d="M19.6549904,2.13825 C21.1604592,2.13825 22.1414803,2.62219737 23.1221068,3.35403947 L22.2381618,4.98469737 C21.5337682,4.44588158 20.7599217,4.04522368 19.6688021,4.04522368 C17.7071545,4.04522368 16.5193534,5.39917105 16.5193534,7.12653947 C16.5193534,8.85351316 17.7071545,10.2074605 19.6688021,10.2074605 C20.7599217,10.2074605 21.5337682,9.80680263 22.2381618,9.26798684 L23.1221068,10.89825 C22.1414803,11.6308816 21.1604592,12.1140395 19.6549904,12.1140395 C16.381237,12.1140395 14.3509259,9.82061842 14.3509259,7.12653947 C14.3509259,4.43206579 16.381237,2.13825 19.6549904,2.13825" id="Fill-24" fill="#3646B3" mask="url(#mask-2)"></path>
                    <polygon id="Fill-25" fill="#3646B3" mask="url(#mask-2)" points="24.5434035 11.9623421 24.5434035 2.29010526 30.966211 2.29010526 30.966211 3.98984211 26.6846024 3.98984211 26.6846024 6.36615789 30.4003284 6.36615789 30.4003284 8.06589474 26.6846024 8.06589474 26.6846024 10.2626053 30.966211 10.2626053 30.966211 11.9623421"></polygon>
                    <path d="M36.7669422,6.80838158 C37.5265824,6.80838158 37.9823665,6.25614474 37.9823665,5.45443421 C37.9823665,4.63930263 37.5265824,4.08627632 36.7669422,4.08627632 L34.8743528,4.08627632 L34.8743528,6.80838158 L36.7669422,6.80838158 Z M38.079048,8.36996053 C38.3276575,9.39232895 38.7147781,10.2212763 39.6815929,10.2212763 C40.0130723,10.2212763 40.3997982,10.0558816 40.6622194,9.80680263 L41.4218596,11.2854868 C40.7865242,11.7828553 40.2612872,12.1140395 39.2668491,12.1140395 C36.9737221,12.1140395 36.2693285,9.54430263 36.15923,8.52193421 L34.8743528,8.52193421 L34.8743528,11.9624605 L32.7469655,11.9624605 L32.7469655,2.29022368 L37.043175,2.29022368 C39.0320512,2.29022368 40.1235654,3.76890789 40.1235654,5.46785526 C40.1235654,6.83601316 39.3501135,7.96890789 38.079048,8.36996053 L38.079048,8.36996053 Z" id="Fill-26" fill="#3646B3" mask="url(#mask-2)"></path>
                    <polygon id="Fill-27" fill="#3646B3" mask="url(#mask-2)" points="48.8243465 2.29010526 48.8243465 4.08655263 46.07583 4.08655263 46.07583 11.9623421 43.9622544 11.9623421 43.9622544 4.08655263 41.2409666 4.08655263 41.2409666 2.29010526"></polygon>
                    <polygon id="Fill-28" fill="#3646B3" mask="url(#mask-2)" points="50.3012054 11.9625 52.4424043 11.9625 52.4424043 2.29026316 50.3012054 2.29026316"></polygon>
                    <polygon id="Fill-29" fill="#3646B3" mask="url(#mask-2)" points="54.7351761 11.9623421 54.7351761 2.29010526 61.1579836 2.29010526 61.1579836 3.98984211 56.876375 3.98984211 56.876375 6.36615789 60.5921009 6.36615789 60.5921009 8.06589474 56.876375 8.06589474 56.876375 11.9623421"></polygon>
                    <polygon id="Fill-30" fill="#3646B3" mask="url(#mask-2)" points="62.8145517 11.9625 64.9557506 11.9625 64.9557506 2.29026316 62.8145517 2.29026316"></polygon>
                    <polygon id="Fill-31" fill="#3646B3" mask="url(#mask-2)" points="67.248483 11.9623421 67.248483 2.29010526 73.6712904 2.29010526 73.6712904 3.98984211 69.3896818 3.98984211 69.3896818 6.36615789 73.1054078 6.36615789 73.1054078 8.06589474 69.3896818 8.06589474 69.3896818 10.2626053 73.6712904 10.2626053 73.6712904 11.9623421"></polygon>
                    <path d="M79.0850983,3.98972368 L77.6072528,3.98972368 L77.6072528,10.2628816 L79.0850983,10.2628816 C80.9220465,10.2628816 82.0688073,8.85327632 82.0688073,7.12630263 C82.0688073,5.39893421 80.9220465,3.98972368 79.0850983,3.98972368 M79.0850983,11.9622237 L75.4660539,11.9622237 L75.4660539,2.28998684 L79.0850983,2.28998684 C82.2483586,2.28998684 84.2234232,4.45946053 84.2234232,7.12630263 C84.2234232,9.79314474 82.2483586,11.9622237 79.0850983,11.9622237" id="Fill-32" fill="#3646B3" mask="url(#mask-2)"></path>
                </g>
            </g>
        </g>
    </g>
</svg>