<?xml version="1.0" encoding="UTF-8"?>
<svg width="285px" height="200px" viewBox="0 0 285 200" version="1.1" xmlns="http://www.w3.org/2000/svg" xmlns:xlink="http://www.w3.org/1999/xlink">
    <title>Group 25</title>
    <defs>
        <polygon id="path-1" points="0 200 285 200 285 0 0 0"></polygon>
    </defs>
    <g id="WEBSITE" stroke="none" stroke-width="1" fill="none" fill-rule="evenodd">
        <g id="Client-›-Jodel-Copy" transform="translate(-115.000000, -1270.000000)">
            <g id="Group-25" transform="translate(115.000000, 1270.000000)">
                <path d="M6.40905602,13.2838494 C6.40905602,16.1339848 7.57261411,19.5959542 14.4190871,21.8352736 L22.7717842,24.5500114 C28.6594087,26.4503279 34,30.929306 34,37.1053346 C34,44.2311821 27.8381743,50 17.9111307,50 C8.94190871,50 3.05394191,45.1138112 1,40.0236778 L4.21818465,39.141388 C5.72440871,43.0098894 10.4481328,47.0819962 17.8419813,47.0819962 C25.9208195,47.0819962 30.6452282,42.5344709 30.6452282,37.2410715 C30.6452282,31.9473327 25.9896266,28.8932526 21.7448133,27.5358837 L13.3921162,24.8211459 C4.69743776,22.0388789 2.9858195,17.2880877 3.05394191,13.4192469 C3.05394191,5.61471499 10.0376867,1 17.9111307,1 C25.5103734,1 31.0556743,5.00423832 32.5618983,10.7730562 L29.5497925,11.7228751 C28.3858921,7.0402917 23.9356846,3.91800384 17.9111307,3.91800384 C11.6804979,3.91800384 6.40905602,7.37963393 6.40905602,13.2838494" id="Fill-1" fill="#3646B3"></path>
                <path d="M57.931378,47.2299874 C66.0694649,47.2299874 72.7589034,40.608174 72.7589034,32.5674006 C72.7589034,24.4593955 66.0694649,17.7700126 57.931378,17.7700126 C49.9312247,17.7700126 43.2414414,24.4593955 43.2414414,32.5674006 C43.2414414,40.6757435 49.9312247,47.2299874 57.931378,47.2299874 M57.931378,15 C67.8622579,15 76,22.972866 76,32.5674006 C76,42.162273 67.8622579,50 57.931378,50 C48.1380869,50 40,42.2295047 40,32.5674006 C40,22.9049586 48.1380869,15 57.931378,15" id="Fill-3" fill="#3646B3"></path>
                <mask id="mask-2" fill="white">
                    <use xlink:href="#path-1"></use>
                </mask>
                <g id="Clip-6"></g>
                <polygon id="Fill-5" fill="#3646B3" mask="url(#mask-2)" points="85 49 88 49 88 0 85 0"></polygon>
                <path d="M103.16483,35.112803 C103.16483,44.6350027 108.945057,47.2507742 114.380555,47.2507742 C118.440234,47.2507742 126.628058,44.2996903 126.834482,33.1676562 L126.834482,16 L130,16 L130,49.2626482 L126.834482,49.2626482 L126.834482,41.6171917 C124.426198,47.7202114 118.509043,50 114.242939,50 C107.086893,50 100,46.513087 100,35.112803 L100,16 L103.16483,16 L103.16483,35.112803 Z" id="Fill-7" fill="#3646B3" mask="url(#mask-2)"></path>
                <path d="M145.101042,39.1381055 C145.101042,45.7498988 148.202253,47.2341789 151.236046,47.2341789 C154.674008,47.2341789 157.033625,45.0077587 157.033625,41.8367967 C157.033625,41.7018621 157.033625,40.4874511 156.696536,39.8127783 L159.595494,39.8127783 C160,40.8247875 160,42.1066658 160,42.1066658 C160,46.5595061 156.764291,50 151.236046,50 C146.719065,50 141.999831,48.0434489 141.999831,39.003171 L141.999831,18.3581838 L136,18.3581838 L136,15.7947645 L141.999831,15.7947645 L142.741425,5 L145.101042,5 L145.101042,15.7947645 L156.157533,15.7947645 L156.157533,18.3581838 L145.101042,18.3581838 L145.101042,39.1381055 Z" id="Fill-8" fill="#3646B3" mask="url(#mask-2)"></path>
                <path d="M166.97229,49 L170.166956,49 L170.166956,15.5146345 L166.97229,15.5146345 L166.97229,49 Z M168.500174,1 C169.958261,1 171,2.08018397 171,3.70045992 C171,5.32039832 169.958261,6.40058229 168.500174,6.40058229 C167.041739,6.40058229 166,5.32039832 166,3.70045992 C166,2.08018397 167.041739,1 168.500174,1 L168.500174,1 Z" id="Fill-9" fill="#3646B3" mask="url(#mask-2)"></path>
                <path d="M196.931033,47.2299874 C205.06912,47.2299874 211.758903,40.608174 211.758903,32.5674006 C211.758903,24.4593955 205.06912,17.7700126 196.931033,17.7700126 C188.931225,17.7700126 182.241097,24.4593955 182.241097,32.5674006 C182.241097,40.6757435 188.931225,47.2299874 196.931033,47.2299874 M196.931033,15 C206.862258,15 215,22.972866 215,32.5674006 C215,42.162273 206.862258,50 196.931033,50 C187.138087,50 179,42.2295047 179,32.5674006 C179,22.9049586 187.138087,15 196.931033,15" id="Fill-10" fill="#3646B3" mask="url(#mask-2)"></path>
                <path d="M249.933298,29.887197 C249.933298,20.364662 244.333234,17.7492258 239.066507,17.7492258 C235.133461,17.7492258 227.20037,20.6999744 227.066702,31.8323438 L227.066702,49 L224,49 L224,15.7373518 L227.066702,15.7373518 L227.066702,23.4495355 C229.400062,17.2794532 235.066794,15 239.199841,15 C246.133588,15 253,18.486913 253,29.887197 L253,49 L249.933298,49 L249.933298,29.887197 Z" id="Fill-11" fill="#3646B3" mask="url(#mask-2)"></path>
                <path d="M263.934762,42.2295797 C265.163267,45.4053167 268.57578,47.0269696 272.738705,47.0269696 C276.970222,47.0269696 280.791896,44.662397 280.791896,40.6754957 C280.791896,38.1082164 279.222481,35.8108747 275.331874,34.5942972 L270.282037,33.040551 C266.323521,31.9597869 262.228505,29.5948763 262.228505,24.2565976 C262.228505,19.729821 265.913678,15 272.875206,15 C276.833722,15 281.065238,17.1622039 282.634995,21.3511361 L279.768142,22.1623004 C278.539978,19.1217012 275.605217,17.9726925 272.875206,17.9726925 C268.029778,17.9726925 265.435926,21.1487674 265.435926,24.2565976 C265.435926,27.8377478 268.302438,29.3918319 271.10104,30.2026584 L276.219469,31.7567424 C281.747741,33.4459642 284,36.8919767 284,40.6754957 C284,46.4867565 278.676479,50 272.738705,50 C267.210775,50 262.706257,47.4323829 261,43.0404062 L263.934762,42.2295797 Z" id="Fill-12" fill="#3646B3" mask="url(#mask-2)"></path>
                <path d="M16.4948454,76.7932752 C13.0700681,76.7932752 9.2954744,79.0412469 9.2954744,86.8062861 L9.2954744,90.2123039 L19.7099423,90.2123039 L19.7099423,92.8008774 L9.2954744,92.8008774 L9.2954744,124 L6.08072689,124 L6.08072689,92.8008774 L0,92.8008774 L0,90.2123039 L6.08072689,90.2123039 L6.08072689,87.0791082 C6.08072689,76.7932752 11.4628691,74 16.4948454,74 C22.7153591,74 26,77.5422585 26,82.0378613 C26,82.0378613 26,82.8556462 25.6505329,83.8096717 L22.7153591,83.8096717 C22.9949327,83.2643683 22.9949327,82.3784631 22.9949327,82.242563 C22.9949327,78.9727859 20.5486633,76.7932752 16.4948454,76.7932752" id="Fill-13" fill="#3646B3" mask="url(#mask-2)"></path>
                <path d="M38.931378,121.229987 C47.0694649,121.229987 53.7589034,114.608174 53.7589034,106.567401 C53.7589034,98.4593955 47.0694649,91.7700126 38.931378,91.7700126 C30.9312247,91.7700126 24.2414414,98.4593955 24.2414414,106.567401 C24.2414414,114.675744 30.9312247,121.229987 38.931378,121.229987 M38.931378,89 C48.8622579,89 57,96.972866 57,106.567401 C57,116.162273 48.8622579,124 38.931378,124 C29.1380869,124 21,116.229505 21,106.567401 C21,96.9049586 29.1380869,89 38.931378,89" id="Fill-14" fill="#3646B3" mask="url(#mask-2)"></path>
                <path d="M69.1789264,99.5221996 C70.698937,93.9560149 74.2928515,90 80.5124901,90 C81.3417752,90 82.308929,90.1337896 83,90.2675792 L83,93.3531233 C82.2401675,93.0845382 81.0650013,92.9500779 80.3739304,92.9500779 C72.7033883,92.9500779 69.3171406,100.729659 69.1789264,111.191404 L69.1789264,124 L66,124 L66,90.7373518 L69.1789264,90.7373518 L69.1789264,99.5221996 Z" id="Fill-15" fill="#3646B3" mask="url(#mask-2)"></path>
                <polygon id="Fill-16" fill="#3646B3" mask="url(#mask-2)" points="128.451511 90 132 90 111.782215 139 108.569127 139 114.460068 124.300136 100 90 103.481208 90 116.200672 120.625085"></polygon>
                <path d="M153.931378,121.229987 C162.069465,121.229987 168.758903,114.608174 168.758903,106.567401 C168.758903,98.4593955 162.069465,91.7700126 153.931378,91.7700126 C145.931225,91.7700126 139.241441,98.4593955 139.241441,106.567401 C139.241441,114.675744 145.931225,121.229987 153.931378,121.229987 M153.931378,89 C163.862258,89 172,96.972866 172,106.567401 C172,116.162273 163.862258,124 153.931378,124 C144.138087,124 136,116.229505 136,106.567401 C136,96.9049586 144.138087,89 153.931378,89" id="Fill-17" fill="#3646B3" mask="url(#mask-2)"></path>
                <path d="M183.164866,109.112803 C183.164866,118.635003 188.944815,121.250774 194.38072,121.250774 C198.440102,121.250774 206.628363,118.29969 206.83479,107.167656 L206.83479,90 L210,90 L210,123.262648 L206.83479,123.262648 L206.83479,115.617192 C204.426478,121.720211 198.509255,124 194.242758,124 C187.086974,124 180,120.513087 180,109.112803 L180,90 L183.164866,90 L183.164866,109.112803 Z" id="Fill-18" fill="#3646B3" mask="url(#mask-2)"></path>
                <path d="M225.178581,99.5221996 C226.698937,93.9560149 230.292506,90 236.512145,90 C237.341084,90 238.308929,90.1337896 239,90.2675792 L239,93.3531233 C238.239822,93.0845382 237.065001,92.9500779 236.37393,92.9500779 C228.703043,92.9500779 225.316795,100.729659 225.178581,111.191404 L225.178581,124 L222,124 L222,90.7373518 L225.178581,90.7373518 L225.178581,99.5221996 Z" id="Fill-19" fill="#3646B3" mask="url(#mask-2)"></path>
                <path d="M35.8119846,182.288807 C35.8119846,174.182374 30.3855754,167.506829 21.6358298,167.506829 C12.885745,167.506829 7.05235516,174.182374 7.05235516,182.288807 C7.05235516,190.599263 13.1570655,197.207368 21.5679997,197.207368 C30.1145941,197.207368 35.8119846,190.599263 35.8119846,182.288807 L35.8119846,182.288807 Z M7.12018527,199.251006 L4,199.251006 L4,150 L7.12018527,150 L7.12018527,173.909889 C9.49423929,168.460527 14.8528183,164.713857 21.6358298,164.713857 C32.3529879,164.713857 39,172.683706 39,182.288807 C39,192.166052 32.0138373,200 21.7033208,200 C15.0563087,200 9.56240855,196.253329 7.12018527,190.735846 L7.12018527,199.251006 Z" id="Fill-20" fill="#3646B3" mask="url(#mask-2)"></path>
                <path d="M51.1785809,174.5222 C52.698937,168.956015 56.2928515,165 62.5124901,165 C63.3414297,165 64.308929,165.13379 65,165.267579 L65,168.353123 C64.2401675,168.084538 63.0650013,167.950078 62.3739304,167.950078 C54.7033883,167.950078 51.3167951,175.729659 51.1785809,186.191404 L51.1785809,199 L48,199 L48,165.737352 L51.1785809,165.737352 L51.1785809,174.5222 Z" id="Fill-21" fill="#3646B3" mask="url(#mask-2)"></path>
                <path d="M98.9476153,182.432431 C98.9476153,174.391735 93.114508,167.770324 84.3643385,167.770324 C75.6141689,167.770324 70.1877071,174.391735 70.1877071,182.432431 C70.1877071,190.675496 75.8858311,197.230014 84.4321692,197.230014 C92.8431849,197.230014 98.9476153,190.675496 98.9476153,182.432431 L98.9476153,182.432431 Z M98.8801236,190.810971 C96.4382159,196.283712 90.9435842,200 84.2965077,200 C73.9862304,200 67,192.22958 67,182.432431 C67,172.90522 73.6474156,165 84.3643385,165 C91.1474156,165 96.5060466,168.716288 98.8801236,174.12146 L98.8801236,165.743258 L102,165.743258 L102,199.25708 L98.8801236,199.25708 L98.8801236,190.810971 Z" id="Fill-22" fill="#3646B3" mask="url(#mask-2)"></path>
                <path d="M139.933298,179.887197 C139.933298,170.364662 134.333567,167.749226 129.066507,167.749226 C125.133795,167.749226 117.20037,170.699974 117.066702,181.832344 L117.066702,199 L114,199 L114,165.737352 L117.066702,165.737352 L117.066702,173.449535 C119.400062,167.279453 125.066794,165 129.200175,165 C136.133588,165 143,168.486913 143,179.887197 L143,199 L139.933298,199 L139.933298,179.887197 Z" id="Fill-23" fill="#3646B3" mask="url(#mask-2)"></path>
                <path d="M183.947615,182.288807 C183.947615,174.182374 178.114169,167.506829 169.364338,167.506829 C160.614169,167.506829 155.187707,174.182374 155.187707,182.288807 C155.187707,190.599263 160.885492,197.207368 169.43183,197.207368 C177.843185,197.207368 183.947615,190.599263 183.947615,182.288807 L183.947615,182.288807 Z M183.879784,190.735846 C181.438216,196.253329 175.943584,200 169.296508,200 C158.98623,200 152,192.166052 152,182.288807 C152,172.683706 158.647076,164.713857 169.364338,164.713857 C176.147416,164.713857 181.505707,168.460527 183.879784,173.909889 L183.879784,150 L187,150 L187,199.251006 L183.879784,199.251006 L183.879784,190.735846 Z" id="Fill-24" fill="#3646B3" mask="url(#mask-2)"></path>
            </g>
        </g>
    </g>
</svg>